<?xml version="1.0" encoding="iso-8859-1"?>
<!-- Generator: Adobe Illustrator 16.0.0, SVG Export Plug-In . SVG Version: 6.00 Build 0)  -->
<!DOCTYPE svg PUBLIC "-//W3C//DTD SVG 1.1//EN" "http://www.w3.org/Graphics/SVG/1.1/DTD/svg11.dtd">
<svg version="1.1" id="Layer_1" xmlns="http://www.w3.org/2000/svg" xmlns:xlink="http://www.w3.org/1999/xlink" x="0px" y="0px"
	 width="1920px" height="300px" viewBox="0 0 1920 300" style="enable-background:new 0 0 1920 300;" xml:space="preserve">
<g>
	<rect x="1464" y="51" style="fill:#FF7900;" width="67" height="67"/>
	<rect x="1540" y="97" style="fill:#FFD400;" width="61" height="61"/>
	<rect x="1457" y="171" style="fill:#FFA800;" width="68" height="66"/>
	<rect x="1564" y="173" style="fill:#FF7900;" width="54" height="54"/>
	<rect x="1618" y="47" style="fill:#FFA800;" width="54" height="54"/>
	<rect x="1661" y="114" style="fill:#FFA800;" width="47" height="47"/>
	<rect x="1637" y="198" style="fill:#FFD400;" width="47" height="47"/>
	<rect x="1702" y="173" style="fill:#FF7900;" width="40" height="41"/>
	<rect x="1719" y="86" style="fill:#FF7900;" width="47" height="48"/>
	<rect x="1781" y="59" style="fill:#FFD400;" width="41" height="41"/>
	<rect x="1822" y="176" style="fill:#FFD400;" width="34" height="34"/>
	<rect x="1766" y="153" style="fill:#FFA800;" width="40" height="41"/>
	<rect x="1839" y="124" style="fill:#FFA800;" width="33" height="34"/>
	<rect x="1887" y="121" style="fill:#FFD400;" width="27" height="26"/>
	<rect x="1856" y="70" style="fill:#FF7900;" width="33" height="34"/>
</g>
<g>
	<path style="fill:#FF7900;" d="M622.905,109.5c8.531,0,16.065-2.266,22.6-6.8c6.531-4.531,11.331-10.6,14.4-18.2h11
		c-1.734,5.069-4.169,9.734-7.3,14c-3.135,4.269-6.8,7.935-11,11c-4.2,3.069-8.834,5.5-13.9,7.3c-5.068,1.8-10.334,2.7-15.8,2.7
		c-7.069,0-13.634-1.3-19.7-3.9c-6.068-2.6-11.334-6.131-15.8-10.6c-4.469-4.466-8-9.731-10.6-15.8c-2.6-6.066-3.9-12.631-3.9-19.7
		c0-6.931,1.3-13.466,3.9-19.6c2.6-6.131,6.131-11.431,10.6-15.9c4.466-4.466,9.731-8,15.8-10.6c6.066-2.6,12.631-3.9,19.7-3.9
		c6.931,0,13.466,1.3,19.6,3.9c6.131,2.6,11.431,6.134,15.9,10.6c4.466,4.469,8,9.769,10.6,15.9c2.6,6.134,3.9,12.669,3.9,19.6v5
		h-18h-72c0.8,5.069,2.366,9.734,4.7,14c2.331,4.269,5.3,7.935,8.9,11c3.6,3.069,7.631,5.5,12.1,7.3
		C613.071,108.6,617.836,109.5,622.905,109.5z M622.905,29.5c-5.069,0-9.834,0.9-14.3,2.7c-4.469,1.8-8.5,4.234-12.1,7.3
		c-3.6,3.069-6.569,6.769-8.9,11.1c-2.334,4.334-3.9,8.969-4.7,13.9h80c-0.8-4.931-2.369-9.565-4.7-13.9
		c-2.334-4.332-5.3-8.031-8.9-11.1c-3.6-3.065-7.668-5.5-12.2-7.3C632.571,30.4,627.836,29.5,622.905,29.5z"/>
	<path style="fill:#FF7900;" d="M734.904,19.5c6.801,0,13.201,1.334,19.201,4c6,2.669,11.299,6.3,15.899,10.9s8.231,9.9,10.899,15.9
		c2.666,6,4,12.4,4,19.2v50h-10v-50c0-5.466-1.068-10.631-3.199-15.5c-2.135-4.866-5-9.1-8.6-12.7
		c-3.601-3.6-7.835-6.465-12.701-8.6c-4.868-2.131-10.033-3.2-15.5-3.2c-5.469,0-10.634,1.069-15.5,3.2
		c-4.868,2.134-9.1,5-12.699,8.6c-3.6,3.6-6.469,7.834-8.6,12.7c-2.135,4.869-3.201,10.034-3.201,15.5v50h-10v-50
		c0-6.8,1.301-13.2,3.9-19.2s6.131-11.3,10.6-15.9c4.467-4.6,9.732-8.231,15.801-10.9C721.271,20.834,727.836,19.5,734.904,19.5z"/>
	<path style="fill:#FF7900;" d="M796.904,69.5c0-6.931,1.3-13.466,3.9-19.6c2.6-6.131,6.131-11.431,10.6-15.9
		c4.466-4.466,9.731-8,15.8-10.6c6.065-2.6,12.632-3.9,19.7-3.9c8,0,15.531,1.834,22.6,5.5c7.066,3.669,12.866,8.5,17.4,14.5v-38h10
		v68c0,7.069-1.3,13.634-3.9,19.7c-2.6,6.068-6.134,11.334-10.6,15.8c-4.469,4.469-9.769,8-15.9,10.6
		c-6.134,2.6-12.668,3.9-19.6,3.9c-7.068,0-13.635-1.3-19.7-3.9c-6.068-2.6-11.334-6.131-15.8-10.6c-4.469-4.466-8-9.731-10.6-15.8
		C798.204,83.134,796.904,76.569,796.904,69.5z M806.904,69.5c0,5.469,1.065,10.634,3.2,15.5c2.131,4.869,5,9.1,8.6,12.7
		c3.601,3.6,7.831,6.469,12.7,8.6c4.865,2.135,10.031,3.2,15.5,3.2c5.466,0,10.631-1.065,15.5-3.2c4.865-2.131,9.1-5,12.7-8.6
		c3.6-3.6,6.466-7.832,8.6-12.7c2.132-4.866,3.2-10.031,3.2-15.5c0-5.466-1.068-10.631-3.2-15.5c-2.134-4.866-5-9.1-8.6-12.7
		c-3.601-3.6-7.835-6.465-12.7-8.6c-4.869-2.131-10.034-3.2-15.5-3.2c-5.469,0-10.635,1.069-15.5,3.2c-4.869,2.134-9.1,5-12.7,8.6
		c-3.6,3.6-6.469,7.834-8.6,12.7C807.97,58.869,806.904,64.034,806.904,69.5z"/>
	<path style="fill:#FF7900;" d="M958.904,109.5c8.531,0,16.064-2.266,22.6-6.8c6.531-4.531,11.331-10.6,14.4-18.2h11
		c-1.734,5.069-4.17,9.734-7.301,14c-3.135,4.269-6.8,7.935-11,11c-4.199,3.069-8.834,5.5-13.9,7.3
		c-5.068,1.8-10.334,2.7-15.799,2.7c-7.069,0-13.635-1.3-19.701-3.9c-6.068-2.6-11.334-6.131-15.799-10.6
		c-4.469-4.466-8-9.731-10.601-15.8c-2.601-6.066-3.899-12.631-3.899-19.7c0-6.931,1.299-13.466,3.899-19.6
		c2.601-6.131,6.132-11.431,10.601-15.9c4.465-4.466,9.73-8,15.799-10.6c6.066-2.6,12.632-3.9,19.701-3.9
		c6.931,0,13.465,1.3,19.6,3.9c6.131,2.6,11.432,6.134,15.9,10.6c4.465,4.469,8,9.769,10.6,15.9c2.6,6.134,3.9,12.669,3.9,19.6v5
		h-18h-72c0.799,5.069,2.365,9.734,4.699,14c2.332,4.269,5.301,7.935,8.9,11c3.6,3.069,7.631,5.5,12.1,7.3
		C949.069,108.6,953.835,109.5,958.904,109.5z M958.904,29.5c-5.069,0-9.835,0.9-14.301,2.7c-4.469,1.8-8.5,4.234-12.1,7.3
		c-3.6,3.069-6.568,6.769-8.9,11.1c-2.334,4.334-3.9,8.969-4.699,13.9h80c-0.801-4.931-2.369-9.565-4.701-13.9
		c-2.334-4.332-5.299-8.031-8.899-11.1c-3.601-3.065-7.669-5.5-12.2-7.3C968.569,30.4,963.835,29.5,958.904,29.5z"/>
	<path style="fill:#FF7900;" d="M1030.703,119.5h-9.8v-100h9.8v87.2l90.2-90l6.8,6.8L1030.703,119.5z"/>
</g>
<g>
	<path style="fill:#FFD400;" d="M1172.491,119.5V1.5h10v118H1172.491z"/>
	<path style="fill:#FFD400;" d="M1194.488,11.5v-10h10v10H1194.488z M1194.488,119.5v-100h10v100H1194.488z"/>
	<path style="fill:#FFD400;" d="M1266.485,19.5c6.932,0,13.466,1.3,19.6,3.9c6.132,2.6,11.432,6.134,15.9,10.6
		c4.466,4.469,8,9.769,10.6,15.9c2.601,6.134,3.9,12.669,3.9,19.6c0,7.069-1.3,13.634-3.9,19.7c-2.6,6.068-6.134,11.334-10.6,15.8
		c-4.469,4.469-9.769,8-15.9,10.6c-6.134,2.601-12.668,3.9-19.6,3.9c-7.068,0-13.635-1.3-19.7-3.9
		c-6.068-2.6-11.334-6.131-15.8-10.6c-4.469-4.466-8-9.731-10.6-15.8c-2.601-6.066-3.9-12.631-3.9-19.7v-68h10v38
		c4.531-6,10.331-10.831,17.4-14.5C1250.951,21.334,1258.485,19.5,1266.485,19.5z M1266.485,109.5c5.466,0,10.631-1.065,15.5-3.2
		c4.865-2.131,9.1-5,12.7-8.6c3.6-3.601,6.466-7.832,8.6-12.7c2.132-4.866,3.2-10.031,3.2-15.5c0-5.466-1.068-10.631-3.2-15.5
		c-2.134-4.866-5-9.1-8.6-12.7c-3.601-3.6-7.835-6.465-12.7-8.6c-4.869-2.131-10.034-3.2-15.5-3.2c-5.469,0-10.635,1.069-15.5,3.2
		c-4.869,2.134-9.1,5-12.7,8.6c-3.6,3.6-6.469,7.834-8.6,12.7c-2.135,4.869-3.2,10.034-3.2,15.5c0,5.469,1.065,10.634,3.2,15.5
		c2.131,4.869,5,9.1,8.6,12.7c3.601,3.6,7.831,6.469,12.7,8.6C1255.851,108.435,1261.017,109.5,1266.485,109.5z"/>
	<path style="fill:#FFD400;" d="M1343.685,34.2c-3.469,3.134-5.199,7.234-5.199,12.3c0,5.069,1.73,9.334,5.199,12.8
		c3.466,3.469,7.731,5.2,12.801,5.2h22h23c3.73,0,7.23,0.7,10.5,2.1c3.266,1.4,6.131,3.334,8.6,5.8c2.465,2.469,4.4,5.334,5.8,8.6
		c1.399,3.269,2.101,6.769,2.101,10.5c0,3.734-0.701,7.3-2.101,10.7c-1.399,3.399-3.335,6.368-5.8,8.899
		c-2.469,2.535-5.334,4.569-8.6,6.101c-3.27,1.534-6.77,2.3-10.5,2.3h-73v-10h73c4.531,0,8.5-1.731,11.899-5.2
		c3.399-3.466,5.101-7.731,5.101-12.8c0-5.065-1.701-9.166-5.101-12.3c-3.399-3.131-7.368-4.7-11.899-4.7h-23h-22
		c-4,0-7.701-0.766-11.101-2.3c-3.399-1.531-6.368-3.566-8.899-6.1c-2.535-2.531-4.5-5.5-5.9-8.9c-1.4-3.4-2.1-6.966-2.1-10.7
		c0-3.731,0.699-7.231,2.1-10.5c1.4-3.266,3.365-6.131,5.9-8.6c2.531-2.465,5.5-4.4,8.899-5.8s7.101-2.1,11.101-2.1h72v10h-72
		C1351.416,29.5,1347.15,31.069,1343.685,34.2z"/>
</g>
<g>
	<path style="fill:#FFA800;" d="M57.655,239.055c6.398,0,12.049-1.699,16.95-5.1c4.898-3.398,8.498-7.949,10.8-13.65h8.25
		c-1.301,3.803-3.126,7.301-5.475,10.5c-2.351,3.202-5.1,5.951-8.25,8.25c-3.15,2.303-6.625,4.125-10.425,5.476
		c-3.802,1.351-7.751,2.024-11.85,2.024c-5.302,0-10.226-0.975-14.775-2.924c-4.552-1.951-8.501-4.6-11.85-7.951
		c-3.352-3.349-6-7.298-7.95-11.85c-1.95-4.549-2.925-9.473-2.925-14.775c0-5.197,0.975-10.099,2.925-14.699
		c1.95-4.599,4.599-8.574,7.95-11.926c3.349-3.349,7.298-6,11.85-7.949c4.549-1.95,9.473-2.926,14.775-2.926
		c5.198,0,10.099,0.976,14.7,2.926c4.598,1.949,8.573,4.601,11.925,7.949c3.349,3.352,6,7.327,7.95,11.926
		c1.95,4.601,2.925,9.502,2.925,14.699v3.75h-13.5h-54c0.6,3.803,1.774,7.301,3.525,10.5c1.749,3.202,3.975,5.951,6.675,8.25
		c2.7,2.303,5.723,4.125,9.075,5.476C50.279,238.381,53.854,239.055,57.655,239.055z M57.655,179.055
		c-3.802,0-7.376,0.676-10.725,2.025c-3.352,1.35-6.375,3.176-9.075,5.475c-2.7,2.303-4.927,5.077-6.675,8.326
		c-1.75,3.25-2.925,6.727-3.525,10.424h60c-0.6-3.697-1.776-7.174-3.525-10.424c-1.751-3.249-3.975-6.023-6.675-8.326
		c-2.7-2.299-5.751-4.125-9.15-5.475C64.904,179.73,61.354,179.055,57.655,179.055z"/>
	<path style="fill:#FFA800;" d="M141.655,171.555c5.1,0,9.9,1.002,14.4,3c4.5,2.002,8.475,4.726,11.925,8.176
		c3.45,3.449,6.173,7.425,8.175,11.925c1.999,4.5,3,9.3,3,14.399v37.5h-7.5v-37.5c0-4.099-0.802-7.973-2.4-11.625
		c-1.601-3.648-3.75-6.824-6.45-9.524c-2.7-2.7-5.875-4.849-9.525-6.45c-3.651-1.598-7.526-2.4-11.625-2.4
		c-4.102,0-7.976,0.803-11.625,2.4c-3.651,1.602-6.825,3.75-9.525,6.45c-2.7,2.7-4.852,5.876-6.45,9.524
		c-1.601,3.652-2.4,7.526-2.4,11.625v37.5h-7.5v-37.5c0-5.1,0.975-9.899,2.925-14.399c1.95-4.5,4.599-8.476,7.95-11.925
		c3.349-3.45,7.298-6.174,11.85-8.176C131.429,172.557,136.353,171.555,141.655,171.555z"/>
	<path style="fill:#FFA800;" d="M188.154,209.055c0-5.197,0.975-10.099,2.925-14.699c1.95-4.599,4.599-8.574,7.95-11.926
		c3.349-3.349,7.298-6,11.85-7.949c4.549-1.95,9.473-2.926,14.775-2.926c6,0,11.648,1.377,16.95,4.125
		c5.299,2.752,9.649,6.375,13.05,10.875v-28.5h7.5v51c0,5.303-0.975,10.227-2.925,14.775c-1.95,4.552-4.601,8.501-7.95,11.85
		c-3.352,3.352-7.327,6-11.925,7.951c-4.601,1.949-9.502,2.924-14.7,2.924c-5.302,0-10.226-0.975-14.775-2.924
		c-4.552-1.951-8.501-4.6-11.85-7.951c-3.352-3.349-6-7.298-7.95-11.85C189.129,219.281,188.154,214.357,188.154,209.055z
		 M195.654,209.055c0,4.102,0.799,7.977,2.4,11.625c1.599,3.652,3.75,6.826,6.45,9.525c2.7,2.7,5.874,4.852,9.525,6.45
		c3.649,1.601,7.523,2.399,11.625,2.399c4.099,0,7.974-0.799,11.625-2.399c3.649-1.599,6.825-3.75,9.525-6.45
		c2.7-2.699,4.849-5.873,6.45-9.525c1.598-3.648,2.4-7.523,2.4-11.625c0-4.099-0.802-7.973-2.4-11.625
		c-1.601-3.648-3.75-6.824-6.45-9.524c-2.7-2.7-5.875-4.849-9.525-6.45c-3.651-1.598-7.526-2.4-11.625-2.4
		c-4.102,0-7.976,0.803-11.625,2.4c-3.651,1.602-6.825,3.75-9.525,6.45c-2.7,2.7-4.852,5.876-6.45,9.524
		C196.454,201.082,195.654,204.956,195.654,209.055z"/>
	<path style="fill:#FFA800;" d="M309.654,239.055c6.398,0,12.049-1.699,16.95-5.1c4.898-3.398,8.498-7.949,10.8-13.65h8.25
		c-1.301,3.803-3.126,7.301-5.475,10.5c-2.351,3.202-5.1,5.951-8.25,8.25c-3.15,2.303-6.625,4.125-10.425,5.476
		c-3.802,1.351-7.751,2.024-11.85,2.024c-5.302,0-10.226-0.975-14.775-2.924c-4.552-1.951-8.501-4.6-11.85-7.951
		c-3.352-3.349-6-7.298-7.95-11.85c-1.95-4.549-2.925-9.473-2.925-14.775c0-5.197,0.975-10.099,2.925-14.699
		c1.95-4.599,4.599-8.574,7.95-11.926c3.349-3.349,7.298-6,11.85-7.949c4.549-1.95,9.473-2.926,14.775-2.926
		c5.198,0,10.099,0.976,14.7,2.926c4.598,1.949,8.573,4.601,11.925,7.949c3.349,3.352,6,7.327,7.95,11.926
		c1.95,4.601,2.925,9.502,2.925,14.699v3.75h-13.5h-54c0.6,3.803,1.774,7.301,3.525,10.5c1.749,3.202,3.975,5.951,6.675,8.25
		c2.7,2.303,5.723,4.125,9.075,5.476C302.278,238.381,305.852,239.055,309.654,239.055z M309.654,179.055
		c-3.802,0-7.376,0.676-10.725,2.025c-3.352,1.35-6.375,3.176-9.075,5.475c-2.7,2.303-4.927,5.077-6.675,8.326
		c-1.75,3.25-2.925,6.727-3.525,10.424h60c-0.6-3.697-1.776-7.174-3.525-10.424c-1.751-3.249-3.975-6.023-6.675-8.326
		c-2.7-2.299-5.751-4.125-9.15-5.475C316.903,179.73,313.352,179.055,309.654,179.055z"/>
	<path style="fill:#FFA800;" d="M363.503,246.555h-7.35v-75h7.35v65.4l67.65-67.5l5.1,5.1L363.503,246.555z"/>
	<path style="fill:#FFA800;" d="M439.251,205.305h75v7.5h-75V205.305z"/>
	<path style="fill:#FFA800;" d="M560.75,158.055c5.198,0,10.099,0.976,14.7,2.926c4.598,1.949,8.573,4.601,11.925,7.949
		c3.349,3.352,6,7.327,7.95,11.926c1.95,4.601,2.925,9.502,2.925,14.699h-7.5c0-4.099-0.802-7.973-2.4-11.625
		c-1.601-3.648-3.75-6.824-6.45-9.524c-2.7-2.7-5.875-4.849-9.525-6.45c-3.651-1.598-7.526-2.4-11.625-2.4
		c-4.102,0-7.976,0.803-11.625,2.4c-3.651,1.602-6.825,3.75-9.525,6.45c-2.7,2.7-4.852,5.876-6.45,9.524
		c-1.601,3.652-2.4,7.526-2.4,11.625v9.75H551v7.5h-20.25v33.75h-7.5v-51c0-5.197,0.975-10.099,2.925-14.699
		c1.95-4.599,4.599-8.574,7.95-11.926c3.349-3.349,7.298-6,11.85-7.949C550.525,159.03,555.449,158.055,560.75,158.055z"/>
	<path style="fill:#FFA800;" d="M642.649,171.555c5.1,0,9.9,0.976,14.4,2.926c4.5,1.949,8.475,4.601,11.925,7.949
		c3.45,3.352,6.173,7.327,8.175,11.926c1.999,4.601,3,9.502,3,14.699h-7.5c0-4.099-0.802-7.973-2.4-11.625
		c-1.601-3.648-3.75-6.824-6.45-9.524c-2.7-2.7-5.875-4.849-9.525-6.45c-3.651-1.598-7.526-2.4-11.625-2.4
		c-4.102,0-7.976,0.803-11.625,2.4c-3.651,1.602-6.825,3.75-9.525,6.45c-2.7,2.7-4.852,5.876-6.45,9.524
		c-1.601,3.652-2.4,7.526-2.4,11.625v37.5h-7.5v-37.5c0-5.197,0.975-10.099,2.925-14.699c1.95-4.599,4.599-8.574,7.95-11.926
		c3.349-3.349,7.298-6,11.85-7.949C632.423,172.53,637.347,171.555,642.649,171.555z"/>
	<path style="fill:#FFA800;" d="M726.648,171.555c5.198,0,10.099,0.976,14.7,2.926c4.598,1.949,8.573,4.601,11.925,7.949
		c3.349,3.352,6,7.327,7.95,11.926c1.95,4.601,2.925,9.502,2.925,14.699v37.5h-7.5v-15c-3.401,4.5-7.751,8.127-13.05,10.875
		c-5.302,2.752-10.95,4.125-16.95,4.125c-5.302,0-10.226-0.975-14.775-2.924c-4.552-1.951-8.501-4.6-11.85-7.951
		c-3.352-3.349-6-7.298-7.95-11.85c-1.95-4.549-2.925-9.473-2.925-14.775c0-5.197,0.975-10.099,2.925-14.699
		c1.95-4.599,4.599-8.574,7.95-11.926c3.349-3.349,7.298-6,11.85-7.949C716.423,172.53,721.347,171.555,726.648,171.555z
		 M726.648,239.055c4.099,0,7.974-0.799,11.625-2.399c3.649-1.599,6.825-3.75,9.525-6.45c2.7-2.699,4.849-5.873,6.45-9.525
		c1.598-3.648,2.4-7.523,2.4-11.625c0-4.099-0.802-7.973-2.4-11.625c-1.601-3.648-3.75-6.824-6.45-9.524
		c-2.7-2.7-5.875-4.849-9.525-6.45c-3.651-1.598-7.526-2.4-11.625-2.4c-4.102,0-7.976,0.803-11.625,2.4
		c-3.651,1.602-6.825,3.75-9.525,6.45c-2.7,2.7-4.852,5.876-6.45,9.524c-1.601,3.652-2.4,7.526-2.4,11.625
		c0,4.102,0.799,7.977,2.4,11.625c1.599,3.652,3.75,6.826,6.45,9.525c2.7,2.7,5.874,4.852,9.525,6.45
		C718.673,238.256,722.547,239.055,726.648,239.055z"/>
	<path style="fill:#FFA800;" d="M878.148,171.555c5.198,0,10.099,0.976,14.7,2.926c4.598,1.949,8.573,4.601,11.925,7.949
		c3.349,3.352,6,7.327,7.95,11.926c1.95,4.601,2.925,9.502,2.925,14.699v37.5h-7.5v-37.5c0-4.099-0.802-7.973-2.4-11.625
		c-1.601-3.648-3.75-6.824-6.45-9.524c-2.7-2.7-5.875-4.849-9.525-6.45c-3.651-1.598-7.526-2.4-11.625-2.4
		c-4.102,0-7.976,0.803-11.625,2.4c-3.651,1.602-6.825,3.75-9.525,6.45c-2.7,2.7-4.852,5.876-6.45,9.524
		c-1.601,3.652-2.4,7.526-2.4,11.625v37.5h-7.5v-37.5c0-4.099-0.802-7.973-2.4-11.625c-1.601-3.648-3.75-6.824-6.45-9.524
		c-2.7-2.7-5.875-4.849-9.525-6.45c-3.651-1.598-7.526-2.4-11.625-2.4c-4.102,0-7.976,0.803-11.625,2.4
		c-3.651,1.602-6.825,3.75-9.525,6.45c-2.7,2.7-4.852,5.876-6.45,9.524c-1.601,3.652-2.4,7.526-2.4,11.625v37.5h-7.5v-37.5
		c0-5.197,0.999-10.099,3-14.699c1.999-4.599,4.725-8.574,8.175-11.926c3.45-3.349,7.425-6,11.925-7.949
		c4.5-1.95,9.3-2.926,14.4-2.926c3.698,0,7.275,0.525,10.725,1.576c3.45,1.049,6.624,2.525,9.525,4.424
		c2.899,1.901,5.499,4.125,7.8,6.676c2.299,2.55,4.2,5.324,5.7,8.324c1.5-3,3.424-5.774,5.775-8.324c2.349-2.551,5-4.774,7.95-6.676
		c2.948-1.898,6.124-3.375,9.525-4.424C871.046,172.08,874.548,171.555,878.148,171.555z"/>
	<path style="fill:#FFA800;" d="M962.147,239.055c6.398,0,12.049-1.699,16.949-5.1c4.898-3.398,8.498-7.949,10.801-13.65h8.25
		c-1.301,3.803-3.127,7.301-5.475,10.5c-2.352,3.202-5.102,5.951-8.25,8.25c-3.15,2.303-6.627,4.125-10.426,5.476
		c-3.801,1.351-7.75,2.024-11.85,2.024c-5.303,0-10.227-0.975-14.775-2.924c-4.552-1.951-8.501-4.6-11.85-7.951
		c-3.352-3.349-6-7.298-7.95-11.85c-1.95-4.549-2.925-9.473-2.925-14.775c0-5.197,0.975-10.099,2.925-14.699
		c1.95-4.599,4.599-8.574,7.95-11.926c3.349-3.349,7.298-6,11.85-7.949c4.549-1.95,9.473-2.926,14.775-2.926
		c5.197,0,10.1,0.976,14.699,2.926c4.6,1.949,8.574,4.601,11.926,7.949c3.35,3.352,6,7.327,7.949,11.926
		c1.951,4.601,2.926,9.502,2.926,14.699v3.75h-13.5h-54c0.6,3.803,1.774,7.301,3.525,10.5c1.749,3.202,3.975,5.951,6.675,8.25
		c2.701,2.303,5.724,4.125,9.076,5.476C954.771,238.381,958.345,239.055,962.147,239.055z M962.147,179.055
		c-3.803,0-7.377,0.676-10.725,2.025c-3.352,1.35-6.375,3.176-9.076,5.475c-2.7,2.303-4.927,5.077-6.675,8.326
		c-1.75,3.25-2.925,6.727-3.525,10.424h60c-0.6-3.697-1.777-7.174-3.525-10.424c-1.75-3.249-3.975-6.023-6.676-8.326
		c-2.699-2.299-5.75-4.125-9.148-5.475C969.396,179.73,965.845,179.055,962.147,179.055z"/>
	<path style="fill:#FFA800;" d="M1046.146,246.555c-5.302,0-10.226-0.975-14.775-2.924c-4.551-1.951-8.5-4.6-11.85-7.951
		c-3.352-3.349-6-7.298-7.95-11.85c-1.95-4.549-2.925-9.473-2.925-14.775v-37.5h7.5v37.5c0,4.102,0.799,7.977,2.4,11.625
		c1.598,3.652,3.75,6.826,6.449,9.525c2.7,2.7,5.874,4.852,9.525,6.45c3.649,1.601,7.523,2.399,11.625,2.399
		c4.1,0,7.974-0.799,11.625-2.399c3.649-1.599,6.825-3.75,9.525-6.45c2.699-2.699,4.849-5.873,6.449-9.525
		c1.599-3.648,2.4-7.523,2.4-11.625v-37.5h7.5v37.5c0,4.102,0.799,7.977,2.4,11.625c1.598,3.652,3.75,6.826,6.449,9.525
		c2.7,2.7,5.874,4.852,9.525,6.45c3.649,1.601,7.523,2.399,11.625,2.399c4.1,0,7.974-0.799,11.625-2.399
		c3.649-1.599,6.825-3.75,9.525-6.45c2.699-2.699,4.849-5.873,6.449-9.525c1.599-3.648,2.4-7.523,2.4-11.625v-37.5h7.5v37.5
		c0,5.303-1.001,10.227-3,14.775c-2.002,4.552-4.725,8.501-8.175,11.85c-3.45,3.352-7.425,6-11.925,7.951
		c-4.5,1.949-9.301,2.924-14.4,2.924c-3.802,0-7.401-0.524-10.8-1.574c-3.401-1.051-6.551-2.524-9.45-4.426
		c-2.901-1.898-5.501-4.125-7.8-6.674c-2.302-2.551-4.2-5.326-5.7-8.326c-1.5,3-3.427,5.775-5.775,8.326
		c-2.351,2.549-5.001,4.775-7.949,6.674c-2.951,1.901-6.127,3.375-9.525,4.426C1053.246,246.03,1049.746,246.555,1046.146,246.555z"
		/>
	<path style="fill:#FFA800;" d="M1197.646,171.555c5.1,0,9.9,0.976,14.4,2.926c4.5,1.949,8.475,4.601,11.925,7.949
		c3.45,3.352,6.173,7.327,8.175,11.926c1.999,4.601,3,9.502,3,14.699c0,5.303-1.001,10.227-3,14.775
		c-2.002,4.552-4.725,8.501-8.175,11.85c-3.45,3.352-7.425,6-11.925,7.951c-4.5,1.949-9.301,2.924-14.4,2.924
		c-5.302,0-10.226-0.975-14.775-2.924c-4.551-1.951-8.5-4.6-11.85-7.951c-3.352-3.349-6-7.298-7.95-11.85
		c-1.95-4.549-2.925-9.473-2.925-14.775c0-5.197,0.975-10.099,2.925-14.699c1.95-4.599,4.599-8.574,7.95-11.926
		c3.35-3.349,7.299-6,11.85-7.949C1187.42,172.53,1192.344,171.555,1197.646,171.555z M1197.646,239.055
		c4.1,0,7.974-0.799,11.625-2.399c3.649-1.599,6.825-3.75,9.525-6.45c2.699-2.699,4.849-5.873,6.449-9.525
		c1.599-3.648,2.4-7.523,2.4-11.625c0-4.099-0.802-7.973-2.4-11.625c-1.601-3.648-3.75-6.824-6.449-9.524
		c-2.7-2.7-5.876-4.849-9.525-6.45c-3.651-1.598-7.525-2.4-11.625-2.4c-4.102,0-7.976,0.803-11.625,2.4
		c-3.651,1.602-6.825,3.75-9.525,6.45c-2.699,2.7-4.852,5.876-6.449,9.524c-1.602,3.652-2.4,7.526-2.4,11.625
		c0,4.102,0.799,7.977,2.4,11.625c1.598,3.652,3.75,6.826,6.449,9.525c2.7,2.7,5.874,4.852,9.525,6.45
		C1189.67,238.256,1193.544,239.055,1197.646,239.055z"/>
	<path style="fill:#FFA800;" d="M1281.646,171.555c5.1,0,9.9,0.976,14.4,2.926c4.5,1.949,8.475,4.601,11.925,7.949
		c3.45,3.352,6.173,7.327,8.175,11.926c1.999,4.601,3,9.502,3,14.699h-7.5c0-4.099-0.802-7.973-2.4-11.625
		c-1.601-3.648-3.75-6.824-6.449-9.524c-2.7-2.7-5.876-4.849-9.525-6.45c-3.651-1.598-7.525-2.4-11.625-2.4
		c-4.102,0-7.976,0.803-11.625,2.4c-3.651,1.602-6.825,3.75-9.525,6.45c-2.699,2.7-4.852,5.876-6.449,9.524
		c-1.602,3.652-2.4,7.526-2.4,11.625v37.5h-7.5v-37.5c0-5.197,0.975-10.099,2.925-14.699c1.95-4.599,4.599-8.574,7.95-11.926
		c3.35-3.349,7.299-6,11.85-7.949C1271.42,172.53,1276.344,171.555,1281.646,171.555z"/>
	<path style="fill:#FFA800;" d="M1367.296,212.805c4.199,2.101,7.849,4.852,10.949,8.25c3.099,3.401,5.524,7.275,7.275,11.625
		c1.748,4.351,2.625,8.977,2.625,13.875h-7.5c0-4.099-0.802-7.973-2.4-11.625c-1.601-3.648-3.75-6.824-6.449-9.524
		c-2.7-2.7-5.876-4.849-9.525-6.45c-3.651-1.598-7.525-2.4-11.625-2.4h-3.75l-11.25,10.5v19.5h-7.5v-88.5h7.5v58.5l45.75-45
		l5.25,5.25l-33,32.25C1358.544,209.456,1363.096,210.705,1367.296,212.805z"/>
</g>
</svg>
