<?xml version="1.0" encoding="iso-8859-1"?>
<!-- Generator: Adobe Illustrator 16.0.0, SVG Export Plug-In . SVG Version: 6.00 Build 0)  -->
<!DOCTYPE svg PUBLIC "-//W3C//DTD SVG 1.1//EN" "http://www.w3.org/Graphics/SVG/1.1/DTD/svg11.dtd">
<svg version="1.1" id="Layer_1" xmlns="http://www.w3.org/2000/svg" xmlns:xlink="http://www.w3.org/1999/xlink" x="0px" y="0px"
	 width="500px" height="500px" viewBox="0 0 500 500" style="enable-background:new 0 0 500 500;" xml:space="preserve">
<g>
	<path style="fill:#FF7900;" d="M299.991,399.976c-110.438,0-199.966-89.528-199.966-199.967
		c0-102.455,77.053-186.913,176.372-198.588c-8.675-0.91-17.481-1.378-26.397-1.378C111.953,0.042,0.042,111.953,0.042,250
		c0,138.048,111.911,249.958,249.958,249.958c138.049,0,249.959-111.91,249.959-249.958c0-8.915-0.469-17.722-1.379-26.396
		C486.904,322.924,402.447,399.976,299.991,399.976z"/>
	<path style="fill:#FFA800;" d="M448.268,175.414h40.304C470.52,117.622,431.547,66.19,374.98,33.53
		C255.427-35.494,102.554,5.468,33.53,125.021S5.468,397.447,125.021,466.471c7.721,4.458,15.582,8.457,23.549,12.004
		C68.395,418.706,43.894,307.036,95.122,218.307c55.219-95.643,177.517-128.412,273.16-73.192
		c36.033,20.805,63.144,51.131,79.985,85.966V175.414z"/>
	<g>
		<path style="fill:#FFD400;" d="M47.066,395.966c21.141,29.466,47.8,53.14,77.717,70.415
			C94.169,448.627,67.67,424.561,47.066,395.966z"/>
		<path style="fill:#FFD400;" d="M354.887,131.719c53.565,92.776,24.334,210.634-64.766,268.016c3.271,0.159,6.561,0.24,9.87,0.24
			c102.456,0,186.913-77.052,198.589-176.371c0.91,8.674,1.379,17.481,1.379,26.396c0,8.485-0.424,16.87-1.249,25.136
			c5.137-50.42-4.962-102.87-32.238-150.115C397.446,5.468,244.574-35.494,125.021,33.53c-7.721,4.458-15.113,9.266-22.171,14.392
			C194.7,8.374,303.659,42.99,354.887,131.719z"/>
		<path style="fill:#FFD400;" d="M250,499.959c-8.416,0-16.733-0.415-24.935-1.229c29.652,2.998,60.003,0.725,89.582-7.213
			C294.026,497.023,272.355,499.959,250,499.959z"/>
		<path style="fill:#FFD400;" d="M396.127,452.819c29.459-21.172,53.118-47.862,70.373-77.809
			C448.768,405.654,424.715,432.185,396.127,452.819z"/>
	</g>
</g>
<g>
	<path style="fill:#FFBA3F;stroke:#FFFFFF;stroke-width:8;stroke-miterlimit:10;" d="M38.909,347.315v-197.65h16.75v197.65H38.909z"
		/>
	<path style="fill:#FFBA3F;stroke:#FFFFFF;stroke-width:8;stroke-miterlimit:10;" d="M75.754,166.416v-16.75h16.75v16.75H75.754z
		 M75.754,347.315v-167.5h16.75v167.5H75.754z"/>
	<path style="fill:#FFBA3F;stroke:#FFFFFF;stroke-width:8;stroke-miterlimit:10;" d="M196.35,179.815
		c11.61,0,22.555,2.178,32.83,6.533c10.27,4.355,19.147,10.275,26.633,17.755c7.48,7.485,13.4,16.363,17.756,26.632
		c4.354,10.275,6.531,21.22,6.531,32.83c0,11.841-2.178,22.837-6.531,32.997c-4.355,10.166-10.275,18.985-17.756,26.466
		c-7.485,7.484-16.363,13.399-26.633,17.755c-10.275,4.354-21.22,6.532-32.83,6.532c-11.84,0-22.837-2.178-32.998-6.532
		c-10.165-4.355-18.985-10.271-26.465-17.755c-7.485-7.48-13.4-16.3-17.755-26.466c-4.355-10.16-6.533-21.156-6.533-32.997v-113.9
		h16.75v63.65c7.59-10.05,17.305-18.143,29.145-24.288C170.33,182.888,182.95,179.815,196.35,179.815z M196.35,330.565
		c9.155,0,17.807-1.785,25.962-5.36c8.15-3.569,15.243-8.375,21.272-14.404c6.03-6.03,10.83-13.117,14.406-21.273
		c3.57-8.149,5.359-16.802,5.359-25.962c0-9.155-1.789-17.807-5.359-25.962c-3.576-8.15-8.375-15.243-14.406-21.272
		c-6.03-6.03-13.123-10.83-21.272-14.405c-8.155-3.57-16.808-5.36-25.962-5.36c-9.16,0-17.813,1.79-25.962,5.36
		c-8.155,3.575-15.243,8.375-21.272,14.405c-6.03,6.03-10.835,13.123-14.405,21.272c-3.575,8.155-5.36,16.807-5.36,25.962
		c0,9.16,1.785,17.813,5.36,25.962c3.57,8.156,8.375,15.243,14.405,21.273c6.03,6.029,13.117,10.835,21.272,14.404
		C178.537,328.78,187.189,330.565,196.35,330.565z"/>
	<path style="fill:#FFBA3F;stroke:#FFFFFF;stroke-width:8;stroke-miterlimit:10;" d="M325.658,204.438
		c-5.811,5.25-8.709,12.118-8.709,20.603c0,8.49,2.898,15.635,8.709,21.44c5.805,5.811,12.951,8.71,21.441,8.71h36.85h38.525
		c6.248,0,12.111,1.173,17.586,3.518c5.471,2.345,10.271,5.585,14.406,9.715c4.129,4.136,7.369,8.935,9.715,14.405
		c2.344,5.475,3.518,11.338,3.518,17.588c0,6.255-1.174,12.227-3.518,17.922c-2.346,5.695-5.586,10.668-9.715,14.907
		c-4.135,4.245-8.936,7.653-14.406,10.218c-5.475,2.57-11.338,3.853-17.586,3.853H300.199v-16.75h122.275
		c7.59,0,14.236-2.899,19.932-8.71c5.695-5.805,8.543-12.95,8.543-21.439c0-8.485-2.848-15.354-8.543-20.604
		c-5.695-5.244-12.342-7.872-19.932-7.872h-38.525H347.1c-6.701,0-12.898-1.282-18.594-3.853
		c-5.695-2.564-10.668-5.973-14.906-10.217c-4.246-4.24-7.539-9.213-9.883-14.908c-2.346-5.695-3.518-11.667-3.518-17.922
		c0-6.25,1.172-12.112,3.518-17.587c2.344-5.47,5.637-10.27,9.883-14.405c4.238-4.13,9.211-7.37,14.906-9.715
		c5.695-2.345,11.893-3.518,18.594-3.518h120.6v16.75H347.1C338.609,196.565,331.463,199.193,325.658,204.438z"/>
</g>
</svg>
