<?xml version="1.0" encoding="iso-8859-1"?>
<!-- Generator: Adobe Illustrator 16.0.0, SVG Export Plug-In . SVG Version: 6.00 Build 0)  -->
<!DOCTYPE svg PUBLIC "-//W3C//DTD SVG 1.1//EN" "http://www.w3.org/Graphics/SVG/1.1/DTD/svg11.dtd">
<svg version="1.1" id="Layer_1" xmlns="http://www.w3.org/2000/svg" xmlns:xlink="http://www.w3.org/1999/xlink" x="0px" y="0px"
	 width="500px" height="500px" viewBox="0 0 500 500" style="enable-background:new 0 0 500 500;" xml:space="preserve">
<path style="fill:#55ECEC;" d="M500,400c0,55.229-44.771,100-100,100H100C44.771,500,0,455.229,0,400V100C0,44.771,44.771,0,100,0
	h300c55.229,0,100,44.771,100,100V400z"/>
<path style="fill:#3B3B3B;" d="M243.259,0H100C44.771,0,0,44.771,0,100v64.486L243.259,0z"/>
<path style="fill:#3B3B3B;" d="M500,335.52L254.927,500H400c55.229,0,100-44.771,100-100V335.52z"/>
<image style="display:none;overflow:visible;" width="1024" height="1024" xlink:href="U:\(02) Media\(02) Image\(14) Project Logos\XPS\Version 2\XPS_Logo_1024.png"  transform="matrix(0.4883 0 0 0.4883 0 0)">
</image>
<linearGradient id="SVGID_1_" gradientUnits="userSpaceOnUse" x1="243.4375" y1="82.7813" x2="499.9512" y2="82.7813">
	<stop  offset="0" style="stop-color:#30AFAF"/>
	<stop  offset="1" style="stop-color:#46D3D3"/>
</linearGradient>
<path style="fill:url(#SVGID_1_);" d="M494.77,68H342V26.313l-98.563,56.469L342,139.25V97h157.951
	C499.653,86.885,497.856,77.146,494.77,68z"/>
<linearGradient id="SVGID_2_" gradientUnits="userSpaceOnUse" x1="0" y1="405.7813" x2="256.5625" y2="405.7813">
	<stop  offset="0" style="stop-color:#30AFAF"/>
	<stop  offset="1" style="stop-color:#46D3D3"/>
</linearGradient>
<path style="fill:url(#SVGID_2_);" d="M158,421v41.25l98.563-56.469L158,349.313V392H0v8c0,7.204,0.769,14.228,2.216,21H158z"/>
<g>
	<path style="fill:#30AEAE;" d="M184.615,320.541c0.729,1.135,1.134,2.066,1.216,2.795c0.08,0.73-0.164,1.318-0.729,1.764
		c-0.568,0.443-1.44,0.748-2.614,0.912c-1.176,0.16-2.695,0.242-4.559,0.242c-1.866,0-3.325-0.061-4.377-0.182
		c-1.054-0.121-1.905-0.305-2.553-0.547c-0.65-0.244-1.155-0.566-1.52-0.973c-0.365-0.404-0.711-0.891-1.034-1.459l-37.934-65.654
		l-38.663,65.654c-0.407,0.568-0.811,1.055-1.216,1.459c-0.407,0.406-0.933,0.729-1.581,0.973c-0.65,0.242-1.501,0.426-2.553,0.547
		c-1.054,0.121-2.432,0.182-4.134,0.182c-1.866,0-3.364-0.082-4.499-0.242c-1.136-0.164-1.945-0.469-2.432-0.912
		c-0.486-0.445-0.689-1.033-0.608-1.764c0.08-0.729,0.486-1.66,1.216-2.795l45.715-74.409l-44.134-72.95
		c-0.729-1.134-1.155-2.067-1.276-2.796c-0.122-0.729,0.061-1.316,0.547-1.763c0.486-0.445,1.276-0.749,2.371-0.912
		c1.094-0.162,2.572-0.243,4.438-0.243c1.782,0,3.222,0.061,4.316,0.183c1.094,0.121,1.985,0.304,2.675,0.547
		c0.688,0.243,1.216,0.568,1.58,0.973c0.365,0.407,0.749,0.893,1.155,1.459l37.326,62.493l37.204-62.493
		c0.323-0.566,0.648-1.052,0.973-1.459c0.323-0.405,0.77-0.729,1.337-0.973c0.566-0.243,1.337-0.426,2.31-0.547
		c0.973-0.122,2.31-0.183,4.012-0.183s3.14,0.082,4.316,0.243c1.174,0.164,2.046,0.467,2.614,0.912
		c0.566,0.446,0.83,1.033,0.791,1.763c-0.042,0.729-0.386,1.662-1.034,2.796l-44.134,72.341L184.615,320.541z"/>
	<path style="fill:#3B3B3B;" d="M306.318,213.305c0,7.294-1.236,13.982-3.707,20.061c-2.475,6.079-6.02,11.308-10.639,15.685
		c-4.621,4.377-10.256,7.782-16.9,10.213c-6.646,2.432-14.672,3.646-24.073,3.646h-20.426v60.184c0,0.486-0.122,0.932-0.365,1.338
		s-0.649,0.729-1.216,0.973c-0.568,0.242-1.318,0.443-2.249,0.607c-0.933,0.16-2.128,0.242-3.587,0.242
		c-1.379,0-2.554-0.082-3.526-0.242c-0.973-0.164-1.743-0.365-2.31-0.607c-0.568-0.244-0.973-0.566-1.216-0.973
		s-0.365-0.852-0.365-1.338V175.857c0-2.918,0.77-4.924,2.311-6.018c1.539-1.095,3.039-1.642,4.498-1.642h31.977
		c3.16,0,6.24,0.143,9.24,0.426c2.998,0.285,6.504,0.893,10.516,1.823c4.014,0.933,8.105,2.675,12.281,5.229
		c4.174,2.553,7.721,5.674,10.639,9.361c2.918,3.689,5.166,7.903,6.746,12.645C305.529,202.423,306.318,207.632,306.318,213.305z
		 M290.635,214.642c0-6.809-1.338-12.584-4.012-17.325c-2.676-4.742-5.939-8.268-9.787-10.578c-3.852-2.31-7.863-3.769-12.037-4.377
		c-4.176-0.607-8.127-0.912-11.854-0.912h-22.372v68.329h21.399c6.887,0,12.645-0.869,17.264-2.613
		c4.621-1.742,8.512-4.153,11.672-7.234c3.162-3.079,5.572-6.788,7.234-11.125C289.803,224.471,290.635,219.749,290.635,214.642z"/>
	<path style="fill:#3B3B3B;" d="M421.822,282.971c0,6.973-1.258,13.213-3.77,18.725c-2.514,5.512-6.039,10.193-10.578,14.043
		s-9.93,6.789-16.17,8.814c-6.242,2.025-13.051,3.039-20.426,3.039c-5.027,0-9.768-0.467-14.225-1.398
		c-4.459-0.93-8.432-2.045-11.916-3.344c-3.486-1.295-6.424-2.613-8.814-3.951s-4.033-2.471-4.924-3.404
		c-0.893-0.93-1.541-2.025-1.945-3.283c-0.406-1.256-0.607-2.814-0.607-4.68c0-1.377,0.08-2.512,0.242-3.404
		c0.162-0.891,0.385-1.621,0.67-2.189c0.283-0.566,0.646-0.951,1.094-1.154c0.443-0.201,0.912-0.305,1.398-0.305
		c1.133,0,2.734,0.711,4.803,2.129c2.066,1.418,4.74,2.959,8.023,4.619c3.283,1.662,7.213,3.203,11.793,4.621
		c4.578,1.418,9.91,2.127,15.988,2.127c4.943,0,9.484-0.668,13.617-2.006c4.135-1.338,7.699-3.262,10.699-5.775
		c2.998-2.512,5.33-5.611,6.992-9.301c1.66-3.688,2.492-7.883,2.492-12.584c0-4.863-1.055-9.037-3.162-12.523
		c-2.107-3.484-4.883-6.545-8.328-9.18c-3.445-2.633-7.355-5.023-11.732-7.172c-4.377-2.146-8.857-4.297-13.436-6.445
		c-4.58-2.146-9.057-4.478-13.434-6.991c-4.377-2.511-8.289-5.45-11.732-8.814c-3.447-3.362-6.223-7.313-8.328-11.854
		c-2.109-4.539-3.162-9.928-3.162-16.171c0-6.079,1.094-11.529,3.283-16.353c2.188-4.822,5.268-8.916,9.24-12.28
		c3.971-3.362,8.732-5.937,14.285-7.72c5.551-1.782,11.65-2.675,18.299-2.675c3.322,0,6.688,0.325,10.092,0.973
		c3.404,0.65,6.625,1.48,9.664,2.493c3.041,1.014,5.756,2.148,8.146,3.404c2.391,1.257,3.971,2.27,4.742,3.039
		c0.77,0.771,1.256,1.338,1.459,1.702c0.201,0.365,0.383,0.833,0.547,1.398c0.162,0.568,0.283,1.237,0.365,2.006
		c0.08,0.771,0.121,1.723,0.121,2.857c0,1.054-0.061,2.006-0.182,2.857c-0.123,0.851-0.305,1.58-0.547,2.188
		c-0.244,0.607-0.549,1.075-0.912,1.398c-0.365,0.325-0.791,0.486-1.277,0.486c-0.893,0-2.25-0.587-4.072-1.763
		c-1.824-1.174-4.115-2.492-6.869-3.951c-2.758-1.459-6.041-2.775-9.85-3.951c-3.811-1.174-8.145-1.763-13.008-1.763
		c-4.785,0-8.959,0.65-12.523,1.945c-3.568,1.297-6.525,3.061-8.875,5.289c-2.354,2.23-4.115,4.845-5.289,7.842
		c-1.176,3-1.764,6.161-1.764,9.483c0,4.863,1.053,9.039,3.162,12.523c2.105,3.486,4.902,6.565,8.389,9.24
		c3.484,2.675,7.436,5.088,11.854,7.234c4.418,2.148,8.916,4.297,13.496,6.443c4.578,2.148,9.076,4.459,13.496,6.931
		c4.416,2.474,8.367,5.392,11.854,8.753c3.484,3.365,6.281,7.295,8.389,11.793C420.768,271.482,421.822,276.813,421.822,282.971z"/>
</g>
</svg>
