<?xml version="1.0" encoding="iso-8859-1"?>
<!-- Generator: Adobe Illustrator 16.0.0, SVG Export Plug-In . SVG Version: 6.00 Build 0)  -->
<!DOCTYPE svg PUBLIC "-//W3C//DTD SVG 1.1//EN" "http://www.w3.org/Graphics/SVG/1.1/DTD/svg11.dtd">
<svg version="1.1" id="Layer_1" xmlns="http://www.w3.org/2000/svg" xmlns:xlink="http://www.w3.org/1999/xlink" x="0px" y="0px"
	 width="500px" height="500px" viewBox="0 0 500 500" style="enable-background:new 0 0 500 500;" xml:space="preserve">
<path style="fill:#4F5D95;" d="M115.001,0.273C115,0.273,115,0.273,115.001,0.273L115,0H0v11.612v477.049V500h115l0,0
	c0,0,0,0,0.001,0c212.631,0,385.001-111.867,385.001-249.863S327.632,0.273,115.001,0.273z"/>
<path style="fill:#FFFFFF;" d="M102.001,0.273C102,0.273,102,0.273,102.001,0.273L102,0H0v500h102c0,0,0,0,0.001,0
	c212.631,0,385.001-111.867,385.001-249.863S314.632,0.273,102.001,0.273z"/>
<path style="fill:#4F5D95;" d="M73.001,0.273C73,0.273,73,0.273,73.001,0.273L73,0H0v500h73c0,0,0,0,0.001,0
	c212.631,0,385.001-111.867,385.001-249.863S285.632,0.273,73.001,0.273z"/>
<g>
	<path style="fill:#FFFFFF;" d="M256.198,459.712H15.447l85.781-403.313h91.688l-69.75,328.5h148.782L256.198,459.712z"/>
</g>
<g>
	<path style="fill:#7481BC;" d="M275.531,447.656H34.78l85.781-403.313h91.688l-69.75,328.5h148.782L275.531,447.656z"/>
</g>
<g>
	<path style="fill:#FFFFFF;" d="M292.001,434.646H51.25l85.781-403.313h91.688l-69.75,328.5h148.782L292.001,434.646z"/>
</g>
</svg>
