<?xml version="1.0" encoding="iso-8859-1"?>
<!-- Generator: Adobe Illustrator 16.0.0, SVG Export Plug-In . SVG Version: 6.00 Build 0)  -->
<!DOCTYPE svg PUBLIC "-//W3C//DTD SVG 1.1//EN" "http://www.w3.org/Graphics/SVG/1.1/DTD/svg11.dtd">
<svg version="1.1" id="Layer_1" xmlns="http://www.w3.org/2000/svg" xmlns:xlink="http://www.w3.org/1999/xlink" x="0px" y="0px"
	 width="1920px" height="300px" viewBox="0 0 1920 300" style="enable-background:new 0 0 1920 300;" xml:space="preserve">
<rect x="-1" y="1" style="fill:#FFFFFF;" width="1920" height="300"/>
<g>
	<path d="M389.391,231.883c0,33.581-27.195,61.377-60.741,61.377H164.044c-33.545,0-60.601-27.796-60.601-61.377V67.714
		c0-33.582,27.056-60.402,60.601-60.402H328.65c33.546,0,60.741,26.821,60.741,60.402V231.883z"/>
	<rect x="240.698" y="6.74" style="fill:#999999;" width="11.438" height="285.947"/>
	<rect x="114.309" y="158.293" style="fill:#FFFFFF;" width="11.438" height="100.081"/>
	<rect x="367.087" y="74.224" style="fill:#FFFFFF;" width="11.438" height="100.082"/>
	<rect x="220.682" y="105.106" style="fill:#FFFFFF;" width="11.438" height="11.438"/>
</g>
<g>
	<path d="M435.18,150V61.188h76.125h76.125v12.688v12.688h12.688h12.688v38.063v38.063h-12.688H587.43v12.688v12.688h-50.75h-50.75
		v25.375v25.375h-25.375H435.18V150z M562.055,124.625V86.563h-38.063H485.93v38.063v38.063h38.063h38.063V124.625z"/>
	<path d="M663.555,73.875V61.188h63.438h63.438v12.688v12.688h12.688h12.688V150v63.438h-12.688H790.43v12.688v12.688h-63.438
		h-63.438v-12.688v-12.688h-12.688H638.18V150V86.563h12.688h12.688V73.875z M765.055,150V86.563h-38.063H688.93V150v63.438h38.063
		h38.063V150z"/>
	<path d="M841.18,150V61.188h25.375h25.375v12.688v12.688h12.688h12.688V99.25v12.688h12.688h12.688v12.688v12.688h12.688h12.687
		V99.25V61.188h25.376h25.375V150v88.813h-25.375h-25.376v-12.688v-12.688h-12.687H942.68V200.75v-12.688h-12.688h-12.688v-12.688
		v-12.688h-12.688H891.93v38.063v38.063h-25.375H841.18V150z"/>
	<path d="M1094.931,73.875V61.188h63.438h63.438v12.688v12.688h-50.75h-50.75V99.25v12.688h-12.688h-12.688V150v38.063h12.688
		h12.688v12.688v12.688h25.375h25.375v-25.375v-25.375h-12.688h-12.688V150v-12.688h38.063h38.063v50.75v50.75h-63.438h-63.438
		v-12.688v-12.688h-12.688h-12.688V200.75v-12.688h-12.688h-12.688V150v-38.063h12.688h12.688V99.25V86.563h12.688h12.688V73.875z"
		/>
	<path d="M1272.556,150v-12.688h76.125h76.125V150v12.688h-76.125h-76.125V150z"/>
	<path d="M1450.181,150V61.188h76.125h76.125v12.688v12.688h12.688h12.688v38.063v38.063h-25.375h-25.375v12.688v12.688h12.688
		h12.688v12.688v12.688h12.688h12.688v12.688v12.688h-38.063h-38.063v-12.688v-12.688h-12.688h-12.688V200.75v-12.688h-12.688
		h-12.688v25.375v25.375h-25.375h-25.375V150z M1577.056,111.938V86.563h-38.063h-38.063v38.063v38.063h25.375h25.375V150v-12.688
		h12.688h12.688V111.938z"/>
	<path d="M1678.556,150V61.188h25.375h25.375v76.125v76.125h50.75h50.75v12.688v12.688h-76.125h-76.125V150z"/>
</g>
</svg>
