<?xml version="1.0" encoding="iso-8859-1"?>
<!-- Generator: Adobe Illustrator 16.0.0, SVG Export Plug-In . SVG Version: 6.00 Build 0)  -->
<!DOCTYPE svg PUBLIC "-//W3C//DTD SVG 1.1//EN" "http://www.w3.org/Graphics/SVG/1.1/DTD/svg11.dtd">
<svg version="1.1" id="Layer_1" xmlns="http://www.w3.org/2000/svg" xmlns:xlink="http://www.w3.org/1999/xlink" x="0px" y="0px"
	 width="1920px" height="1080px" viewBox="0 0 1920 1080" style="enable-background:new 0 0 1920 1080;" xml:space="preserve">
<rect style="fill:#FFFFFF;" width="1920" height="1080"/>
<g>
	<path d="M749.193,743.633c0,83.512-67.63,152.637-151.054,152.637H188.784c-83.423,0-150.707-69.125-150.707-152.637V335.365
		c0-83.513,67.283-150.212,150.707-150.212H598.14c83.424,0,151.054,66.699,151.054,150.212V743.633z"/>
	<rect x="379.413" y="183.731" style="fill:#999999;" width="28.445" height="711.117"/>
	<rect x="65.1" y="560.623" style="fill:#FFFFFF;" width="28.444" height="248.891"/>
	<rect x="693.726" y="351.554" style="fill:#FFFFFF;" width="28.445" height="248.891"/>
	<rect x="329.635" y="428.355" style="fill:#FFFFFF;" width="28.444" height="28.444"/>
</g>
<g>
	<path d="M878.127,400.8V299.3h87h87v14.5v14.5h14.5h14.5v43.5v43.5h-14.5h-14.5v14.5v14.5h-58h-58v29v29h-29h-29V400.8z
		 M1023.127,371.8v-43.5h-43.5h-43.5v43.5v43.5h43.5h43.5V371.8z"/>
	<path d="M1139.127,313.8v-14.5h72.5h72.5v14.5v14.5h14.5h14.5v72.5v72.5h-14.5h-14.5v14.5v14.5h-72.5h-72.5v-14.5v-14.5h-14.5
		h-14.5v-72.5v-72.5h14.5h14.5V313.8z M1255.127,400.8v-72.5h-43.5h-43.5v72.5v72.5h43.5h43.5V400.8z"/>
	<path d="M1342.127,400.8V299.3h29h29v14.5v14.5h14.5h14.5v14.5v14.5h14.5h14.5v14.5v14.5h14.5h14.5v-43.5v-43.5h29h29v101.5v101.5
		h-29h-29v-14.5v-14.5h-14.5h-14.5v-14.5v-14.5h-14.5h-14.5v-14.5v-14.5h-14.5h-14.5v43.5v43.5h-29h-29V400.8z"/>
	<path d="M1632.127,313.8v-14.5h72.5h72.5v14.5v14.5h-58h-58v14.5v14.5h-14.5h-14.5v43.5v43.5h14.5h14.5v14.5v14.5h29h29v-29v-29
		h-14.5h-14.5v-14.5v-14.5h43.5h43.5v58v58h-72.5h-72.5v-14.5v-14.5h-14.5h-14.5v-14.5v-14.5h-14.5h-14.5v-43.5v-43.5h14.5h14.5
		v-14.5v-14.5h14.5h14.5V313.8z"/>
	<path d="M878.127,679.2V577.7h87h87v14.5v14.5h14.5h14.5v43.5v43.5h-29h-29v14.5v14.5h14.5h14.5v14.5v14.5h14.5h14.5v14.5v14.5
		h-43.5h-43.5v-14.5v-14.5h-14.5h-14.5v-14.5v-14.5h-14.5h-14.5v29v29h-29h-29V679.2z M1023.127,635.7v-29h-43.5h-43.5v43.5v43.5h29
		h29v-14.5v-14.5h14.5h14.5V635.7z"/>
	<path d="M1139.127,679.2V577.7h29h29v87v87h58h58v14.5v14.5h-87h-87V679.2z"/>
</g>
</svg>
