<?xml version="1.0" encoding="iso-8859-1"?>
<!-- Generator: Adobe Illustrator 16.0.0, SVG Export Plug-In . SVG Version: 6.00 Build 0)  -->
<!DOCTYPE svg PUBLIC "-//W3C//DTD SVG 1.1//EN" "http://www.w3.org/Graphics/SVG/1.1/DTD/svg11.dtd">
<svg version="1.1" id="Layer_1" xmlns="http://www.w3.org/2000/svg" xmlns:xlink="http://www.w3.org/1999/xlink" x="0px" y="0px"
	 width="1961px" height="500px" viewBox="0 0 1961 500" style="enable-background:new 0 0 1961 500;" xml:space="preserve">
<path style="fill:#FF7900;" d="M300,400c-110.457,0-200-89.543-200-200C100,97.52,177.082,13.057,276.427,1.39
	C267.742,0.477,258.927,0,250,0C111.929,0,0,111.929,0,250c0,138.071,111.929,250,250,250s250-111.929,250-250
	c0-8.927-0.478-17.742-1.39-26.427C486.943,322.919,402.48,400,300,400z"/>
<g>
	<path style="fill:#FFA700;" d="M700.004,350.957c21.328,0,40.164-5.664,56.5-17c16.328-11.328,28.328-26.5,36-45.5h27.5
		c-4.336,12.672-10.422,24.336-18.25,35c-7.836,10.672-17,19.836-27.5,27.5c-10.5,7.672-22.086,13.75-34.75,18.25
		c-12.672,4.5-25.836,6.75-39.5,6.75c-17.672,0-34.086-3.25-49.25-9.75c-15.172-6.5-28.336-15.328-39.5-26.5
		c-11.172-11.164-20-24.328-26.5-39.5c-6.5-15.164-9.75-31.578-9.75-49.25c0-17.328,3.25-33.664,9.75-49
		c6.5-15.328,15.328-28.578,26.5-39.75c11.164-11.164,24.328-20,39.5-26.5c15.164-6.5,31.578-9.75,49.25-9.75
		c17.328,0,33.664,3.25,49,9.75c15.328,6.5,28.578,15.336,39.75,26.5c11.164,11.172,20,24.422,26.5,39.75
		c6.5,15.336,9.75,31.672,9.75,49v12.5h-45h-180c2,12.672,5.914,24.336,11.75,35c5.828,10.672,13.25,19.836,22.25,27.5
		c9,7.672,19.078,13.75,30.25,18.25C675.418,348.707,687.332,350.957,700.004,350.957z M700.004,150.957
		c-12.672,0-24.586,2.25-35.75,6.75c-11.172,4.5-21.25,10.586-30.25,18.25c-9,7.672-16.422,16.922-22.25,27.75
		c-5.836,10.836-9.75,22.422-11.75,34.75h200c-2-12.328-5.922-23.914-11.75-34.75c-5.836-10.828-13.25-20.078-22.25-27.75
		c-9-7.664-19.172-13.75-30.5-18.25C724.168,153.207,712.332,150.957,700.004,150.957z"/>
	<path style="fill:#FFA700;" d="M980.003,125.957c17,0,33,3.336,48,10c15,6.672,28.25,15.75,39.75,27.25s20.578,24.75,27.25,39.75
		c6.664,15,10,31,10,48v125h-25v-125c0-13.664-2.672-26.578-8-38.75c-5.336-12.164-12.5-22.75-21.5-31.75s-19.586-16.164-31.75-21.5
		c-12.172-5.328-25.086-8-38.75-8c-13.672,0-26.586,2.672-38.75,8c-12.172,5.336-22.75,12.5-31.75,21.5s-16.172,19.586-21.5,31.75
		c-5.336,12.172-8,25.086-8,38.75v125h-25v-125c0-17,3.25-33,9.75-48s15.328-28.25,26.5-39.75c11.164-11.5,24.328-20.578,39.5-27.25
		C945.917,129.293,962.331,125.957,980.003,125.957z"/>
	<path style="fill:#FFA700;" d="M1135.002,250.957c0-17.328,3.25-33.664,9.75-49c6.5-15.328,15.328-28.578,26.5-39.75
		c11.164-11.164,24.328-20,39.5-26.5c15.164-6.5,31.578-9.75,49.25-9.75c20,0,38.828,4.586,56.5,13.75
		c17.664,9.172,32.164,21.25,43.5,36.25v-95h25v170c0,17.672-3.25,34.086-9.75,49.25c-6.5,15.172-15.336,28.336-26.5,39.5
		c-11.172,11.172-24.422,20-39.75,26.5c-15.336,6.5-31.672,9.75-49,9.75c-17.672,0-34.086-3.25-49.25-9.75
		c-15.172-6.5-28.336-15.328-39.5-26.5c-11.172-11.164-20-24.328-26.5-39.5C1138.252,285.043,1135.002,268.629,1135.002,250.957z
		 M1160.002,250.957c0,13.672,2.664,26.586,8,38.75c5.328,12.172,12.5,22.75,21.5,31.75s19.578,16.172,31.75,21.5
		c12.164,5.336,25.078,8,38.75,8c13.664,0,26.578-2.664,38.75-8c12.164-5.328,22.75-12.5,31.75-21.5s16.164-19.578,21.5-31.75
		c5.328-12.164,8-25.078,8-38.75c0-13.664-2.672-26.578-8-38.75c-5.336-12.164-12.5-22.75-21.5-31.75s-19.586-16.164-31.75-21.5
		c-12.172-5.328-25.086-8-38.75-8c-13.672,0-26.586,2.672-38.75,8c-12.172,5.336-22.75,12.5-31.75,21.5s-16.172,19.586-21.5,31.75
		C1162.666,224.379,1160.002,237.293,1160.002,250.957z"/>
	<path style="fill:#FFA700;" d="M1540.001,350.957c21.328,0,40.164-5.664,56.5-17c16.328-11.328,28.328-26.5,36-45.5h27.5
		c-4.336,12.672-10.422,24.336-18.25,35c-7.836,10.672-17,19.836-27.5,27.5c-10.5,7.672-22.086,13.75-34.75,18.25
		c-12.672,4.5-25.836,6.75-39.5,6.75c-17.672,0-34.086-3.25-49.25-9.75c-15.172-6.5-28.336-15.328-39.5-26.5
		c-11.172-11.164-20-24.328-26.5-39.5c-6.5-15.164-9.75-31.578-9.75-49.25c0-17.328,3.25-33.664,9.75-49
		c6.5-15.328,15.328-28.578,26.5-39.75c11.164-11.164,24.328-20,39.5-26.5c15.164-6.5,31.578-9.75,49.25-9.75
		c17.328,0,33.664,3.25,49,9.75c15.328,6.5,28.578,15.336,39.75,26.5c11.164,11.172,20,24.422,26.5,39.75
		c6.5,15.336,9.75,31.672,9.75,49v12.5h-45h-180c2,12.672,5.914,24.336,11.75,35c5.828,10.672,13.25,19.836,22.25,27.5
		c9,7.672,19.078,13.75,30.25,18.25C1515.415,348.707,1527.329,350.957,1540.001,350.957z M1540.001,150.957
		c-12.672,0-24.586,2.25-35.75,6.75c-11.172,4.5-21.25,10.586-30.25,18.25c-9,7.672-16.422,16.922-22.25,27.75
		c-5.836,10.836-9.75,22.422-11.75,34.75h200c-2-12.328-5.922-23.914-11.75-34.75c-5.836-10.828-13.25-20.078-22.25-27.75
		c-9-7.664-19.172-13.75-30.5-18.25C1564.165,153.207,1552.329,150.957,1540.001,150.957z"/>
	<path style="fill:#FFA700;" d="M1719.5,375.957H1695v-250h24.5v218l225.5-225l17,17L1719.5,375.957z"/>
</g>
<path style="fill:#FFA800;" d="M451,194h41.937C477.364,129,436.62,70.57,375,34.994C255.426-34.042,102.529,6.177,33.493,125.75
	S5.426,397.846,125,466.881c7.73,4.464,15.604,8.271,23.581,11.823C68.378,418.928,43.855,307.146,95.096,218.395
	c55.229-95.658,176.047-128.48,271.705-73.252C407.246,168.494,435,203.793,451,244.044V194z"/>
<g>
	<path style="fill:#FFD400;" d="M221.021,498.325c-0.188-0.022-0.377-0.043-0.566-0.065
		C220.643,498.283,220.832,498.303,221.021,498.325z"/>
	<path style="fill:#FFD400;" d="M228.087,499.045c-0.891-0.077-1.779-0.163-2.667-0.25
		C226.308,498.884,227.197,498.966,228.087,499.045z"/>
	<path style="fill:#FFD400;" d="M129.38,469.015c0.223,0.122,0.447,0.243,0.67,0.365
		C129.828,469.258,129.604,469.138,129.38,469.015z"/>
	<path style="fill:#FFD400;" d="M250,500c-6.727,0-13.388-0.273-19.98-0.795c25.271,2.049,50.985,0.277,76.244-5.564
		C288.18,497.8,269.347,500,250,500z"/>
	<path style="fill:#FFD400;" d="M44.568,392.47c-0.485-0.698-0.964-1.4-1.442-2.104C43.604,391.071,44.085,391.771,44.568,392.47z"
		/>
	<path style="fill:#FFD400;" d="M354.904,131.698c53.568,92.783,24.341,210.645-64.755,268.043c3.266,0.158,6.546,0.259,9.851,0.259
		c102.48,0,186.943-77.081,198.61-176.428c0.912,8.686,1.39,17.501,1.39,26.428c0,6.404-0.243,12.751-0.716,19.034
		c3.75-48.544-6.596-98.685-32.778-144.034C397.471,5.426,244.573-35.543,125,33.493c-7.73,4.464-15.126,9.284-22.192,14.417
		C194.678,8.341,303.664,42.947,354.904,131.698z"/>
	<path style="fill:#FFD400;" d="M498.798,274.566c0.155-1.561,0.29-3.123,0.416-4.688
		C499.091,271.445,498.949,273.008,498.798,274.566z"/>
	<path style="fill:#FFD400;" d="M40.27,386.072c-0.026-0.04-0.053-0.08-0.079-0.119C40.217,385.992,40.244,386.032,40.27,386.072z"
		/>
	<path style="fill:#FFD400;" d="M45.813,394.243c21.589,30.635,49.092,55.118,80.04,72.783
		C94.161,448.854,66.83,423.944,45.813,394.243z"/>
	<path style="fill:#FFD400;" d="M391.759,455.931c-0.204,0.141-0.407,0.284-0.613,0.425
		C391.352,456.215,391.554,456.071,391.759,455.931z"/>
	<path style="fill:#FFD400;" d="M468.816,370.972c0.136-0.246,0.276-0.489,0.411-0.736
		C469.093,370.482,468.952,370.726,468.816,370.972z"/>
	<path style="fill:#FFD400;" d="M322.345,489.354c0.231-0.069,0.463-0.136,0.694-0.206
		C322.809,489.219,322.575,489.285,322.345,489.354z"/>
	<path style="fill:#FFD400;" d="M464.23,378.917c0.776-1.292,1.549-2.587,2.301-3.892
		C465.776,376.33,465.009,377.627,464.23,378.917z"/>
	<path style="fill:#FFD400;" d="M398.426,451.176c-0.906,0.669-1.815,1.333-2.73,1.99
		C396.613,452.51,397.519,451.843,398.426,451.176z"/>
	<path style="fill:#FFD400;" d="M498.207,279.959c0.078-0.646,0.147-1.293,0.222-1.939
		C498.356,278.666,498.283,279.313,498.207,279.959z"/>
	<path style="fill:#FFD400;" d="M400.072,449.956c26.11-19.546,47.479-43.496,63.658-70.2
		C447.145,407.018,425.487,430.851,400.072,449.956z"/>
	<path style="fill:#FFD400;" d="M314.829,491.493c0.884-0.237,1.769-0.469,2.651-0.717
		C316.6,491.022,315.714,491.257,314.829,491.493z"/>
	<path style="fill:#FFD400;" d="M307.262,493.402c1.545-0.364,3.09-0.735,4.631-1.13
		C310.354,492.664,308.811,493.039,307.262,493.402z"/>
</g>
</svg>
