<?xml version="1.0" encoding="iso-8859-1"?>
<!-- Generator: Adobe Illustrator 16.0.0, SVG Export Plug-In . SVG Version: 6.00 Build 0)  -->
<!DOCTYPE svg PUBLIC "-//W3C//DTD SVG 1.1//EN" "http://www.w3.org/Graphics/SVG/1.1/DTD/svg11.dtd">
<svg version="1.1" id="Layer_1" xmlns="http://www.w3.org/2000/svg" xmlns:xlink="http://www.w3.org/1999/xlink" x="0px" y="0px"
	 width="749.505px" height="686.72px" viewBox="0 0 749.505 686.72" style="enable-background:new 0 0 749.505 686.72;"
	 xml:space="preserve">
<path style="fill:#FF7900;" d="M428.306,400.042c-110.457,0-200-89.543-200-200c0-102.48,77.082-186.943,176.427-198.61
	c-8.685-0.913-17.5-1.39-26.427-1.39c-138.071,0-250,111.929-250,250c0,138.071,111.929,250,250,250s250-111.929,250-250
	c0-8.927-0.478-17.742-1.39-26.427C615.25,322.961,530.787,400.042,428.306,400.042z"/>
<g>
	<path style="fill:#FFA800;" d="M580.306,193.042h40.937c-15.572-65-56.316-122.93-117.937-158.506
		C383.732-34.5,230.835,5.969,161.799,125.542s-28.067,272.221,91.507,341.256c7.73,4.464,15.604,8.333,23.581,11.886
		c-80.203-59.776-104.726-171.526-53.485-260.278c55.229-95.658,176.547-128.465,272.205-73.236
		c40.445,23.351,68.699,58.666,84.699,98.917V193.042z"/>
	<path style="fill:#FFA800;" d="M580.306,392.631c0,1.538-1.253,3.073-1.911,4.603c0.647-0.891,1.911-1.802,1.911-2.703V392.631z"/>
</g>
<g>
	<path style="fill:#FFD400;" d="M349.327,498.368c-0.188-0.022-0.377-0.043-0.566-0.065
		C348.949,498.326,349.138,498.345,349.327,498.368z"/>
	<path style="fill:#FFD400;" d="M356.393,499.087c-0.891-0.077-1.779-0.163-2.667-0.25
		C354.614,498.926,355.503,499.008,356.393,499.087z"/>
	<path style="fill:#FFD400;" d="M257.687,469.057c0.223,0.122,0.447,0.243,0.67,0.365C258.134,469.3,257.91,469.18,257.687,469.057z
		"/>
	<path style="fill:#FFD400;" d="M378.306,500.042c-6.727,0-13.388-0.273-19.98-0.795c25.271,2.049,50.985,0.277,76.244-5.564
		C416.486,497.842,397.653,500.042,378.306,500.042z"/>
	<path style="fill:#FFD400;" d="M172.875,392.512c-0.485-0.698-0.964-1.4-1.442-2.104
		C171.91,391.114,172.391,391.814,172.875,392.512z"/>
	<path style="fill:#FFD400;" d="M483.21,131.741c53.568,92.783,24.341,210.645-64.755,268.043c3.266,0.158,6.546,0.259,9.851,0.259
		c102.48,0,186.943-77.081,198.61-176.428c0.912,8.686,1.39,17.501,1.39,26.428c0,6.404-0.243,12.751-0.716,19.034
		c3.75-48.544-6.596-98.685-32.778-144.034C525.777,5.468,372.879-35.5,253.306,33.536c-7.73,4.464-15.126,9.284-22.192,14.417
		C322.984,8.383,431.97,42.99,483.21,131.741z"/>
	<path style="fill:#FFD400;" d="M627.104,274.609c0.155-1.561,0.29-3.123,0.416-4.688
		C627.397,271.488,627.255,273.05,627.104,274.609z"/>
	<path style="fill:#FFD400;" d="M168.576,386.115c-0.026-0.04-0.053-0.08-0.079-0.119
		C168.523,386.035,168.55,386.075,168.576,386.115z"/>
	<path style="fill:#FFD400;" d="M174.12,394.286c21.589,30.635,49.092,55.118,80.04,72.783
		C222.467,448.897,195.136,423.987,174.12,394.286z"/>
	<path style="fill:#FFD400;" d="M520.065,455.973c-0.204,0.141-0.407,0.284-0.613,0.425
		C519.658,456.257,519.86,456.114,520.065,455.973z"/>
	<path style="fill:#FFD400;" d="M597.123,371.014c0.136-0.246,0.276-0.489,0.411-0.736
		C597.399,370.525,597.258,370.768,597.123,371.014z"/>
	<path style="fill:#FFD400;" d="M450.651,489.397c0.231-0.069,0.463-0.136,0.694-0.206
		C451.115,489.261,450.881,489.328,450.651,489.397z"/>
	<path style="fill:#FFD400;" d="M592.537,378.959c0.776-1.292,1.549-2.587,2.301-3.892
		C594.083,376.373,593.315,377.669,592.537,378.959z"/>
	<path style="fill:#FFD400;" d="M526.732,451.218c-0.906,0.669-1.815,1.333-2.73,1.99
		C524.919,452.552,525.825,451.885,526.732,451.218z"/>
	<path style="fill:#FFD400;" d="M626.513,280.001c0.078-0.646,0.147-1.293,0.222-1.939
		C626.663,278.708,626.589,279.356,626.513,280.001z"/>
	<path style="fill:#FFD400;" d="M528.378,449.999c26.11-19.546,47.479-43.496,63.658-70.2
		C575.451,407.06,553.793,430.893,528.378,449.999z"/>
	<path style="fill:#FFD400;" d="M443.135,491.536c0.884-0.237,1.769-0.469,2.651-0.717
		C444.906,491.065,444.02,491.299,443.135,491.536z"/>
	<path style="fill:#FFD400;" d="M435.568,493.445c1.545-0.364,3.09-0.735,4.631-1.13
		C438.661,492.707,437.117,493.082,435.568,493.445z"/>
</g>
<g>
	<path style="fill:#FFA700;" d="M67.548,673.21c11.525,0,21.703-3.061,30.531-9.187c8.823-6.121,15.308-14.32,19.453-24.587h14.861
		c-2.344,6.848-5.632,13.15-9.862,18.913c-4.234,5.768-9.187,10.719-14.86,14.86c-5.674,4.146-11.935,7.431-18.778,9.862
		c-6.848,2.432-13.961,3.647-21.345,3.647c-9.55,0-18.42-1.756-26.614-5.269c-8.198-3.513-15.312-8.283-21.345-14.32
		c-6.037-6.033-10.808-13.146-14.32-21.345C1.756,637.592,0,628.722,0,619.172c0-9.363,1.756-18.19,5.269-26.479
		c3.513-8.282,8.283-15.442,14.32-21.479c6.033-6.033,13.146-10.809,21.345-14.32c8.194-3.513,17.064-5.27,26.614-5.27
		c9.363,0,18.191,1.757,26.479,5.27c8.283,3.512,15.442,8.287,21.479,14.32c6.033,6.037,10.808,13.197,14.32,21.479
		c3.513,8.288,5.269,17.115,5.269,26.479v6.755h-24.316H13.51c1.08,6.848,3.195,13.151,6.35,18.913
		c3.149,5.768,7.159,10.719,12.023,14.861c4.863,4.146,10.309,7.43,16.346,9.861C54.262,671.995,60.7,673.21,67.548,673.21z
		 M67.548,565.134c-6.848,0-13.286,1.217-19.319,3.648c-6.037,2.432-11.482,5.721-16.346,9.861
		c-4.864,4.146-8.874,9.145-12.023,14.996c-3.154,5.855-5.27,12.115-6.35,18.778h108.075c-1.08-6.663-3.199-12.923-6.349-18.778
		c-3.154-5.852-7.16-10.85-12.023-14.996c-4.864-4.141-10.36-7.43-16.481-9.861C80.605,566.351,74.209,565.134,67.548,565.134z"/>
	<path style="fill:#FFA700;" d="M218.854,551.625c9.187,0,17.832,1.803,25.938,5.404c8.105,3.605,15.266,8.512,21.479,14.726
		c6.215,6.214,11.12,13.374,14.726,21.479c3.602,8.106,5.403,16.753,5.403,25.938v67.548h-13.509v-67.548
		c0-7.383-1.444-14.362-4.323-20.939c-2.884-6.573-6.755-12.294-11.618-17.157s-10.584-8.734-17.157-11.618
		c-6.577-2.879-13.556-4.323-20.939-4.323c-7.388,0-14.366,1.444-20.939,4.323c-6.578,2.884-12.294,6.755-17.157,11.618
		s-8.739,10.584-11.618,17.157c-2.884,6.577-4.323,13.557-4.323,20.939v67.548h-13.51v-67.548c0-9.186,1.757-17.832,5.269-25.938
		c3.513-8.105,8.283-15.266,14.32-21.479c6.033-6.214,13.146-11.12,21.345-14.726C200.434,553.427,209.304,551.625,218.854,551.625z
		"/>
	<path style="fill:#FFA700;" d="M302.611,619.172c0-9.363,1.757-18.19,5.27-26.479c3.512-8.282,8.282-15.442,14.319-21.479
		c6.033-6.033,13.146-10.809,21.346-14.32c8.193-3.513,17.063-5.27,26.613-5.27c10.807,0,20.982,2.479,30.531,7.431
		c9.545,4.956,17.381,11.483,23.506,19.589v-51.336h13.51v91.864c0,9.55-1.756,18.42-5.268,26.614
		c-3.514,8.198-8.289,15.312-14.32,21.345c-6.037,6.037-13.197,10.808-21.48,14.32c-8.287,3.513-17.115,5.269-26.479,5.269
		c-9.551,0-18.42-1.756-26.613-5.269c-8.2-3.513-15.313-8.283-21.346-14.32c-6.037-6.033-10.808-13.146-14.319-21.345
		C304.368,637.592,302.611,628.722,302.611,619.172z M316.121,619.172c0,7.389,1.439,14.367,4.323,20.939
		c2.879,6.578,6.755,12.295,11.618,17.158s10.58,8.738,17.158,11.617c6.572,2.884,13.551,4.323,20.939,4.323
		c7.383,0,14.361-1.439,20.939-4.323c6.572-2.879,12.293-6.754,17.156-11.617s8.736-10.58,11.619-17.158
		c2.879-6.572,4.322-13.551,4.322-20.939c0-7.383-1.443-14.362-4.322-20.939c-2.883-6.573-6.756-12.294-11.619-17.157
		s-10.584-8.734-17.156-11.618c-6.578-2.879-13.557-4.323-20.939-4.323c-7.389,0-14.367,1.444-20.939,4.323
		c-6.578,2.884-12.294,6.755-17.158,11.618s-8.739,10.584-11.618,17.157C317.561,604.81,316.121,611.79,316.121,619.172z"/>
	<path style="fill:#FFA700;" d="M521.464,673.21c11.525,0,21.705-3.061,30.533-9.187c8.822-6.121,15.307-14.32,19.453-24.587h14.859
		c-2.342,6.848-5.631,13.15-9.861,18.913c-4.234,5.768-9.186,10.719-14.861,14.86c-5.674,4.146-11.934,7.431-18.777,9.862
		c-6.848,2.432-13.961,3.647-21.346,3.647c-9.549,0-18.418-1.756-26.613-5.269c-8.199-3.513-15.313-8.283-21.344-14.32
		c-6.037-6.033-10.809-13.146-14.32-21.345c-3.514-8.194-5.27-17.064-5.27-26.614c0-9.363,1.756-18.19,5.27-26.479
		c3.512-8.282,8.283-15.442,14.32-21.479c6.031-6.033,13.145-10.809,21.344-14.32c8.195-3.513,17.064-5.27,26.613-5.27
		c9.365,0,18.191,1.757,26.479,5.27c8.283,3.512,15.443,8.287,21.48,14.32c6.033,6.037,10.809,13.197,14.32,21.479
		c3.514,8.288,5.27,17.115,5.27,26.479v6.755h-24.318h-97.268c1.08,6.848,3.195,13.151,6.35,18.913
		c3.148,5.768,7.16,10.719,12.023,14.861c4.863,4.146,10.309,7.43,16.346,9.861C508.179,671.995,514.617,673.21,521.464,673.21z
		 M521.464,565.134c-6.848,0-13.285,1.217-19.318,3.648c-6.037,2.432-11.482,5.721-16.346,9.861
		c-4.863,4.146-8.875,9.145-12.023,14.996c-3.154,5.855-5.27,12.115-6.35,18.778h108.076c-1.08-6.663-3.201-12.923-6.35-18.778
		c-3.154-5.852-7.16-10.85-12.023-14.996c-4.863-4.141-10.359-7.43-16.482-9.861C534.523,566.351,528.126,565.134,521.464,565.134z"
		/>
	<path style="fill:#FFA700;" d="M618.462,686.72h-13.238V551.625h13.238v117.804l121.855-121.585l9.188,9.186L618.462,686.72z"/>
</g>
</svg>
