<?xml version="1.0" encoding="iso-8859-1"?>
<!-- Generator: Adobe Illustrator 16.0.0, SVG Export Plug-In . SVG Version: 6.00 Build 0)  -->
<!DOCTYPE svg PUBLIC "-//W3C//DTD SVG 1.1//EN" "http://www.w3.org/Graphics/SVG/1.1/DTD/svg11.dtd">
<svg version="1.1" id="Layer_1" xmlns="http://www.w3.org/2000/svg" xmlns:xlink="http://www.w3.org/1999/xlink" x="0px" y="0px"
	 width="5000px" height="5000px" viewBox="0 0 5000 5000" style="enable-background:new 0 0 5000 5000;" xml:space="preserve">
<path style="fill:#FF7900;" d="M3000,4000c-1104.57,0-2000-895.43-2000-2000c0-1024.726,770.658-1869.444,1764.008-1986.213
	C2677.248,4.681,2589.17,0,2499.999,0C1119.288,0,0,1119.288,0,2500s1119.288,2500,2499.999,2500S5000,3880.711,5000,2500
	c0-89.171-4.681-177.249-13.787-264.008C4869.445,3229.342,4024.727,4000,3000,4000z"/>
<path style="fill:#FFA800;" d="M4483,1754h403.11C4705.56,1175.987,4315.771,661.585,3750,334.937
	C2554.269-355.419,1025.291,54.269,334.936,1250S54.269,3974.709,1250,4665.064c77.225,44.586,155.842,84.57,235.53,120.063
	C683.648,4187.328,438.598,3070.451,950.961,2183.013c552.285-956.586,1775.465-1284.336,2732.051-732.051
	c360.406,208.08,631.545,511.394,799.988,859.802V1754z"/>
<g>
	<path style="fill:#FFD400;" d="M470.32,3959.887c211.442,294.711,478.079,531.49,777.301,704.273
		C941.429,4486.585,676.396,4245.892,470.32,3959.887z"/>
	<path style="fill:#FFD400;" d="M3549.039,1316.986c535.734,927.92,243.381,2106.688-647.76,2680.611
		c32.707,1.59,65.619,2.402,98.721,2.402c1024.727,0,1869.445-770.658,1986.213-1764.008C4995.319,2322.751,5000,2410.829,5000,2500
		c0,84.856-4.237,168.724-12.494,251.406c51.393-504.297-49.624-1028.873-322.441-1501.406
		C3974.708,54.268,2445.73-355.421,1250,334.936c-77.225,44.585-151.162,92.679-221.743,143.945
		C1946.907,83.329,3036.676,429.548,3549.039,1316.986z"/>
	<path style="fill:#FFD400;" d="M2499.999,5000c-84.166,0-167.36-4.161-249.389-12.285c296.574,29.98,600.126,7.24,895.953-72.143
		C2940.325,4970.636,2723.592,5000,2499.999,5000z"/>
	<path style="fill:#FFD400;" d="M3961.509,4528.518c294.642-211.748,531.28-478.703,703.851-778.221
		C4488.004,4056.791,4247.449,4322.141,3961.509,4528.518z"/>
</g>
</svg>
