<?xml version="1.0" encoding="iso-8859-1"?>
<!-- Generator: Adobe Illustrator 16.0.0, SVG Export Plug-In . SVG Version: 6.00 Build 0)  -->
<!DOCTYPE svg PUBLIC "-//W3C//DTD SVG 1.1//EN" "http://www.w3.org/Graphics/SVG/1.1/DTD/svg11.dtd">
<svg version="1.1" id="Layer_1" xmlns="http://www.w3.org/2000/svg" xmlns:xlink="http://www.w3.org/1999/xlink" x="0px" y="0px"
	 width="1961px" height="500px" viewBox="0 0 1961 500" style="enable-background:new 0 0 1961 500;" xml:space="preserve">
<path style="fill:#FF7900;" d="M300,400c-110.457,0-200-89.543-200-200C100,97.52,177.082,13.057,276.427,1.39
	C267.742,0.477,258.927,0,250,0C111.929,0,0,111.929,0,250c0,138.071,111.929,250,250,250s250-111.929,250-250
	c0-8.927-0.478-17.742-1.39-26.427C486.943,322.919,402.48,400,300,400z"/>
<g>
	<path style="fill:#FFA800;" d="M454,191h38.937C477.364,126.918,436.62,69.07,375,33.494C255.426-35.542,102.529,5.427,33.493,125
		S5.426,397.471,125,466.506c7.73,4.464,15.604,8.458,23.581,12.011C68.378,418.74,43.855,307.053,95.096,218.301
		c55.229-95.658,177.547-128.434,273.205-73.205c40.445,23.351,69.639,58.697,85.699,98.948V191z"/>
	<path style="fill:#FFA800;" d="M454,392.589c-0.617,1.538-1.253,3.073-1.911,4.603c0.647-0.891,1.274-1.802,1.911-2.703V392.589z"
		/>
</g>
<g>
	<path style="fill:#FFD400;" d="M221.021,498.325c-0.188-0.022-0.377-0.043-0.566-0.065
		C220.643,498.283,220.832,498.303,221.021,498.325z"/>
	<path style="fill:#FFD400;" d="M228.087,499.045c-0.891-0.077-1.779-0.163-2.667-0.25
		C226.308,498.884,227.197,498.966,228.087,499.045z"/>
	<path style="fill:#FFD400;" d="M129.38,469.015c0.223,0.122,0.447,0.243,0.67,0.365
		C129.828,469.258,129.604,469.138,129.38,469.015z"/>
	<path style="fill:#FFD400;" d="M250,500c-6.727,0-13.388-0.273-19.98-0.795c25.271,2.049,50.985,0.277,76.244-5.564
		C288.18,497.8,269.347,500,250,500z"/>
	<path style="fill:#FFD400;" d="M44.568,392.47c-0.485-0.698-0.964-1.4-1.442-2.104C43.604,391.071,44.085,391.771,44.568,392.47z"
		/>
	<path style="fill:#FFD400;" d="M354.904,131.698c53.568,92.783,24.341,210.645-64.755,268.043c3.266,0.158,6.546,0.259,9.851,0.259
		c102.48,0,186.943-77.081,198.61-176.428c0.912,8.686,1.39,17.501,1.39,26.428c0,6.404-0.243,12.751-0.716,19.034
		c3.75-48.544-6.596-98.685-32.778-144.034C397.471,5.426,244.573-35.543,125,33.493c-7.73,4.464-15.126,9.284-22.192,14.417
		C194.678,8.341,303.664,42.947,354.904,131.698z"/>
	<path style="fill:#FFD400;" d="M498.798,274.566c0.155-1.561,0.29-3.123,0.416-4.688
		C499.091,271.445,498.949,273.008,498.798,274.566z"/>
	<path style="fill:#FFD400;" d="M40.27,386.072c-0.026-0.04-0.053-0.08-0.079-0.119C40.217,385.992,40.244,386.032,40.27,386.072z"
		/>
	<path style="fill:#FFD400;" d="M45.813,394.243c21.589,30.635,49.092,55.118,80.04,72.783
		C94.161,448.854,66.83,423.944,45.813,394.243z"/>
	<path style="fill:#FFD400;" d="M391.759,455.931c-0.204,0.141-0.407,0.284-0.613,0.425
		C391.352,456.215,391.554,456.071,391.759,455.931z"/>
	<path style="fill:#FFD400;" d="M468.816,370.972c0.136-0.246,0.276-0.489,0.411-0.736
		C469.093,370.482,468.952,370.726,468.816,370.972z"/>
	<path style="fill:#FFD400;" d="M322.345,489.354c0.231-0.069,0.463-0.136,0.694-0.206
		C322.809,489.219,322.575,489.285,322.345,489.354z"/>
	<path style="fill:#FFD400;" d="M464.23,378.917c0.776-1.292,1.549-2.587,2.301-3.892
		C465.776,376.33,465.009,377.627,464.23,378.917z"/>
	<path style="fill:#FFD400;" d="M398.426,451.176c-0.906,0.669-1.815,1.333-2.73,1.99
		C396.613,452.51,397.519,451.843,398.426,451.176z"/>
	<path style="fill:#FFD400;" d="M498.207,279.959c0.078-0.646,0.147-1.293,0.222-1.939
		C498.356,278.666,498.283,279.313,498.207,279.959z"/>
	<path style="fill:#FFD400;" d="M400.072,449.956c26.11-19.546,47.479-43.496,63.658-70.2
		C447.145,407.018,425.487,430.851,400.072,449.956z"/>
	<path style="fill:#FFD400;" d="M314.829,491.493c0.884-0.237,1.769-0.469,2.651-0.717
		C316.6,491.022,315.714,491.257,314.829,491.493z"/>
	<path style="fill:#FFD400;" d="M307.262,493.402c1.545-0.364,3.09-0.735,4.631-1.13
		C310.354,492.664,308.811,493.039,307.262,493.402z"/>
</g>
<g>
	<path style="fill:#FFB600;" d="M735.23,90h-152.5v145h109.5v20h-109.5v155h156v20h-179.5V70h176V90z"/>
	<path style="fill:#FFB600;" d="M870.726,102.5l-1,1V430h-23.5V70h34l122.5,308.5l1-1V70h23.5v363.5h-24.5L870.726,102.5z"/>
	<path style="fill:#FFB600;" d="M1145.221,70h90c42,0,71,23,86,51c12,22,22,63.5,22,129c0,91.5-22.5,130.5-29,140
		c-16.5,23.5-42,40-86,40h-83V70z M1168.721,410h44.5c39.5,0,72.5-5.5,90-46c14-32,15-79.5,15-114c0-34.5-1-86.5-16.5-117.5
		c-19-38-50.5-42.5-88.5-42.5h-44.5V410z"/>
	<path style="fill:#FFB600;" d="M1635.216,90h-152.5v145h109.5v20h-109.5v155h156v20h-179.5V70h176V90z"/>
	<path style="fill:#FFB600;" d="M1904.211,70h27l-78.5,363.5h-38l-81.5-363.5h27.5l72.5,343.5h1L1904.211,70z"/>
</g>
</svg>
