<?xml version="1.0" encoding="iso-8859-1"?>
<!-- Generator: Adobe Illustrator 16.0.0, SVG Export Plug-In . SVG Version: 6.00 Build 0)  -->
<!DOCTYPE svg PUBLIC "-//W3C//DTD SVG 1.1//EN" "http://www.w3.org/Graphics/SVG/1.1/DTD/svg11.dtd">
<svg version="1.1" id="Layer_1" xmlns="http://www.w3.org/2000/svg" xmlns:xlink="http://www.w3.org/1999/xlink" x="0px" y="0px"
	 width="1920px" height="300px" viewBox="0 0 1920 300" style="enable-background:new 0 0 1920 300;" xml:space="preserve">
<g>
	<path style="fill:#0CFFF4;" d="M368.484,251.848c-14.398,0-27.772-2.646-40.128-7.945c-12.362-5.295-23.087-12.486-32.183-21.588
		c-9.104-9.098-16.296-19.824-21.592-32.188c-5.295-12.354-7.944-25.727-7.944-40.125c0-14.119,2.648-27.429,7.944-39.924
		c5.296-12.489,12.488-23.285,21.592-32.387c9.096-9.096,19.821-16.295,32.183-21.591c12.355-5.296,25.729-7.944,40.128-7.944
		c13.851,0,26.887,2.648,39.109,7.944c12.221,5.296,23.017,12.495,32.386,21.591c9.37,9.102,16.767,19.898,22.204,32.387
		c5.43,12.496,8.147,25.805,8.147,39.924V288.51h-20.369v-77.4c-9.236,12.221-21.051,22.068-35.443,29.535
		C400.12,248.115,384.779,251.848,368.484,251.848z M368.484,68.524c-11.14,0-21.661,2.177-31.573,6.519
		c-9.917,4.347-18.536,10.184-25.869,17.518c-7.333,7.333-13.176,15.958-17.518,25.869c-4.347,9.917-6.518,20.438-6.518,31.572
		c0,11.139,2.171,21.661,6.518,31.573c4.341,9.918,10.185,18.535,17.518,25.867c7.333,7.336,15.951,13.176,25.869,17.52
		c9.912,4.348,20.433,6.516,31.573,6.516c11.133,0,21.654-2.168,31.572-6.516c9.912-4.344,18.537-10.184,25.869-17.52
		c7.333-7.332,13.17-15.949,17.518-25.867c4.341-9.912,6.519-20.434,6.519-31.573c0-11.134-2.177-21.655-6.519-31.572
		c-4.348-9.912-10.184-18.537-17.518-25.869c-7.333-7.333-15.958-13.17-25.869-17.518C390.139,70.701,379.617,68.524,368.484,68.524
		z"/>
	<path style="fill:#A7F3FF;" d="M494.772,139.816h203.692v20.369H494.772V139.816z"/>
	<path style="fill:#4DD8FF;" d="M722.907,150.001c0-14.119,2.647-27.429,7.944-39.924c5.296-12.489,12.488-23.285,21.59-32.387
		c9.097-9.096,19.822-16.295,32.185-21.591c12.355-5.296,25.727-7.944,40.127-7.944c16.296,0,31.636,3.737,46.034,11.203
		c14.392,7.473,26.207,17.313,35.442,29.535V11.49h20.369v138.512c0,14.399-2.646,27.772-7.943,40.125
		c-5.296,12.363-12.495,23.09-21.591,32.188c-9.103,9.102-19.898,16.293-32.388,21.588c-12.495,5.299-25.805,7.945-39.923,7.945
		c-14.4,0-27.772-2.646-40.127-7.945c-12.363-5.295-23.088-12.486-32.185-21.588c-9.102-9.098-16.294-19.824-21.59-32.188
		C725.554,177.773,722.907,164.4,722.907,150.001z M743.276,150.001c0,11.139,2.17,21.661,6.519,31.573
		c4.342,9.918,10.184,18.535,17.517,25.867c7.333,7.336,15.952,13.176,25.869,17.52c9.911,4.348,20.433,6.516,31.573,6.516
		c11.132,0,21.655-2.168,31.572-6.516c9.91-4.344,18.536-10.184,25.869-17.52c7.334-7.332,13.17-15.949,17.517-25.867
		c4.343-9.912,6.519-20.434,6.519-31.573c0-11.134-2.176-21.655-6.519-31.572c-4.347-9.912-10.183-18.537-17.517-25.869
		c-7.333-7.333-15.958-13.17-25.869-17.518c-9.917-4.341-20.44-6.519-31.572-6.519c-11.14,0-21.662,2.177-31.573,6.519
		c-9.917,4.347-18.536,10.184-25.869,17.518c-7.333,7.333-13.175,15.958-17.517,25.869
		C745.447,128.346,743.276,138.868,743.276,150.001z"/>
	<path style="fill:#4DD8FF;" d="M1052.887,48.155c13.853,0,26.89,2.648,39.11,7.944c12.223,5.296,23.017,12.495,32.387,21.591
		c9.37,9.102,16.768,19.898,22.203,32.387c5.43,12.496,8.146,25.805,8.146,39.924h-20.369c0-11.134-2.177-21.655-6.518-31.572
		c-4.347-9.912-10.184-18.537-17.517-25.869c-7.333-7.333-15.959-13.17-25.87-17.518c-9.917-4.341-20.439-6.519-31.573-6.519
		c-11.139,0-21.66,2.177-31.571,6.519c-9.917,4.347-18.536,10.184-25.869,17.518c-7.333,7.333-13.177,15.958-17.517,25.869
		c-4.349,9.917-6.519,20.438-6.519,31.572v101.846h-20.369V150.001c0-14.119,2.647-27.429,7.943-39.924
		c5.297-12.489,12.489-23.285,21.592-32.387c9.098-9.096,19.821-16.295,32.184-21.591
		C1025.116,50.803,1038.489,48.155,1052.887,48.155z"/>
	<path style="fill:#4DD8FF;" d="M1179.176,31.859V11.49h20.37v20.37H1179.176z M1179.176,251.848V48.155h20.37v203.693H1179.176z"/>
	<path style="fill:#4DD8FF;" d="M1243.945,251.848h-19.961V48.155h19.961v177.621l183.73-183.325l13.852,13.852L1243.945,251.848z"
		/>
	<path style="fill:#4DD8FF;" d="M1551.517,231.477c17.376,0,32.725-4.613,46.032-13.852c13.305-9.229,23.082-21.588,29.333-37.072
		h22.407c-3.533,10.328-8.493,19.832-14.87,28.52c-6.386,8.693-13.852,16.162-22.407,22.404
		c-8.555,6.25-17.995,11.205-28.313,14.871c-10.324,3.666-21.051,5.5-32.183,5.5c-14.4,0-27.772-2.646-40.129-7.945
		c-12.36-5.295-23.085-12.486-32.183-21.588c-9.104-9.098-16.295-19.824-21.591-32.188c-5.296-12.354-7.945-25.727-7.945-40.125
		c0-14.119,2.649-27.429,7.945-39.924c5.296-12.489,12.487-23.285,21.591-32.387c9.098-9.096,19.822-16.295,32.183-21.591
		c12.356-5.296,25.729-7.944,40.129-7.944c14.118,0,27.427,2.648,39.924,7.944c12.488,5.296,23.284,12.495,32.387,21.591
		c9.097,9.102,16.295,19.898,21.592,32.387c5.296,12.496,7.943,25.805,7.943,39.924v10.184h-36.664H1470.04
		c1.628,10.324,4.818,19.828,9.572,28.52c4.749,8.693,10.797,16.16,18.129,22.404c7.333,6.25,15.545,11.205,24.646,14.869
		C1531.483,229.646,1541.191,231.477,1551.517,231.477z M1551.517,68.524c-10.325,0-20.033,1.833-29.129,5.5
		c-9.102,3.666-17.313,8.625-24.646,14.869c-7.332,6.251-13.38,13.787-18.129,22.61c-4.754,8.83-7.944,18.269-9.572,28.313h162.953
		c-1.63-10.045-4.825-19.484-9.573-28.313c-4.755-8.823-10.798-16.359-18.128-22.61c-7.334-6.244-15.62-11.203-24.851-14.869
		C1571.204,70.357,1561.56,68.524,1551.517,68.524z"/>
</g>
<g>
	<rect x="1688" y="19" style="fill:#0CFFF4;" width="94" height="95"/>
	<rect x="1796" y="84" style="fill:#A7F3FF;" width="86" height="86"/>
	<rect x="1678" y="189" style="fill:#4DD8FF;" width="96" height="94"/>
	<rect x="1829" y="192" style="fill:#0CFFF4;" width="77" height="77"/>
</g>
<g>
	<rect x="135" y="187" style="fill:#0CFFF4;" width="94" height="95"/>
	<rect x="35" y="131" style="fill:#A7F3FF;" width="86" height="86"/>
	<rect x="143" y="18" style="fill:#4DD8FF;" width="96" height="94"/>
	<rect x="11" y="32" style="fill:#0CFFF4;" width="77" height="77"/>
</g>
</svg>
