<?xml version="1.0" encoding="iso-8859-1"?>
<!-- Generator: Adobe Illustrator 16.0.0, SVG Export Plug-In . SVG Version: 6.00 Build 0)  -->
<!DOCTYPE svg PUBLIC "-//W3C//DTD SVG 1.1//EN" "http://www.w3.org/Graphics/SVG/1.1/DTD/svg11.dtd">
<svg version="1.1" id="Layer_1" xmlns="http://www.w3.org/2000/svg" xmlns:xlink="http://www.w3.org/1999/xlink" x="0px" y="0px"
	 width="256px" height="256px" viewBox="0 0 256 256" style="enable-background:new 0 0 256 256;" xml:space="preserve">
<circle style="fill:#15E7FF;" cx="128" cy="128" r="128"/>
<g>
	<path style="fill:#FFFFFF;" d="M67.52,178.429c-7.129,0-13.751-1.312-19.869-3.934c-6.12-2.621-11.432-6.185-15.935-10.691
		c-4.507-4.504-8.069-9.813-10.691-15.935c-2.623-6.117-3.934-12.74-3.934-19.869c0-6.992,1.311-13.582,3.934-19.769
		c2.622-6.184,6.184-11.53,10.691-16.038c4.503-4.503,9.815-8.068,15.935-10.689c6.118-2.623,12.74-3.934,19.869-3.934
		c6.858,0,13.314,1.311,19.365,3.934c6.051,2.621,11.396,6.186,16.037,10.689c4.639,4.508,8.302,9.854,10.994,16.038
		c2.688,6.187,4.033,12.777,4.033,19.769v68.583h-10.084v-38.325c-4.573,6.052-10.424,10.928-17.55,14.624
		C83.185,176.582,75.589,178.429,67.52,178.429z M67.52,87.656c-5.516,0-10.726,1.078-15.633,3.228
		c-4.911,2.152-9.178,5.042-12.81,8.673c-3.629,3.631-6.523,7.902-8.673,12.809c-2.153,4.911-3.227,10.12-3.227,15.634
		c0,5.515,1.074,10.726,3.227,15.632c2.149,4.911,5.043,9.178,8.673,12.809c3.632,3.632,7.899,6.525,12.81,8.674
		c4.907,2.151,10.117,3.229,15.633,3.229c5.512,0,10.723-1.077,15.633-3.229c4.907-2.148,9.178-5.042,12.809-8.674
		c3.63-3.631,6.521-7.898,8.674-12.809c2.15-4.906,3.228-10.117,3.228-15.632c0-5.514-1.078-10.723-3.228-15.634
		c-2.152-4.907-5.043-9.178-8.674-12.809c-3.631-3.631-7.901-6.521-12.809-8.673C78.243,88.734,73.032,87.656,67.52,87.656z"/>
	<path style="fill:#FFFFFF;" d="M130.051,128c0-6.992,1.312-13.582,3.935-19.769c2.621-6.184,6.183-11.53,10.691-16.038
		c4.504-4.503,9.813-8.068,15.935-10.689c6.117-2.623,12.738-3.934,19.869-3.934c8.068,0,15.664,1.85,22.794,5.547
		c7.126,3.701,12.976,8.573,17.55,14.625V59.417h10.085V128c0,7.128-1.312,13.751-3.934,19.869
		c-2.621,6.121-6.188,11.431-10.691,15.935c-4.507,4.507-9.853,8.07-16.036,10.691c-6.188,2.622-12.777,3.934-19.768,3.934
		c-7.131,0-13.752-1.312-19.869-3.934c-6.121-2.621-11.431-6.185-15.935-10.691c-4.509-4.504-8.07-9.813-10.691-15.935
		C131.363,141.752,130.051,135.129,130.051,128z M140.137,128c0,5.515,1.075,10.726,3.229,15.632
		c2.15,4.911,5.042,9.178,8.674,12.809c3.629,3.632,7.896,6.525,12.809,8.674c4.907,2.151,10.117,3.229,15.633,3.229
		c5.512,0,10.721-1.077,15.633-3.229c4.907-2.148,9.178-5.042,12.809-8.674c3.632-3.631,6.522-7.898,8.674-12.809
		c2.15-4.906,3.229-10.117,3.229-15.632c0-5.514-1.078-10.723-3.229-15.634c-2.151-4.907-5.042-9.178-8.674-12.809
		c-3.631-3.631-7.901-6.521-12.809-8.673c-4.912-2.15-10.121-3.228-15.633-3.228c-5.516,0-10.726,1.078-15.633,3.228
		c-4.912,2.152-9.18,5.042-12.809,8.673c-3.632,3.631-6.524,7.902-8.674,12.809C141.212,117.278,140.137,122.487,140.137,128z"/>
</g>
</svg>
