<?xml version="1.0" encoding="iso-8859-1"?>
<!-- Generator: Adobe Illustrator 16.0.0, SVG Export Plug-In . SVG Version: 6.00 Build 0)  -->
<!DOCTYPE svg PUBLIC "-//W3C//DTD SVG 1.1//EN" "http://www.w3.org/Graphics/SVG/1.1/DTD/svg11.dtd">
<svg version="1.1" id="Layer_1" xmlns="http://www.w3.org/2000/svg" xmlns:xlink="http://www.w3.org/1999/xlink" x="0px" y="0px"
	 width="1920px" height="1080px" viewBox="0 0 1920 1080" style="enable-background:new 0 0 1920 1080;" xml:space="preserve">
<g>
	<path style="fill:#0CFFF4;" d="M0,0v1080h1920V0H0z M254,975h-16v-58.452c-7,9.222-15.722,16.651-26.581,22.285
		c-10.864,5.638-22.358,8.453-34.653,8.453c-10.864,0-20.915-1.997-30.237-5.995c-9.328-3.995-17.4-9.421-24.263-16.288
		c-6.869-6.864-12.286-14.958-16.282-24.287c-3.995-9.32-5.988-19.411-5.988-30.275c0-10.653,2.001-20.696,5.996-30.125
		c3.996-9.423,9.424-17.569,16.293-24.437c6.863-6.863,14.957-12.295,24.284-16.292c9.322-3.995,19.414-5.993,30.277-5.993
		c10.451,0,20.288,1.998,29.51,5.993c9.221,3.997,17.367,9.429,24.437,16.292c7.07,6.867,12.805,15.014,16.907,24.437
		c4.097,9.429,6.301,19.472,6.301,30.125V975z M426,878H272v-15h154V878z M598,870.44c0,10.864-2.017,20.955-6.013,30.275
		c-3.996,9.329-9.438,17.423-16.301,24.287c-6.868,6.867-15.018,12.293-24.442,16.288c-9.427,3.998-19.473,5.995-30.125,5.995
		c-10.866,0-20.956-1.997-30.278-5.995c-9.328-3.995-17.421-9.421-24.285-16.288c-6.868-6.864-12.295-14.958-16.291-24.287
		c-3.997-9.32-5.995-19.411-5.995-30.275c0-10.653,1.998-20.696,5.995-30.125c3.996-9.423,9.422-17.569,16.291-24.437
		c6.864-6.863,14.957-12.295,24.285-16.292c9.322-3.995,19.411-5.993,30.277-5.993c12.295,0,24.074,2.819,34.938,8.453
		C566.913,807.686,576,815.11,583,824.332V766h15V870.44z M754.726,870c0-8-1.643-16.119-4.917-23.602
		c-3.28-7.479-7.684-13.877-13.217-19.41c-5.533-5.533-12.042-9.882-19.52-13.162c-7.483-3.275-15.422-4.891-23.823-4.891
		c-8.405,0-16.344,1.656-23.822,4.932c-7.483,3.28-13.986,7.691-19.519,13.225s-9.829,12.045-13.104,19.523
		c-3.281,7.482-4.805,15.424-4.805,23.825V947h-16v-76.56c0-10.653,2.199-20.696,6.195-30.125
		c3.997-9.423,9.524-17.569,16.393-24.437c6.865-6.863,15.006-12.295,24.334-16.292c9.322-3.995,19.438-5.993,30.301-5.993
		c10.452,0,20.302,1.998,29.522,5.993c9.222,3.997,17.373,9.429,24.443,16.292c7.07,6.867,12.655,14.793,16.756,24.217
		c4.097,9.428,6.15,19.904,6.15,29.904H754.726z M804,947h-15V794h15V947z M804,781h-15v-15h15V781z M837.408,947H822V794h15
		v133.614L975.835,789.29l10.554,10.308L837.408,947z M1146,878h-27.339h-110.657c1.228,8,3.636,15.023,7.223,21.581
		c3.583,6.56,8.146,12.225,13.679,16.936c5.533,4.716,11.729,8.471,18.596,11.235c6.863,2.768,14.188,4.156,21.979,4.156
		c13.11,0,24.691-3.724,34.732-10.693c10.039-6.964,17.416-16.215,22.133-28.215h16.907c-2.666,8-6.409,15.21-11.221,21.765
		c-4.818,6.56-10.451,12.318-16.906,17.028c-6.455,4.716-13.578,8.516-21.363,11.282c-7.79,2.766-15.883,4.181-24.282,4.181
		c-10.866,0-20.955-1.982-30.278-5.98c-9.327-3.995-17.419-9.413-24.283-16.28c-6.869-6.864-12.295-14.954-16.291-24.283
		c-3.996-9.32-5.995-19.409-5.995-30.273c0-10.653,1.999-20.695,5.995-30.124c3.996-9.423,9.422-17.568,16.291-24.436
		c6.864-6.863,14.956-12.295,24.283-16.292c9.323-3.995,19.412-5.993,30.278-5.993c10.652,0,20.694,1.998,30.123,5.993
		c9.423,3.997,17.569,9.429,24.438,16.292c6.863,6.867,12.132,15.014,16.128,24.437c3.996,9.429,5.831,19.472,5.831,30.125V878z"/>
	<path style="fill:#0CFFF4;" d="M564.456,827.099c-5.533-5.533-12.042-9.938-19.519-13.218c-7.482-3.275-15.422-4.918-23.821-4.918
		c-8.405,0-16.344,1.643-23.823,4.918c-7.483,3.28-13.986,7.685-19.519,13.218s-9.941,12.041-13.217,19.52
		c-3.281,7.482-4.918,15.421-4.918,23.822c0,8.405,1.638,16.344,4.918,23.822c3.276,7.483,7.684,13.985,13.217,19.518
		c5.533,5.535,12.036,9.941,19.519,13.22c7.479,3.28,15.417,4.916,23.823,4.916c8.399,0,16.339-1.636,23.821-4.916
		c7.478-3.278,13.986-7.685,19.519-13.22c5.534-5.532,9.938-12.034,13.218-19.518c3.276-7.479,4.918-15.417,4.918-23.822
		c0-8.401-1.643-16.34-4.918-23.822C574.394,839.14,569.99,832.632,564.456,827.099z"/>
	<path style="fill:#0CFFF4;" d="M1110.056,824.332c-5.534-4.712-11.786-8.453-18.751-11.22c-6.97-2.766-14.247-4.149-21.824-4.149
		c-7.791,0-15.116,1.384-21.979,4.149c-6.867,2.767-13.063,6.508-18.596,11.22c-5.532,4.717-10.096,10.524-13.679,17.182
		c-3.587,6.662-5.995,13.486-7.223,21.486h122.953c-1.23-8-3.642-14.824-7.224-21.486
		C1120.146,834.856,1115.586,829.049,1110.056,824.332z"/>
	<path style="fill:#0CFFF4;" d="M220.188,827.099c-5.533-5.533-12.041-9.938-19.519-13.218c-7.483-3.275-15.422-4.918-23.822-4.918
		c-8.405,0-16.344,1.643-23.822,4.918c-7.483,3.28-13.986,7.685-19.519,13.218c-5.532,5.533-9.941,12.041-13.217,19.52
		c-3.28,7.482-4.918,15.421-4.918,23.822c0,8.405,1.638,16.344,4.918,23.822c3.276,7.483,7.685,13.985,13.217,19.518
		c5.533,5.535,12.036,9.941,19.519,13.22c7.479,3.28,15.417,4.916,23.822,4.916c8.4,0,16.339-1.636,23.822-4.916
		c7.479-3.278,13.986-7.685,19.519-13.22c5.533-5.532,9.937-12.034,13.217-19.518c3.276-7.479,4.918-15.417,4.918-23.822
		c0-8.401-1.643-16.34-4.918-23.822C230.125,839.14,225.721,832.632,220.188,827.099z"/>
</g>
<g>
	<path style="fill:#FFFFFF;" d="M1146.975,562.84c-30.938,0-59.676-5.689-86.223-17.069c-26.563-11.38-49.608-26.836-69.153-46.394
		c-19.559-19.546-35.015-42.592-46.394-69.154c-11.38-26.547-17.07-55.284-17.07-86.223c0-30.337,5.69-58.937,17.07-85.786
		c11.379-26.834,26.835-50.031,46.394-69.591c19.545-19.545,42.591-35.014,69.153-46.394c26.547-11.38,55.285-17.07,86.223-17.07
		c29.762,0,57.774,5.69,84.036,17.07c26.259,11.38,49.458,26.849,69.59,46.394c20.134,19.56,36.026,42.756,47.708,69.591
		c11.666,26.849,17.507,55.449,17.507,85.786v297.622h-43.77V475.305c-19.845,26.261-45.229,47.42-76.155,63.464
		C1214.952,554.825,1181.989,562.84,1146.975,562.84z M1146.975,168.928c-23.936,0-46.544,4.677-67.841,14.006
		c-21.31,9.342-39.827,21.885-55.585,37.641c-15.756,15.757-28.312,34.29-37.641,55.585c-9.342,21.311-14.006,43.919-14.006,67.841
		c0,23.936,4.664,46.544,14.006,67.841c9.329,21.31,21.885,39.828,37.641,55.585c15.758,15.756,34.275,28.312,55.585,37.641
		c21.297,9.342,43.905,14.006,67.841,14.006c23.922,0,46.532-4.664,67.84-14.006c21.297-9.329,39.831-21.885,55.585-37.641
		c15.757-15.757,28.299-34.275,37.642-55.585c9.329-21.297,14.005-43.905,14.005-67.841c0-23.921-4.676-46.53-14.005-67.841
		c-9.343-21.295-21.885-39.828-37.642-55.585c-15.754-15.756-34.288-28.299-55.585-37.641
		C1193.507,173.605,1170.896,168.928,1146.975,168.928z"/>
	<path style="fill:#FFFFFF;" d="M1418.334,344c0-30.337,5.688-58.937,17.067-85.786c11.38-26.834,26.836-50.031,46.397-69.591
		c19.543-19.545,42.59-35.014,69.153-46.394c26.546-11.38,55.284-17.07,86.222-17.07c35.014,0,67.977,8.029,98.915,24.072
		c30.927,16.058,56.311,37.203,76.155,63.463V46.378h43.77V344c0,30.938-5.688,59.676-17.068,86.223
		c-11.379,26.563-26.85,49.608-46.396,69.154c-19.559,19.558-42.754,35.014-69.59,46.394c-26.85,11.38-55.45,17.069-85.785,17.069
		c-30.938,0-59.676-5.689-86.222-17.069c-26.563-11.38-49.61-26.836-69.153-46.394c-19.562-19.546-35.018-42.592-46.397-69.154
		C1424.021,403.676,1418.334,374.938,1418.334,344z M1462.103,344c0,23.936,4.661,46.544,14.005,67.841
		c9.328,21.31,21.885,39.828,37.642,55.585c15.755,15.756,34.274,28.312,55.585,37.641c21.294,9.342,43.904,14.006,67.84,14.006
		c23.921,0,46.531-4.664,67.84-14.006c21.296-9.329,39.83-21.885,55.584-37.641c15.758-15.757,28.299-34.275,37.643-55.585
		c9.328-21.297,14.004-43.905,14.004-67.841c0-23.921-4.676-46.53-14.004-67.841c-9.344-21.295-21.885-39.828-37.643-55.585
		c-15.754-15.756-34.288-28.299-55.584-37.641c-21.309-9.329-43.919-14.006-67.84-14.006c-23.936,0-46.546,4.677-67.84,14.006
		c-21.311,9.342-39.83,21.885-55.585,37.641c-15.757,15.757-28.313,34.29-37.642,55.585
		C1466.764,297.47,1462.103,320.079,1462.103,344z"/>
</g>
<g>
	<rect x="1190" y="703" style="fill:#A7F3FF;" width="116" height="116"/>
	<rect x="1323" y="782" style="fill:#4DD8FF;" width="105" height="105"/>
	<rect x="1178" y="911" style="fill:#4DD8FF;" width="118" height="115"/>
	<rect x="1363" y="915" style="fill:#A7F3FF;" width="94" height="94"/>
	<rect x="1457" y="695" style="fill:#A7F3FF;" width="95" height="95"/>
	<rect x="1532" y="811" style="fill:#4DD8FF;" width="83" height="83"/>
	<rect x="1492" y="957" style="fill:#4DD8FF;" width="81" height="83"/>
	<rect x="1605" y="915" style="fill:#A7F3FF;" width="69" height="70"/>
	<rect x="1634" y="762" style="fill:#A7F3FF;" width="81" height="85"/>
	<rect x="1743" y="716" style="fill:#4DD8FF;" width="70" height="72"/>
	<rect x="1813" y="918" style="fill:#A7F3FF;" width="58" height="62"/>
	<rect x="1715" y="879" style="fill:#4DD8FF;" width="69" height="72"/>
	<rect x="1842" y="829" style="fill:#A7F3FF;" width="58" height="58"/>
</g>
</svg>
