<?xml version="1.0" encoding="iso-8859-1"?>
<!-- Generator: Adobe Illustrator 16.0.0, SVG Export Plug-In . SVG Version: 6.00 Build 0)  -->
<!DOCTYPE svg PUBLIC "-//W3C//DTD SVG 1.1//EN" "http://www.w3.org/Graphics/SVG/1.1/DTD/svg11.dtd">
<svg version="1.1" id="Layer_1" xmlns="http://www.w3.org/2000/svg" xmlns:xlink="http://www.w3.org/1999/xlink" x="0px" y="0px"
	 width="1920px" height="300px" viewBox="0 0 1920 300" style="enable-background:new 0 0 1920 300;" xml:space="preserve">
<g>
	<rect x="1464" y="51" style="fill:#FF7900;" width="67" height="67"/>
	<rect x="1540" y="97" style="fill:#FFD400;" width="61" height="61"/>
	<rect x="1457" y="171" style="fill:#FFA800;" width="68" height="66"/>
	<rect x="1564" y="173" style="fill:#FF7900;" width="54" height="54"/>
	<rect x="1618" y="47" style="fill:#FFA800;" width="54" height="54"/>
	<rect x="1661" y="114" style="fill:#FFA800;" width="47" height="47"/>
	<rect x="1637" y="198" style="fill:#FFD400;" width="47" height="47"/>
	<rect x="1702" y="173" style="fill:#FF7900;" width="40" height="41"/>
	<rect x="1719" y="86" style="fill:#FF7900;" width="47" height="48"/>
	<rect x="1781" y="59" style="fill:#FFD400;" width="41" height="41"/>
	<rect x="1822" y="176" style="fill:#FFD400;" width="34" height="34"/>
	<rect x="1766" y="153" style="fill:#FFA800;" width="40" height="41"/>
	<rect x="1839" y="124" style="fill:#FFA800;" width="33" height="34"/>
	<rect x="1887" y="121" style="fill:#FFD400;" width="27" height="26"/>
	<rect x="1856" y="70" style="fill:#FF7900;" width="33" height="34"/>
</g>
<g>
	<path style="fill:#FF7900;" d="M622.905,109.5c8.531,0,16.065-2.266,22.6-6.8c6.531-4.531,11.331-10.6,14.4-18.2h11
		c-1.734,5.069-4.169,9.734-7.3,14c-3.135,4.269-6.8,7.935-11,11c-4.2,3.069-8.834,5.5-13.9,7.3c-5.068,1.8-10.334,2.7-15.8,2.7
		c-7.069,0-13.634-1.3-19.7-3.9c-6.068-2.6-11.334-6.131-15.8-10.6c-4.469-4.466-8-9.731-10.6-15.8c-2.6-6.066-3.9-12.631-3.9-19.7
		c0-6.931,1.3-13.466,3.9-19.6c2.6-6.131,6.131-11.431,10.6-15.9c4.466-4.466,9.731-8,15.8-10.6c6.066-2.6,12.631-3.9,19.7-3.9
		c6.931,0,13.466,1.3,19.6,3.9c6.131,2.6,11.431,6.134,15.9,10.6c4.466,4.469,8,9.769,10.6,15.9c2.6,6.134,3.9,12.669,3.9,19.6v5
		h-18h-72c0.8,5.069,2.366,9.734,4.7,14c2.331,4.269,5.3,7.935,8.9,11c3.6,3.069,7.631,5.5,12.1,7.3
		C613.071,108.6,617.836,109.5,622.905,109.5z M622.905,29.5c-5.069,0-9.834,0.9-14.3,2.7c-4.469,1.8-8.5,4.234-12.1,7.3
		c-3.6,3.069-6.569,6.769-8.9,11.1c-2.334,4.334-3.9,8.969-4.7,13.9h80c-0.8-4.931-2.369-9.565-4.7-13.9
		c-2.334-4.332-5.3-8.031-8.9-11.1c-3.6-3.065-7.668-5.5-12.2-7.3C632.571,30.4,627.836,29.5,622.905,29.5z"/>
	<path style="fill:#FF7900;" d="M734.904,19.5c6.801,0,13.201,1.334,19.201,4c6,2.669,11.299,6.3,15.899,10.9s8.231,9.9,10.899,15.9
		c2.666,6,4,12.4,4,19.2v50h-10v-50c0-5.466-1.068-10.631-3.199-15.5c-2.135-4.866-5-9.1-8.6-12.7
		c-3.601-3.6-7.835-6.465-12.701-8.6c-4.868-2.131-10.033-3.2-15.5-3.2c-5.469,0-10.634,1.069-15.5,3.2
		c-4.868,2.134-9.1,5-12.699,8.6c-3.6,3.6-6.469,7.834-8.6,12.7c-2.135,4.869-3.201,10.034-3.201,15.5v50h-10v-50
		c0-6.8,1.301-13.2,3.9-19.2s6.131-11.3,10.6-15.9c4.467-4.6,9.732-8.231,15.801-10.9C721.271,20.834,727.836,19.5,734.904,19.5z"/>
	<path style="fill:#FF7900;" d="M796.904,69.5c0-6.931,1.3-13.466,3.9-19.6c2.6-6.131,6.131-11.431,10.6-15.9
		c4.466-4.466,9.731-8,15.8-10.6c6.065-2.6,12.632-3.9,19.7-3.9c8,0,15.531,1.834,22.6,5.5c7.066,3.669,12.866,8.5,17.4,14.5v-38h10
		v68c0,7.069-1.3,13.634-3.9,19.7c-2.6,6.068-6.134,11.334-10.6,15.8c-4.469,4.469-9.769,8-15.9,10.6
		c-6.134,2.6-12.668,3.9-19.6,3.9c-7.068,0-13.635-1.3-19.7-3.9c-6.068-2.6-11.334-6.131-15.8-10.6c-4.469-4.466-8-9.731-10.6-15.8
		C798.204,83.134,796.904,76.569,796.904,69.5z M806.904,69.5c0,5.469,1.065,10.634,3.2,15.5c2.131,4.869,5,9.1,8.6,12.7
		c3.601,3.6,7.831,6.469,12.7,8.6c4.865,2.135,10.031,3.2,15.5,3.2c5.466,0,10.631-1.065,15.5-3.2c4.865-2.131,9.1-5,12.7-8.6
		c3.6-3.6,6.466-7.832,8.6-12.7c2.132-4.866,3.2-10.031,3.2-15.5c0-5.466-1.068-10.631-3.2-15.5c-2.134-4.866-5-9.1-8.6-12.7
		c-3.601-3.6-7.835-6.465-12.7-8.6c-4.869-2.131-10.034-3.2-15.5-3.2c-5.469,0-10.635,1.069-15.5,3.2c-4.869,2.134-9.1,5-12.7,8.6
		c-3.6,3.6-6.469,7.834-8.6,12.7C807.97,58.869,806.904,64.034,806.904,69.5z"/>
	<path style="fill:#FF7900;" d="M958.904,109.5c8.531,0,16.064-2.266,22.6-6.8c6.531-4.531,11.331-10.6,14.4-18.2h11
		c-1.734,5.069-4.17,9.734-7.301,14c-3.135,4.269-6.8,7.935-11,11c-4.199,3.069-8.834,5.5-13.9,7.3
		c-5.068,1.8-10.334,2.7-15.799,2.7c-7.069,0-13.635-1.3-19.701-3.9c-6.068-2.6-11.334-6.131-15.799-10.6
		c-4.469-4.466-8-9.731-10.601-15.8c-2.601-6.066-3.899-12.631-3.899-19.7c0-6.931,1.299-13.466,3.899-19.6
		c2.601-6.131,6.132-11.431,10.601-15.9c4.465-4.466,9.73-8,15.799-10.6c6.066-2.6,12.632-3.9,19.701-3.9
		c6.931,0,13.465,1.3,19.6,3.9c6.131,2.6,11.432,6.134,15.9,10.6c4.465,4.469,8,9.769,10.6,15.9c2.6,6.134,3.9,12.669,3.9,19.6v5
		h-18h-72c0.799,5.069,2.365,9.734,4.699,14c2.332,4.269,5.301,7.935,8.9,11c3.6,3.069,7.631,5.5,12.1,7.3
		C949.069,108.6,953.835,109.5,958.904,109.5z M958.904,29.5c-5.069,0-9.835,0.9-14.301,2.7c-4.469,1.8-8.5,4.234-12.1,7.3
		c-3.6,3.069-6.568,6.769-8.9,11.1c-2.334,4.334-3.9,8.969-4.699,13.9h80c-0.801-4.931-2.369-9.565-4.701-13.9
		c-2.334-4.332-5.299-8.031-8.899-11.1c-3.601-3.065-7.669-5.5-12.2-7.3C968.569,30.4,963.835,29.5,958.904,29.5z"/>
	<path style="fill:#FF7900;" d="M1030.703,119.5h-9.8v-100h9.8v87.2l90.2-90l6.8,6.8L1030.703,119.5z"/>
</g>
<g>
	<path style="fill:#FFD400;" d="M1172.491,119.5V1.5h10v118H1172.491z"/>
	<path style="fill:#FFD400;" d="M1194.488,11.5v-10h10v10H1194.488z M1194.488,119.5v-100h10v100H1194.488z"/>
	<path style="fill:#FFD400;" d="M1266.485,19.5c6.932,0,13.466,1.3,19.6,3.9c6.132,2.6,11.432,6.134,15.9,10.6
		c4.466,4.469,8,9.769,10.6,15.9c2.601,6.134,3.9,12.669,3.9,19.6c0,7.069-1.3,13.634-3.9,19.7c-2.6,6.068-6.134,11.334-10.6,15.8
		c-4.469,4.469-9.769,8-15.9,10.6c-6.134,2.601-12.668,3.9-19.6,3.9c-7.068,0-13.635-1.3-19.7-3.9
		c-6.068-2.6-11.334-6.131-15.8-10.6c-4.469-4.466-8-9.731-10.6-15.8c-2.601-6.066-3.9-12.631-3.9-19.7v-68h10v38
		c4.531-6,10.331-10.831,17.4-14.5C1250.951,21.334,1258.485,19.5,1266.485,19.5z M1266.485,109.5c5.466,0,10.631-1.065,15.5-3.2
		c4.865-2.131,9.1-5,12.7-8.6c3.6-3.601,6.466-7.832,8.6-12.7c2.132-4.866,3.2-10.031,3.2-15.5c0-5.466-1.068-10.631-3.2-15.5
		c-2.134-4.866-5-9.1-8.6-12.7c-3.601-3.6-7.835-6.465-12.7-8.6c-4.869-2.131-10.034-3.2-15.5-3.2c-5.469,0-10.635,1.069-15.5,3.2
		c-4.869,2.134-9.1,5-12.7,8.6c-3.6,3.6-6.469,7.834-8.6,12.7c-2.135,4.869-3.2,10.034-3.2,15.5c0,5.469,1.065,10.634,3.2,15.5
		c2.131,4.869,5,9.1,8.6,12.7c3.601,3.6,7.831,6.469,12.7,8.6C1255.851,108.435,1261.017,109.5,1266.485,109.5z"/>
	<path style="fill:#FFD400;" d="M1343.685,34.2c-3.469,3.134-5.199,7.234-5.199,12.3c0,5.069,1.73,9.334,5.199,12.8
		c3.466,3.469,7.731,5.2,12.801,5.2h22h23c3.73,0,7.23,0.7,10.5,2.1c3.266,1.4,6.131,3.334,8.6,5.8c2.465,2.469,4.4,5.334,5.8,8.6
		c1.399,3.269,2.101,6.769,2.101,10.5c0,3.734-0.701,7.3-2.101,10.7c-1.399,3.399-3.335,6.368-5.8,8.899
		c-2.469,2.535-5.334,4.569-8.6,6.101c-3.27,1.534-6.77,2.3-10.5,2.3h-73v-10h73c4.531,0,8.5-1.731,11.899-5.2
		c3.399-3.466,5.101-7.731,5.101-12.8c0-5.065-1.701-9.166-5.101-12.3c-3.399-3.131-7.368-4.7-11.899-4.7h-23h-22
		c-4,0-7.701-0.766-11.101-2.3c-3.399-1.531-6.368-3.566-8.899-6.1c-2.535-2.531-4.5-5.5-5.9-8.9c-1.4-3.4-2.1-6.966-2.1-10.7
		c0-3.731,0.699-7.231,2.1-10.5c1.4-3.266,3.365-6.131,5.9-8.6c2.531-2.465,5.5-4.4,8.899-5.8s7.101-2.1,11.101-2.1h72v10h-72
		C1351.416,29.5,1347.15,31.069,1343.685,34.2z"/>
</g>
<g>
	<path style="fill:#FFA800;" d="M30.795,180.945c-2.428,2.193-3.64,5.064-3.64,8.609c0,3.549,1.212,6.535,3.64,8.961
		c2.426,2.428,5.412,3.64,8.96,3.64h15.4h16.1c2.612,0,5.062,0.49,7.35,1.47c2.286,0.98,4.292,2.334,6.02,4.061
		c1.726,1.729,3.08,3.734,4.06,6.02c0.98,2.288,1.47,4.738,1.47,7.35c0,2.615-0.49,5.11-1.47,7.49
		c-0.98,2.381-2.334,4.459-4.06,6.23c-1.729,1.773-3.734,3.198-6.02,4.27c-2.288,1.074-4.738,1.61-7.35,1.61h-51.1v-7h51.1
		c3.172,0,5.95-1.212,8.33-3.64c2.38-2.426,3.57-5.412,3.57-8.961c0-3.545-1.19-6.416-3.57-8.609c-2.38-2.191-5.158-3.29-8.33-3.29
		h-16.1h-15.4c-2.8,0-5.39-0.536-7.77-1.61c-2.38-1.071-4.458-2.496-6.23-4.27c-1.774-1.771-3.15-3.85-4.13-6.23
		c-0.98-2.38-1.47-4.875-1.47-7.49c0-2.611,0.49-5.062,1.47-7.35c0.98-2.285,2.356-4.291,4.13-6.02
		c1.772-1.727,3.85-3.08,6.23-4.061c2.38-0.979,4.97-1.47,7.77-1.47h50.4v7h-50.4C36.207,177.655,33.221,178.754,30.795,180.945z"/>
	<path style="fill:#FFA800;" d="M133.555,240.655c-4.948,0-9.544-0.91-13.79-2.729c-4.248-1.82-7.934-4.293-11.06-7.42
		c-3.128-3.127-5.6-6.813-7.42-11.061c-1.82-4.246-2.73-8.842-2.73-13.79c0-4.853,0.91-9.426,2.73-13.72
		c1.82-4.292,4.292-8.002,7.42-11.131c3.126-3.125,6.812-5.6,11.06-7.42c4.246-1.819,8.842-2.729,13.79-2.729
		c4.76,0,9.24,0.91,13.44,2.729c4.2,1.82,7.91,4.295,11.13,7.42c3.22,3.129,5.762,6.839,7.63,11.131
		c1.866,4.294,2.8,8.867,2.8,13.72v47.601h-7v-26.601c-3.174,4.2-7.234,7.584-12.18,10.149
		C144.427,239.373,139.155,240.655,133.555,240.655z M133.555,177.655c-3.828,0-7.444,0.748-10.85,2.24
		c-3.408,1.493-6.37,3.5-8.89,6.02c-2.52,2.521-4.528,5.484-6.02,8.89c-1.494,3.408-2.24,7.024-2.24,10.851
		c0,3.828,0.746,7.444,2.24,10.851c1.492,3.408,3.5,6.369,6.02,8.89c2.52,2.52,5.482,4.528,8.89,6.02
		c3.406,1.494,7.022,2.24,10.85,2.24c3.826,0,7.442-0.746,10.85-2.24c3.406-1.491,6.37-3.5,8.89-6.02
		c2.52-2.521,4.526-5.481,6.02-8.89c1.492-3.406,2.24-7.022,2.24-10.851c0-3.826-0.748-7.442-2.24-10.851
		c-1.494-3.405-3.5-6.369-6.02-8.89c-2.52-2.52-5.484-4.526-8.89-6.02C140.997,178.403,137.381,177.655,133.555,177.655z"/>
	<path style="fill:#FFA800;" d="M176.954,240.655v-82.601h7v82.601H176.954z"/>
	<path style="fill:#FFA800;" d="M297.352,240.655c-4.948,0-9.544-0.91-13.79-2.729c-4.248-1.82-7.934-4.293-11.06-7.42
		c-3.128-3.127-5.6-6.813-7.42-11.061c-1.82-4.246-2.73-8.842-2.73-13.79v-35h7v35c0,3.828,0.746,7.444,2.24,10.851
		c1.492,3.408,3.5,6.369,6.02,8.89c2.52,2.52,5.482,4.528,8.89,6.02c3.406,1.494,7.022,2.24,10.85,2.24
		c3.826,0,7.442-0.746,10.85-2.24c3.406-1.491,6.37-3.5,8.89-6.02c2.52-2.521,4.526-5.481,6.02-8.89
		c1.492-3.406,2.24-7.022,2.24-10.851v-35h7v35c0,3.828,0.746,7.444,2.24,10.851c1.492,3.408,3.5,6.369,6.02,8.89
		c2.52,2.52,5.482,4.528,8.89,6.02c3.406,1.494,7.022,2.24,10.85,2.24c3.826,0,7.442-0.746,10.85-2.24
		c3.406-1.491,6.37-3.5,8.89-6.02c2.52-2.521,4.526-5.481,6.02-8.89c1.492-3.406,2.24-7.022,2.24-10.851v-35h7v35
		c0,4.948-0.934,9.544-2.8,13.79c-1.868,4.248-4.41,7.934-7.63,11.061c-3.22,3.127-6.93,5.6-11.13,7.42
		c-4.2,1.819-8.68,2.729-13.44,2.729c-3.548,0-6.908-0.49-10.08-1.47c-3.174-0.98-6.114-2.356-8.82-4.131
		c-2.708-1.771-5.134-3.85-7.28-6.229c-2.148-2.38-3.92-4.97-5.32-7.771c-1.4,2.801-3.198,5.391-5.39,7.771
		c-2.194,2.38-4.668,4.458-7.42,6.229c-2.754,1.774-5.718,3.15-8.89,4.131C303.978,240.165,300.712,240.655,297.352,240.655z"/>
	<path style="fill:#FFA800;" d="M438.751,170.655c4.76,0,9.24,0.91,13.44,2.729c4.2,1.82,7.91,4.295,11.13,7.42
		c3.22,3.129,5.762,6.839,7.63,11.131c1.866,4.294,2.8,8.867,2.8,13.72h-7c0-3.826-0.748-7.442-2.24-10.851
		c-1.494-3.405-3.5-6.369-6.02-8.89c-2.52-2.52-5.484-4.526-8.89-6.02c-3.408-1.492-7.024-2.24-10.85-2.24
		c-3.828,0-7.444,0.748-10.85,2.24c-3.408,1.493-6.37,3.5-8.89,6.02c-2.52,2.521-4.528,5.484-6.02,8.89
		c-1.494,3.408-2.24,7.024-2.24,10.851v35h-7v-35c0-4.853,0.91-9.426,2.73-13.72c1.82-4.292,4.292-8.002,7.42-11.131
		c3.126-3.125,6.812-5.6,11.06-7.42C429.208,171.565,433.803,170.655,438.751,170.655z"/>
	<path style="fill:#FFA800;" d="M517.151,170.655c4.852,0,9.426,0.91,13.72,2.729c4.292,1.82,8.001,4.295,11.13,7.42
		c3.126,3.129,5.6,6.839,7.42,11.131c1.82,4.294,2.73,8.867,2.73,13.72v35h-7v-14c-3.174,4.2-7.234,7.584-12.18,10.149
		c-4.948,2.568-10.22,3.851-15.82,3.851c-4.948,0-9.544-0.91-13.79-2.729c-4.248-1.82-7.934-4.293-11.06-7.42
		c-3.128-3.127-5.6-6.813-7.42-11.061c-1.82-4.246-2.73-8.842-2.73-13.79c0-4.853,0.91-9.426,2.73-13.72
		c1.82-4.292,4.292-8.002,7.42-11.131c3.126-3.125,6.812-5.6,11.06-7.42C507.607,171.565,512.203,170.655,517.151,170.655z
		 M517.151,233.655c3.826,0,7.442-0.746,10.85-2.24c3.406-1.491,6.37-3.5,8.89-6.02c2.52-2.521,4.526-5.481,6.02-8.89
		c1.492-3.406,2.24-7.022,2.24-10.851c0-3.826-0.748-7.442-2.24-10.851c-1.494-3.405-3.5-6.369-6.02-8.89
		c-2.52-2.52-5.484-4.526-8.89-6.02c-3.408-1.492-7.024-2.24-10.85-2.24c-3.828,0-7.444,0.748-10.85,2.24
		c-3.408,1.493-6.37,3.5-8.89,6.02c-2.52,2.521-4.528,5.484-6.02,8.89c-1.494,3.408-2.24,7.024-2.24,10.851
		c0,3.828,0.746,7.444,2.24,10.851c1.492,3.408,3.5,6.369,6.02,8.89c2.52,2.52,5.482,4.528,8.89,6.02
		C509.708,232.909,513.323,233.655,517.151,233.655z"/>
	<path style="fill:#FFA800;" d="M630.551,205.655c0,4.948-0.934,9.544-2.8,13.79c-1.868,4.248-4.41,7.934-7.63,11.061
		c-3.22,3.127-6.93,5.6-11.13,7.42c-4.2,1.819-8.68,2.729-13.44,2.729c-5.974,0-11.34-1.282-16.1-3.851
		c-4.76-2.565-8.728-5.949-11.9-10.149v26.601h-7v-47.601c0-4.853,0.91-9.426,2.73-13.72c1.82-4.292,4.292-8.002,7.42-11.131
		c3.126-3.125,6.812-5.6,11.06-7.42c4.246-1.819,8.842-2.729,13.79-2.729c4.76,0,9.24,0.91,13.44,2.729
		c4.2,1.82,7.91,4.295,11.13,7.42c3.22,3.129,5.762,6.839,7.63,11.131C629.617,196.229,630.551,200.803,630.551,205.655z
		 M623.551,205.655c0-3.826-0.748-7.442-2.24-10.851c-1.494-3.405-3.5-6.369-6.02-8.89c-2.52-2.52-5.484-4.526-8.89-6.02
		c-3.408-1.492-7.024-2.24-10.85-2.24c-3.828,0-7.444,0.748-10.85,2.24c-3.408,1.493-6.37,3.5-8.89,6.02
		c-2.52,2.521-4.528,5.484-6.02,8.89c-1.494,3.408-2.24,7.024-2.24,10.851c0,3.828,0.746,7.444,2.24,10.851
		c1.492,3.408,3.5,6.369,6.02,8.89c2.52,2.52,5.482,4.528,8.89,6.02c3.406,1.494,7.022,2.24,10.85,2.24
		c3.826,0,7.442-0.746,10.85-2.24c3.406-1.491,6.37-3.5,8.89-6.02c2.52-2.521,4.526-5.481,6.02-8.89
		C622.803,213.1,623.551,209.483,623.551,205.655z"/>
	<path style="fill:#FFA800;" d="M708.95,205.655c0,4.948-0.934,9.544-2.8,13.79c-1.868,4.248-4.41,7.934-7.63,11.061
		c-3.22,3.127-6.93,5.6-11.13,7.42c-4.2,1.819-8.68,2.729-13.44,2.729c-5.974,0-11.34-1.282-16.1-3.851
		c-4.76-2.565-8.728-5.949-11.9-10.149v26.601h-7v-47.601c0-4.853,0.91-9.426,2.73-13.72c1.82-4.292,4.292-8.002,7.42-11.131
		c3.126-3.125,6.812-5.6,11.06-7.42c4.246-1.819,8.842-2.729,13.79-2.729c4.76,0,9.24,0.91,13.44,2.729
		c4.2,1.82,7.91,4.295,11.13,7.42c3.22,3.129,5.762,6.839,7.63,11.131C708.016,196.229,708.95,200.803,708.95,205.655z
		 M701.95,205.655c0-3.826-0.748-7.442-2.24-10.851c-1.494-3.405-3.5-6.369-6.02-8.89c-2.52-2.52-5.484-4.526-8.89-6.02
		c-3.408-1.492-7.024-2.24-10.85-2.24c-3.828,0-7.444,0.748-10.85,2.24c-3.408,1.493-6.37,3.5-8.89,6.02
		c-2.52,2.521-4.528,5.484-6.02,8.89c-1.494,3.408-2.24,7.024-2.24,10.851c0,3.828,0.746,7.444,2.24,10.851
		c1.492,3.408,3.5,6.369,6.02,8.89c2.52,2.52,5.482,4.528,8.89,6.02c3.406,1.494,7.022,2.24,10.85,2.24
		c3.826,0,7.442-0.746,10.85-2.24c3.406-1.491,6.37-3.5,8.89-6.02c2.52-2.521,4.526-5.481,6.02-8.89
		C701.202,213.1,701.95,209.483,701.95,205.655z"/>
	<path style="fill:#FFA800;" d="M752.35,233.655c5.972,0,11.246-1.586,15.82-4.76c4.572-3.172,7.932-7.421,10.08-12.74h7.7
		c-1.214,3.548-2.918,6.813-5.11,9.8c-2.194,2.988-4.76,5.555-7.7,7.7c-2.94,2.147-6.184,3.851-9.73,5.11
		c-3.548,1.26-7.234,1.89-11.06,1.89c-4.948,0-9.544-0.91-13.79-2.729c-4.248-1.82-7.934-4.293-11.06-7.42
		c-3.128-3.127-5.6-6.813-7.42-11.061c-1.82-4.246-2.73-8.842-2.73-13.79c0-4.853,0.91-9.426,2.73-13.72
		c1.82-4.292,4.292-8.002,7.42-11.131c3.126-3.125,6.812-5.6,11.06-7.42c4.246-1.819,8.842-2.729,13.79-2.729
		c4.852,0,9.426,0.91,13.72,2.729c4.292,1.82,8.001,4.295,11.13,7.42c3.126,3.129,5.6,6.839,7.42,11.131
		c1.82,4.294,2.73,8.867,2.73,13.72v3.5h-12.6h-50.4c0.56,3.548,1.656,6.813,3.29,9.8c1.632,2.988,3.71,5.555,6.23,7.7
		c2.52,2.147,5.342,3.851,8.47,5.11C745.465,233.025,748.801,233.655,752.35,233.655z M752.35,177.655
		c-3.548,0-6.884,0.63-10.01,1.89c-3.128,1.26-5.95,2.965-8.47,5.11c-2.52,2.147-4.598,4.738-6.23,7.771
		c-1.634,3.033-2.73,6.277-3.29,9.729h56c-0.56-3.452-1.658-6.696-3.29-9.729c-1.634-3.032-3.71-5.623-6.23-7.771
		c-2.52-2.146-5.368-3.851-8.54-5.11C759.116,178.285,755.801,177.655,752.35,177.655z"/>
	<path style="fill:#FFA800;" d="M830.749,170.655c4.76,0,9.24,0.91,13.44,2.729c4.2,1.82,7.91,4.295,11.13,7.42
		c3.22,3.129,5.762,6.839,7.63,11.131c1.866,4.294,2.8,8.867,2.8,13.72h-7c0-3.826-0.748-7.442-2.24-10.851
		c-1.494-3.405-3.5-6.369-6.02-8.89c-2.52-2.52-5.484-4.526-8.89-6.02c-3.408-1.492-7.024-2.24-10.85-2.24
		c-3.828,0-7.444,0.748-10.85,2.24c-3.408,1.493-6.37,3.5-8.89,6.02c-2.52,2.521-4.528,5.484-6.02,8.89
		c-1.494,3.408-2.24,7.024-2.24,10.851v35h-7v-35c0-4.853,0.91-9.426,2.73-13.72c1.82-4.292,4.292-8.002,7.42-11.131
		c3.126-3.125,6.812-5.6,11.06-7.42C821.205,171.565,825.801,170.655,830.749,170.655z"/>
	<path style="fill:#FFA800;" d="M874.148,202.155h70v7h-70V202.155z"/>
	<path style="fill:#FFA800;" d="M987.548,233.655c3.36,0,6.486-0.536,9.38-1.61c2.892-1.071,5.53-2.541,7.91-4.41
		c2.38-1.865,4.432-4.082,6.16-6.649c1.726-2.565,3.01-5.342,3.85-8.33h7c-0.84,4.015-2.334,7.724-4.479,11.13
		c-2.148,3.408-4.715,6.37-7.7,8.891c-2.988,2.52-6.37,4.479-10.15,5.879c-3.779,1.4-7.77,2.101-11.97,2.101
		c-4.948,0-9.544-0.91-13.79-2.729c-4.248-1.82-7.934-4.293-11.06-7.42c-3.129-3.127-5.601-6.813-7.42-11.061
		c-1.82-4.246-2.73-8.842-2.73-13.79c0-4.853,0.91-9.426,2.73-13.72c1.819-4.292,4.291-8.002,7.42-11.131
		c3.126-3.125,6.812-5.6,11.06-7.42c4.246-1.819,8.842-2.729,13.79-2.729c4.2,0,8.19,0.7,11.97,2.101
		c3.78,1.399,7.162,3.359,10.15,5.879c2.985,2.521,5.552,5.484,7.7,8.891c2.146,3.408,3.64,7.118,4.479,11.13h-7
		c-0.84-2.985-2.124-5.762-3.85-8.33c-1.729-2.565-3.78-4.782-6.16-6.649c-2.38-1.866-5.019-3.336-7.91-4.41
		c-2.894-1.072-6.02-1.61-9.38-1.61c-3.828,0-7.444,0.748-10.85,2.24c-3.408,1.493-6.37,3.5-8.891,6.02
		c-2.52,2.521-4.528,5.484-6.02,8.89c-1.494,3.408-2.24,7.024-2.24,10.851c0,3.828,0.746,7.444,2.24,10.851
		c1.491,3.408,3.5,6.369,6.02,8.89c2.521,2.52,5.482,4.528,8.891,6.02C980.104,232.909,983.72,233.655,987.548,233.655z"/>
	<path style="fill:#FFA800;" d="M1030.247,240.655v-82.601h7v82.601H1030.247z"/>
	<path style="fill:#FFA800;" d="M1080.646,170.655c4.852,0,9.426,0.91,13.72,2.729c4.292,1.82,8.002,4.295,11.13,7.42
		c3.126,3.129,5.601,6.839,7.42,11.131c1.82,4.294,2.73,8.867,2.73,13.72v35h-7v-14c-3.174,4.2-7.234,7.584-12.18,10.149
		c-4.948,2.568-10.221,3.851-15.82,3.851c-4.948,0-9.544-0.91-13.79-2.729c-4.248-1.82-7.934-4.293-11.06-7.42
		c-3.129-3.127-5.601-6.813-7.42-11.061c-1.82-4.246-2.73-8.842-2.73-13.79c0-4.853,0.91-9.426,2.73-13.72
		c1.819-4.292,4.291-8.002,7.42-11.131c3.126-3.125,6.812-5.6,11.06-7.42C1071.102,171.565,1075.697,170.655,1080.646,170.655z
		 M1080.646,233.655c3.826,0,7.441-0.746,10.85-2.24c3.406-1.491,6.37-3.5,8.891-6.02c2.52-2.521,4.525-5.481,6.02-8.89
		c1.492-3.406,2.24-7.022,2.24-10.851c0-3.826-0.748-7.442-2.24-10.851c-1.494-3.405-3.5-6.369-6.02-8.89
		c-2.521-2.52-5.484-4.526-8.891-6.02c-3.408-1.492-7.023-2.24-10.85-2.24c-3.828,0-7.444,0.748-10.85,2.24
		c-3.408,1.493-6.37,3.5-8.891,6.02c-2.52,2.521-4.528,5.484-6.02,8.89c-1.494,3.408-2.24,7.024-2.24,10.851
		c0,3.828,0.746,7.444,2.24,10.851c1.491,3.408,3.5,6.369,6.02,8.89c2.521,2.52,5.482,4.528,8.891,6.02
		C1073.201,232.909,1076.817,233.655,1080.646,233.655z"/>
	<path style="fill:#FFA800;" d="M1134.685,180.945c-2.428,2.193-3.64,5.064-3.64,8.609c0,3.549,1.212,6.535,3.64,8.961
		c2.427,2.428,5.412,3.64,8.96,3.64h15.4h16.1c2.612,0,5.063,0.49,7.351,1.47c2.286,0.98,4.292,2.334,6.02,4.061
		c1.727,1.729,3.08,3.734,4.061,6.02c0.979,2.288,1.47,4.738,1.47,7.35c0,2.615-0.49,5.11-1.47,7.49
		c-0.98,2.381-2.334,4.459-4.061,6.23c-1.728,1.773-3.733,3.198-6.02,4.27c-2.288,1.074-4.738,1.61-7.351,1.61h-51.1v-7h51.1
		c3.172,0,5.95-1.212,8.33-3.64c2.38-2.426,3.57-5.412,3.57-8.961c0-3.545-1.19-6.416-3.57-8.609c-2.38-2.191-5.158-3.29-8.33-3.29
		h-16.1h-15.4c-2.8,0-5.39-0.536-7.77-1.61c-2.38-1.071-4.458-2.496-6.23-4.27c-1.773-1.771-3.149-3.85-4.13-6.23
		c-0.979-2.38-1.47-4.875-1.47-7.49c0-2.611,0.49-5.062,1.47-7.35c0.98-2.285,2.356-4.291,4.13-6.02
		c1.772-1.727,3.851-3.08,6.23-4.061c2.38-0.979,4.97-1.47,7.77-1.47h50.4v7h-50.4
		C1140.097,177.655,1137.111,178.754,1134.685,180.945z"/>
	<path style="fill:#FFA800;" d="M1213.084,180.945c-2.428,2.193-3.64,5.064-3.64,8.609c0,3.549,1.212,6.535,3.64,8.961
		c2.427,2.428,5.412,3.64,8.96,3.64h15.4h16.1c2.612,0,5.063,0.49,7.351,1.47c2.286,0.98,4.292,2.334,6.02,4.061
		c1.727,1.729,3.08,3.734,4.061,6.02c0.979,2.288,1.47,4.738,1.47,7.35c0,2.615-0.49,5.11-1.47,7.49
		c-0.98,2.381-2.334,4.459-4.061,6.23c-1.728,1.773-3.733,3.198-6.02,4.27c-2.288,1.074-4.738,1.61-7.351,1.61h-51.1v-7h51.1
		c3.172,0,5.95-1.212,8.33-3.64c2.38-2.426,3.57-5.412,3.57-8.961c0-3.545-1.19-6.416-3.57-8.609c-2.38-2.191-5.158-3.29-8.33-3.29
		h-16.1h-15.4c-2.8,0-5.39-0.536-7.77-1.61c-2.38-1.071-4.458-2.496-6.23-4.27c-1.773-1.771-3.149-3.85-4.13-6.23
		c-0.979-2.38-1.47-4.875-1.47-7.49c0-2.611,0.49-5.062,1.47-7.35c0.98-2.285,2.356-4.291,4.13-6.02
		c1.772-1.727,3.851-3.08,6.23-4.061c2.38-0.979,4.97-1.47,7.77-1.47h50.4v7h-50.4
		C1218.496,177.655,1215.511,178.754,1213.084,180.945z"/>
	<path style="fill:#FFA800;" d="M1315.844,233.655c5.972,0,11.246-1.586,15.82-4.76c4.571-3.172,7.932-7.421,10.08-12.74h7.699
		c-1.214,3.548-2.918,6.813-5.109,9.8c-2.194,2.988-4.76,5.555-7.7,7.7c-2.94,2.147-6.185,3.851-9.73,5.11
		c-3.548,1.26-7.233,1.89-11.06,1.89c-4.948,0-9.544-0.91-13.79-2.729c-4.248-1.82-7.934-4.293-11.06-7.42
		c-3.129-3.127-5.601-6.813-7.42-11.061c-1.82-4.246-2.73-8.842-2.73-13.79c0-4.853,0.91-9.426,2.73-13.72
		c1.819-4.292,4.291-8.002,7.42-11.131c3.126-3.125,6.812-5.6,11.06-7.42c4.246-1.819,8.842-2.729,13.79-2.729
		c4.852,0,9.426,0.91,13.72,2.729c4.292,1.82,8.002,4.295,11.13,7.42c3.126,3.129,5.601,6.839,7.42,11.131
		c1.82,4.294,2.73,8.867,2.73,13.72v3.5h-12.6h-50.4c0.56,3.548,1.656,6.813,3.29,9.8c1.632,2.988,3.71,5.555,6.229,7.7
		c2.521,2.147,5.343,3.851,8.471,5.11C1308.96,233.025,1312.296,233.655,1315.844,233.655z M1315.844,177.655
		c-3.548,0-6.884,0.63-10.01,1.89c-3.128,1.26-5.95,2.965-8.471,5.11c-2.52,2.147-4.598,4.738-6.229,7.771
		c-1.634,3.033-2.73,6.277-3.29,9.729h56c-0.56-3.452-1.658-6.696-3.29-9.729c-1.634-3.032-3.71-5.623-6.229-7.771
		c-2.521-2.146-5.368-3.851-8.54-5.11C1322.609,178.285,1319.296,177.655,1315.844,177.655z"/>
	<path style="fill:#FFA800;" d="M1369.883,180.945c-2.428,2.193-3.64,5.064-3.64,8.609c0,3.549,1.212,6.535,3.64,8.961
		c2.427,2.428,5.412,3.64,8.96,3.64h15.4h16.1c2.612,0,5.063,0.49,7.351,1.47c2.286,0.98,4.292,2.334,6.02,4.061
		c1.727,1.729,3.08,3.734,4.061,6.02c0.979,2.288,1.47,4.738,1.47,7.35c0,2.615-0.49,5.11-1.47,7.49
		c-0.98,2.381-2.334,4.459-4.061,6.23c-1.728,1.773-3.733,3.198-6.02,4.27c-2.288,1.074-4.738,1.61-7.351,1.61h-51.1v-7h51.1
		c3.172,0,5.95-1.212,8.33-3.64c2.38-2.426,3.57-5.412,3.57-8.961c0-3.545-1.19-6.416-3.57-8.609c-2.38-2.191-5.158-3.29-8.33-3.29
		h-16.1h-15.4c-2.8,0-5.39-0.536-7.77-1.61c-2.38-1.071-4.458-2.496-6.23-4.27c-1.773-1.771-3.149-3.85-4.13-6.23
		c-0.979-2.38-1.47-4.875-1.47-7.49c0-2.611,0.49-5.062,1.47-7.35c0.98-2.285,2.356-4.291,4.13-6.02
		c1.772-1.727,3.851-3.08,6.23-4.061c2.38-0.979,4.97-1.47,7.77-1.47h50.4v7h-50.4
		C1375.295,177.655,1372.31,178.754,1369.883,180.945z"/>
</g>
</svg>
