<?xml version="1.0" encoding="iso-8859-1"?>
<!-- Generator: Adobe Illustrator 16.0.0, SVG Export Plug-In . SVG Version: 6.00 Build 0)  -->
<!DOCTYPE svg PUBLIC "-//W3C//DTD SVG 1.1//EN" "http://www.w3.org/Graphics/SVG/1.1/DTD/svg11.dtd">
<svg version="1.1" id="Layer_1" xmlns="http://www.w3.org/2000/svg" xmlns:xlink="http://www.w3.org/1999/xlink" x="0px" y="0px"
	 width="1920px" height="300px" viewBox="0 0 1920 300" style="enable-background:new 0 0 1920 300;" xml:space="preserve">
<g>
	<rect x="1464" y="51" style="fill:#FF7900;" width="67" height="67"/>
	<rect x="1540" y="97" style="fill:#FFD400;" width="61" height="61"/>
	<rect x="1457" y="171" style="fill:#FFA800;" width="68" height="66"/>
	<rect x="1564" y="173" style="fill:#FF7900;" width="54" height="54"/>
	<rect x="1618" y="47" style="fill:#FFA800;" width="54" height="54"/>
	<rect x="1661" y="114" style="fill:#FFA800;" width="47" height="47"/>
	<rect x="1637" y="198" style="fill:#FFD400;" width="47" height="47"/>
	<rect x="1702" y="173" style="fill:#FF7900;" width="40" height="41"/>
	<rect x="1719" y="86" style="fill:#FF7900;" width="47" height="48"/>
	<rect x="1781" y="59" style="fill:#FFD400;" width="41" height="41"/>
	<rect x="1822" y="176" style="fill:#FFD400;" width="34" height="34"/>
	<rect x="1766" y="153" style="fill:#FFA800;" width="40" height="41"/>
	<rect x="1839" y="124" style="fill:#FFA800;" width="33" height="34"/>
	<rect x="1887" y="121" style="fill:#FFD400;" width="27" height="26"/>
	<rect x="1856" y="70" style="fill:#FF7900;" width="33" height="34"/>
</g>
<g>
	<path style="fill:#FF7900;" d="M622.905,109.5c8.531,0,16.065-2.266,22.6-6.8c6.531-4.531,11.331-10.6,14.4-18.2h11
		c-1.734,5.069-4.169,9.734-7.3,14c-3.135,4.269-6.8,7.935-11,11c-4.2,3.069-8.834,5.5-13.9,7.3c-5.068,1.8-10.334,2.7-15.8,2.7
		c-7.069,0-13.634-1.3-19.7-3.9c-6.068-2.6-11.334-6.131-15.8-10.6c-4.469-4.466-8-9.731-10.6-15.8c-2.6-6.066-3.9-12.631-3.9-19.7
		c0-6.931,1.3-13.466,3.9-19.6c2.6-6.131,6.131-11.431,10.6-15.9c4.466-4.466,9.731-8,15.8-10.6c6.066-2.6,12.631-3.9,19.7-3.9
		c6.931,0,13.466,1.3,19.6,3.9c6.131,2.6,11.431,6.134,15.9,10.6c4.466,4.469,8,9.769,10.6,15.9c2.6,6.134,3.9,12.669,3.9,19.6v5
		h-18h-72c0.8,5.069,2.366,9.734,4.7,14c2.331,4.269,5.3,7.935,8.9,11c3.6,3.069,7.631,5.5,12.1,7.3
		C613.071,108.6,617.836,109.5,622.905,109.5z M622.905,29.5c-5.069,0-9.834,0.9-14.3,2.7c-4.469,1.8-8.5,4.234-12.1,7.3
		c-3.6,3.069-6.569,6.769-8.9,11.1c-2.334,4.334-3.9,8.969-4.7,13.9h80c-0.8-4.931-2.369-9.565-4.7-13.9
		c-2.334-4.332-5.3-8.031-8.9-11.1c-3.6-3.065-7.668-5.5-12.2-7.3C632.571,30.4,627.836,29.5,622.905,29.5z"/>
	<path style="fill:#FF7900;" d="M734.904,19.5c6.801,0,13.201,1.334,19.201,4c6,2.669,11.299,6.3,15.899,10.9s8.231,9.9,10.899,15.9
		c2.666,6,4,12.4,4,19.2v50h-10v-50c0-5.466-1.068-10.631-3.199-15.5c-2.135-4.866-5-9.1-8.6-12.7
		c-3.601-3.6-7.835-6.465-12.701-8.6c-4.868-2.131-10.033-3.2-15.5-3.2c-5.469,0-10.634,1.069-15.5,3.2
		c-4.868,2.134-9.1,5-12.699,8.6c-3.6,3.6-6.469,7.834-8.6,12.7c-2.135,4.869-3.201,10.034-3.201,15.5v50h-10v-50
		c0-6.8,1.301-13.2,3.9-19.2s6.131-11.3,10.6-15.9c4.467-4.6,9.732-8.231,15.801-10.9C721.271,20.834,727.836,19.5,734.904,19.5z"/>
	<path style="fill:#FF7900;" d="M796.904,69.5c0-6.931,1.3-13.466,3.9-19.6c2.6-6.131,6.131-11.431,10.6-15.9
		c4.466-4.466,9.731-8,15.8-10.6c6.065-2.6,12.632-3.9,19.7-3.9c8,0,15.531,1.834,22.6,5.5c7.066,3.669,12.866,8.5,17.4,14.5v-38h10
		v68c0,7.069-1.3,13.634-3.9,19.7c-2.6,6.068-6.134,11.334-10.6,15.8c-4.469,4.469-9.769,8-15.9,10.6
		c-6.134,2.6-12.668,3.9-19.6,3.9c-7.068,0-13.635-1.3-19.7-3.9c-6.068-2.6-11.334-6.131-15.8-10.6c-4.469-4.466-8-9.731-10.6-15.8
		C798.204,83.134,796.904,76.569,796.904,69.5z M806.904,69.5c0,5.469,1.065,10.634,3.2,15.5c2.131,4.869,5,9.1,8.6,12.7
		c3.601,3.6,7.831,6.469,12.7,8.6c4.865,2.135,10.031,3.2,15.5,3.2c5.466,0,10.631-1.065,15.5-3.2c4.865-2.131,9.1-5,12.7-8.6
		c3.6-3.6,6.466-7.832,8.6-12.7c2.132-4.866,3.2-10.031,3.2-15.5c0-5.466-1.068-10.631-3.2-15.5c-2.134-4.866-5-9.1-8.6-12.7
		c-3.601-3.6-7.835-6.465-12.7-8.6c-4.869-2.131-10.034-3.2-15.5-3.2c-5.469,0-10.635,1.069-15.5,3.2c-4.869,2.134-9.1,5-12.7,8.6
		c-3.6,3.6-6.469,7.834-8.6,12.7C807.97,58.869,806.904,64.034,806.904,69.5z"/>
	<path style="fill:#FF7900;" d="M958.904,109.5c8.531,0,16.064-2.266,22.6-6.8c6.531-4.531,11.331-10.6,14.4-18.2h11
		c-1.734,5.069-4.17,9.734-7.301,14c-3.135,4.269-6.8,7.935-11,11c-4.199,3.069-8.834,5.5-13.9,7.3
		c-5.068,1.8-10.334,2.7-15.799,2.7c-7.069,0-13.635-1.3-19.701-3.9c-6.068-2.6-11.334-6.131-15.799-10.6
		c-4.469-4.466-8-9.731-10.601-15.8c-2.601-6.066-3.899-12.631-3.899-19.7c0-6.931,1.299-13.466,3.899-19.6
		c2.601-6.131,6.132-11.431,10.601-15.9c4.465-4.466,9.73-8,15.799-10.6c6.066-2.6,12.632-3.9,19.701-3.9
		c6.931,0,13.465,1.3,19.6,3.9c6.131,2.6,11.432,6.134,15.9,10.6c4.465,4.469,8,9.769,10.6,15.9c2.6,6.134,3.9,12.669,3.9,19.6v5
		h-18h-72c0.799,5.069,2.365,9.734,4.699,14c2.332,4.269,5.301,7.935,8.9,11c3.6,3.069,7.631,5.5,12.1,7.3
		C949.069,108.6,953.835,109.5,958.904,109.5z M958.904,29.5c-5.069,0-9.835,0.9-14.301,2.7c-4.469,1.8-8.5,4.234-12.1,7.3
		c-3.6,3.069-6.568,6.769-8.9,11.1c-2.334,4.334-3.9,8.969-4.699,13.9h80c-0.801-4.931-2.369-9.565-4.701-13.9
		c-2.334-4.332-5.299-8.031-8.899-11.1c-3.601-3.065-7.669-5.5-12.2-7.3C968.569,30.4,963.835,29.5,958.904,29.5z"/>
	<path style="fill:#FF7900;" d="M1030.703,119.5h-9.8v-100h9.8v87.2l90.2-90l6.8,6.8L1030.703,119.5z"/>
</g>
<g>
	<path style="fill:#FFD400;" d="M1172.491,119.5V1.5h10v118H1172.491z"/>
	<path style="fill:#FFD400;" d="M1194.488,11.5v-10h10v10H1194.488z M1194.488,119.5v-100h10v100H1194.488z"/>
	<path style="fill:#FFD400;" d="M1266.485,19.5c6.932,0,13.466,1.3,19.6,3.9c6.132,2.6,11.432,6.134,15.9,10.6
		c4.466,4.469,8,9.769,10.6,15.9c2.601,6.134,3.9,12.669,3.9,19.6c0,7.069-1.3,13.634-3.9,19.7c-2.6,6.068-6.134,11.334-10.6,15.8
		c-4.469,4.469-9.769,8-15.9,10.6c-6.134,2.601-12.668,3.9-19.6,3.9c-7.068,0-13.635-1.3-19.7-3.9
		c-6.068-2.6-11.334-6.131-15.8-10.6c-4.469-4.466-8-9.731-10.6-15.8c-2.601-6.066-3.9-12.631-3.9-19.7v-68h10v38
		c4.531-6,10.331-10.831,17.4-14.5C1250.951,21.334,1258.485,19.5,1266.485,19.5z M1266.485,109.5c5.466,0,10.631-1.065,15.5-3.2
		c4.865-2.131,9.1-5,12.7-8.6c3.6-3.601,6.466-7.832,8.6-12.7c2.132-4.866,3.2-10.031,3.2-15.5c0-5.466-1.068-10.631-3.2-15.5
		c-2.134-4.866-5-9.1-8.6-12.7c-3.601-3.6-7.835-6.465-12.7-8.6c-4.869-2.131-10.034-3.2-15.5-3.2c-5.469,0-10.635,1.069-15.5,3.2
		c-4.869,2.134-9.1,5-12.7,8.6c-3.6,3.6-6.469,7.834-8.6,12.7c-2.135,4.869-3.2,10.034-3.2,15.5c0,5.469,1.065,10.634,3.2,15.5
		c2.131,4.869,5,9.1,8.6,12.7c3.601,3.6,7.831,6.469,12.7,8.6C1255.851,108.435,1261.017,109.5,1266.485,109.5z"/>
	<path style="fill:#FFD400;" d="M1343.685,34.2c-3.469,3.134-5.199,7.234-5.199,12.3c0,5.069,1.73,9.334,5.199,12.8
		c3.466,3.469,7.731,5.2,12.801,5.2h22h23c3.73,0,7.23,0.7,10.5,2.1c3.266,1.4,6.131,3.334,8.6,5.8c2.465,2.469,4.4,5.334,5.8,8.6
		c1.399,3.269,2.101,6.769,2.101,10.5c0,3.734-0.701,7.3-2.101,10.7c-1.399,3.399-3.335,6.368-5.8,8.899
		c-2.469,2.535-5.334,4.569-8.6,6.101c-3.27,1.534-6.77,2.3-10.5,2.3h-73v-10h73c4.531,0,8.5-1.731,11.899-5.2
		c3.399-3.466,5.101-7.731,5.101-12.8c0-5.065-1.701-9.166-5.101-12.3c-3.399-3.131-7.368-4.7-11.899-4.7h-23h-22
		c-4,0-7.701-0.766-11.101-2.3c-3.399-1.531-6.368-3.566-8.899-6.1c-2.535-2.531-4.5-5.5-5.9-8.9c-1.4-3.4-2.1-6.966-2.1-10.7
		c0-3.731,0.699-7.231,2.1-10.5c1.4-3.266,3.365-6.131,5.9-8.6c2.531-2.465,5.5-4.4,8.899-5.8s7.101-2.1,11.101-2.1h72v10h-72
		C1351.416,29.5,1347.15,31.069,1343.685,34.2z"/>
</g>
<g>
	<path style="fill:#FFA800;" d="M85.156,207.355c0,5.125-0.967,9.885-2.9,14.282c-1.935,4.399-4.567,8.218-7.903,11.454
		c-3.335,3.24-7.177,5.801-11.527,7.686s-8.99,2.828-13.92,2.828c-6.188,0-11.745-1.328-16.675-3.988
		c-4.93-2.657-9.04-6.162-12.325-10.512v27.549h-7.25v-49.299c0-5.025,0.942-9.764,2.828-14.211
		c1.885-4.445,4.445-8.287,7.685-11.527c3.237-3.237,7.055-5.8,11.455-7.685c4.398-1.886,9.158-2.827,14.283-2.827
		c4.93,0,9.57,0.941,13.92,2.827c4.35,1.885,8.192,4.447,11.527,7.685c3.335,3.24,5.968,7.082,7.903,11.527
		C84.188,197.592,85.156,202.33,85.156,207.355z M77.906,207.355c0-3.963-0.775-7.708-2.32-11.238
		c-1.547-3.527-3.625-6.598-6.235-9.207c-2.61-2.61-5.68-4.688-9.208-6.235c-3.53-1.545-7.275-2.319-11.237-2.319
		c-3.965,0-7.71,0.774-11.237,2.319c-3.53,1.548-6.598,3.625-9.208,6.235c-2.61,2.609-4.69,5.68-6.235,9.207
		c-1.547,3.53-2.32,7.275-2.32,11.238c0,3.965,0.772,7.709,2.32,11.236c1.545,3.531,3.625,6.598,6.235,9.208
		c2.61,2.61,5.677,4.69,9.208,6.235c3.527,1.547,7.272,2.32,11.237,2.32c3.962,0,7.708-0.773,11.237-2.32
		c3.528-1.545,6.598-3.625,9.208-6.235c2.61-2.61,4.688-5.677,6.235-9.208C77.131,215.064,77.906,211.32,77.906,207.355z"/>
	<path style="fill:#FFA800;" d="M130.105,171.105c4.93,0,9.57,0.967,13.92,2.899c4.35,1.935,8.192,4.567,11.527,7.903
		c3.335,3.334,5.968,7.177,7.903,11.527c1.933,4.35,2.9,8.989,2.9,13.92v36.25h-7.25v-36.25c0-3.963-0.775-7.708-2.32-11.238
		c-1.547-3.527-3.625-6.598-6.235-9.207c-2.61-2.61-5.68-4.688-9.208-6.235c-3.53-1.545-7.275-2.319-11.237-2.319
		c-3.965,0-7.71,0.774-11.237,2.319c-3.53,1.548-6.598,3.625-9.208,6.235c-2.61,2.609-4.69,5.68-6.235,9.207
		c-1.547,3.53-2.32,7.275-2.32,11.238v36.25h-7.25v-36.25v-49.301h7.25v27.551c3.285-4.351,7.395-7.854,12.325-10.514
		C118.36,172.436,123.918,171.105,130.105,171.105z"/>
	<path style="fill:#FFA800;" d="M247.555,207.355c0,5.125-0.967,9.885-2.9,14.282c-1.935,4.399-4.567,8.218-7.903,11.454
		c-3.335,3.24-7.177,5.801-11.527,7.686s-8.99,2.828-13.92,2.828c-6.188,0-11.745-1.328-16.675-3.988
		c-4.93-2.657-9.04-6.162-12.325-10.512v27.549h-7.25v-49.299c0-5.025,0.942-9.764,2.828-14.211
		c1.885-4.445,4.445-8.287,7.685-11.527c3.237-3.237,7.055-5.8,11.455-7.685c4.398-1.886,9.158-2.827,14.283-2.827
		c4.93,0,9.57,0.941,13.92,2.827c4.35,1.885,8.192,4.447,11.527,7.685c3.335,3.24,5.968,7.082,7.903,11.527
		C246.588,197.592,247.555,202.33,247.555,207.355z M240.305,207.355c0-3.963-0.775-7.708-2.32-11.238
		c-1.547-3.527-3.625-6.598-6.235-9.207c-2.61-2.61-5.68-4.688-9.208-6.235c-3.53-1.545-7.275-2.319-11.237-2.319
		c-3.965,0-7.71,0.774-11.237,2.319c-3.53,1.548-6.598,3.625-9.208,6.235c-2.61,2.609-4.69,5.68-6.235,9.207
		c-1.547,3.53-2.32,7.275-2.32,11.238c0,3.965,0.772,7.709,2.32,11.236c1.545,3.531,3.625,6.598,6.235,9.208
		c2.61,2.61,5.677,4.69,9.208,6.235c3.527,1.547,7.272,2.32,11.237,2.32c3.962,0,7.708-0.773,11.237-2.32
		c3.528-1.545,6.598-3.625,9.208-6.235c2.61-2.61,4.688-5.677,6.235-9.208C239.53,215.064,240.305,211.32,240.305,207.355z"/>
	<path style="fill:#FFA800;" d="M328.755,243.605v-85.551h7.25v85.551H328.755z"/>
	<path style="fill:#FFA800;" d="M344.703,165.305v-7.25h7.25v7.25H344.703z M344.703,243.605v-72.5h7.25v72.5H344.703z"/>
	<path style="fill:#FFA800;" d="M396.9,171.105c5.025,0,9.763,0.941,14.21,2.827c4.445,1.885,8.288,4.447,11.527,7.685
		c3.238,3.24,5.8,7.082,7.685,11.527c1.885,4.447,2.828,9.186,2.828,14.211c0,5.125-0.942,9.885-2.828,14.282
		c-1.885,4.399-4.447,8.218-7.685,11.454c-3.24,3.24-7.082,5.801-11.527,7.686c-4.447,1.885-9.185,2.828-14.21,2.828
		c-5.125,0-9.885-0.943-14.283-2.828c-4.399-1.885-8.217-4.445-11.455-7.686c-3.24-3.236-5.8-7.055-7.685-11.454
		c-1.885-4.397-2.828-9.157-2.828-14.282v-49.301h7.25v27.551c3.285-4.351,7.49-7.854,12.615-10.514
		C385.638,172.436,391.101,171.105,396.9,171.105z M396.9,236.355c3.962,0,7.708-0.773,11.237-2.32
		c3.528-1.545,6.598-3.625,9.208-6.235c2.61-2.61,4.688-5.677,6.235-9.208c1.545-3.527,2.32-7.271,2.32-11.236
		c0-3.963-0.775-7.708-2.32-11.238c-1.547-3.527-3.625-6.598-6.235-9.207c-2.61-2.61-5.68-4.688-9.208-6.235
		c-3.53-1.545-7.275-2.319-11.237-2.319c-3.965,0-7.71,0.774-11.237,2.319c-3.53,1.548-6.598,3.625-9.208,6.235
		c-2.61,2.609-4.69,5.68-6.235,9.207c-1.547,3.53-2.32,7.275-2.32,11.238c0,3.965,0.772,7.709,2.32,11.236
		c1.545,3.531,3.625,6.598,6.235,9.208c2.61,2.61,5.677,4.69,9.208,6.235C389.19,235.582,392.936,236.355,396.9,236.355z"/>
	<path style="fill:#FFA800;" d="M478.1,171.105c4.93,0,9.57,0.941,13.92,2.827c4.35,1.885,8.192,4.447,11.527,7.685
		c3.335,3.24,5.968,7.082,7.903,11.527c1.933,4.447,2.9,9.186,2.9,14.211h-7.25c0-3.963-0.775-7.708-2.32-11.238
		c-1.547-3.527-3.625-6.598-6.235-9.207c-2.61-2.61-5.68-4.688-9.208-6.235c-3.53-1.545-7.275-2.319-11.237-2.319
		c-3.965,0-7.71,0.774-11.237,2.319c-3.53,1.548-6.598,3.625-9.208,6.235c-2.61,2.609-4.69,5.68-6.235,9.207
		c-1.547,3.53-2.32,7.275-2.32,11.238v36.25h-7.25v-36.25c0-5.025,0.942-9.764,2.828-14.211c1.885-4.445,4.445-8.287,7.685-11.527
		c3.237-3.237,7.055-5.8,11.455-7.685C468.215,172.047,472.975,171.105,478.1,171.105z"/>
	<path style="fill:#FFA800;" d="M559.3,171.105c5.025,0,9.763,0.941,14.21,2.827c4.445,1.885,8.288,4.447,11.527,7.685
		c3.238,3.24,5.8,7.082,7.685,11.527c1.885,4.447,2.828,9.186,2.828,14.211v36.25h-7.25v-14.5
		c-3.288,4.35-7.492,7.854-12.615,10.512c-5.125,2.66-10.585,3.988-16.385,3.988c-5.125,0-9.885-0.943-14.283-2.828
		c-4.399-1.885-8.217-4.445-11.455-7.686c-3.24-3.236-5.8-7.055-7.685-11.454c-1.885-4.397-2.828-9.157-2.828-14.282
		c0-5.025,0.942-9.764,2.828-14.211c1.885-4.445,4.445-8.287,7.685-11.527c3.237-3.237,7.055-5.8,11.455-7.685
		C549.415,172.047,554.175,171.105,559.3,171.105z M559.3,236.355c3.962,0,7.708-0.773,11.237-2.32
		c3.528-1.545,6.598-3.625,9.208-6.235c2.61-2.61,4.688-5.677,6.235-9.208c1.545-3.527,2.32-7.271,2.32-11.236
		c0-3.963-0.775-7.708-2.32-11.238c-1.547-3.527-3.625-6.598-6.235-9.207c-2.61-2.61-5.68-4.688-9.208-6.235
		c-3.53-1.545-7.275-2.319-11.237-2.319c-3.965,0-7.71,0.774-11.237,2.319c-3.53,1.548-6.598,3.625-9.208,6.235
		c-2.61,2.609-4.69,5.68-6.235,9.207c-1.547,3.53-2.32,7.275-2.32,11.238c0,3.965,0.772,7.709,2.32,11.236
		c1.545,3.531,3.625,6.598,6.235,9.208c2.61,2.61,5.677,4.69,9.208,6.235C551.59,235.582,555.335,236.355,559.3,236.355z"/>
	<path style="fill:#FFA800;" d="M640.5,171.105c4.93,0,9.57,0.941,13.92,2.827c4.35,1.885,8.192,4.447,11.527,7.685
		c3.335,3.24,5.968,7.082,7.903,11.527c1.933,4.447,2.9,9.186,2.9,14.211h-7.25c0-3.963-0.775-7.708-2.32-11.238
		c-1.547-3.527-3.625-6.598-6.235-9.207c-2.61-2.61-5.68-4.688-9.208-6.235c-3.53-1.545-7.275-2.319-11.237-2.319
		c-3.965,0-7.71,0.774-11.237,2.319c-3.53,1.548-6.598,3.625-9.208,6.235c-2.61,2.609-4.69,5.68-6.235,9.207
		c-1.547,3.53-2.32,7.275-2.32,11.238v36.25h-7.25v-36.25c0-5.025,0.942-9.764,2.828-14.211c1.885-4.445,4.445-8.287,7.685-11.527
		c3.237-3.237,7.055-5.8,11.455-7.685C630.615,172.047,635.375,171.105,640.5,171.105z"/>
	<path style="fill:#FFA800;" d="M757.949,171.105v35.524v0.726v36.25c0,5.122-0.942,9.883-2.828,14.282
		c-1.885,4.397-4.447,8.215-7.685,11.454c-3.24,3.238-7.082,5.801-11.527,7.686c-4.447,1.885-9.185,2.828-14.21,2.828
		c-5.125,0-9.885-0.943-14.283-2.828c-4.399-1.885-8.217-4.447-11.455-7.686c-3.24-3.239-5.8-7.057-7.685-11.454
		c-1.885-4.399-2.828-9.16-2.828-14.282h7.25c0,3.962,0.772,7.707,2.32,11.236c1.545,3.528,3.625,6.598,6.235,9.208
		c2.61,2.61,5.677,4.688,9.208,6.235c3.527,1.545,7.272,2.32,11.237,2.32c3.962,0,7.708-0.775,11.237-2.32
		c3.528-1.547,6.598-3.625,9.208-6.235c2.61-2.61,4.688-5.68,6.235-9.208c1.545-3.529,2.32-7.274,2.32-11.236v-14.5
		c-3.288,4.35-7.492,7.854-12.615,10.512c-5.125,2.66-10.585,3.988-16.385,3.988c-5.125,0-9.885-0.966-14.283-2.9
		c-4.399-1.933-8.217-4.567-11.455-7.902c-3.24-3.336-5.8-7.178-7.685-11.527c-1.885-4.351-2.828-8.99-2.828-13.92v-0.726v-35.524
		h7.25v35.524v0.726c0,3.965,0.772,7.709,2.32,11.236c1.545,3.531,3.625,6.598,6.235,9.208c2.61,2.61,5.677,4.69,9.208,6.235
		c3.527,1.547,7.272,2.32,11.237,2.32c3.962,0,7.708-0.773,11.237-2.32c3.528-1.545,6.598-3.625,9.208-6.235
		c2.61-2.61,4.688-5.677,6.235-9.208c1.545-3.527,2.32-7.271,2.32-11.236v-0.726v-35.524H757.949z"/>
	<path style="fill:#FFA800;" d="M875.399,236.355c3.48,0,6.718-0.556,9.715-1.668c2.995-1.11,5.728-2.633,8.193-4.567
		c2.465-1.933,4.59-4.228,6.38-6.888c1.788-2.658,3.117-5.533,3.987-8.627h7.25c-0.87,4.156-2.417,8-4.64,11.527
		c-2.225,3.529-4.882,6.598-7.975,9.207c-3.095,2.61-6.598,4.641-10.513,6.09c-3.915,1.45-8.047,2.176-12.397,2.176
		c-5.125,0-9.885-0.943-14.283-2.828c-4.399-1.885-8.217-4.445-11.455-7.686c-3.24-3.236-5.8-7.055-7.685-11.454
		c-1.885-4.397-2.828-9.157-2.828-14.282c0-5.025,0.942-9.764,2.828-14.211c1.885-4.445,4.445-8.287,7.685-11.527
		c3.237-3.237,7.055-5.8,11.455-7.685c4.398-1.886,9.158-2.827,14.283-2.827c4.35,0,8.482,0.725,12.397,2.174
		c3.915,1.451,7.417,3.48,10.513,6.091c3.092,2.61,5.75,5.68,7.975,9.208c2.223,3.529,3.77,7.371,4.64,11.527h-7.25
		c-0.87-3.094-2.2-5.969-3.987-8.628c-1.79-2.657-3.915-4.952-6.38-6.888c-2.465-1.933-5.198-3.455-8.193-4.567
		c-2.997-1.11-6.235-1.667-9.715-1.667c-3.965,0-7.71,0.774-11.237,2.319c-3.53,1.548-6.598,3.625-9.208,6.235
		c-2.61,2.609-4.69,5.68-6.235,9.207c-1.547,3.53-2.32,7.275-2.32,11.238c0,3.965,0.772,7.709,2.32,11.236
		c1.545,3.531,3.625,6.598,6.235,9.208c2.61,2.61,5.677,4.69,9.208,6.235C867.689,235.582,871.434,236.355,875.399,236.355z"/>
	<path style="fill:#FFA800;" d="M955.873,171.105c4.93,0,9.571,0.941,13.92,2.827c4.35,1.885,8.193,4.447,11.527,7.685
		c3.336,3.24,5.969,7.082,7.902,11.527c1.934,4.447,2.9,9.186,2.9,14.211c0,5.125-0.967,9.885-2.9,14.282
		c-1.934,4.399-4.566,8.218-7.902,11.454c-3.334,3.24-7.178,5.801-11.527,7.686s-8.991,2.828-13.92,2.828
		c-5.125,0-9.885-0.943-14.281-2.828c-4.4-1.885-8.218-4.445-11.456-7.686c-3.24-3.236-5.8-7.055-7.685-11.454
		c-1.885-4.397-2.828-9.157-2.828-14.282c0-5.025,0.942-9.764,2.828-14.211c1.885-4.445,4.445-8.287,7.685-11.527
		c3.237-3.237,7.055-5.8,11.456-7.685C945.988,172.047,950.748,171.105,955.873,171.105z M955.873,236.355
		c3.963,0,7.709-0.773,11.239-2.32c3.527-1.545,6.598-3.625,9.207-6.235s4.688-5.677,6.234-9.208
		c1.547-3.527,2.32-7.271,2.32-11.236c0-3.963-0.773-7.708-2.32-11.238c-1.547-3.527-3.625-6.598-6.234-9.207
		c-2.609-2.61-5.68-4.688-9.207-6.235c-3.529-1.545-7.276-2.319-11.239-2.319c-3.965,0-7.709,0.774-11.236,2.319
		c-3.531,1.548-6.598,3.625-9.208,6.235c-2.61,2.609-4.69,5.68-6.235,9.207c-1.547,3.53-2.32,7.275-2.32,11.238
		c0,3.965,0.772,7.709,2.32,11.236c1.545,3.531,3.625,6.598,6.235,9.208s5.677,4.69,9.208,6.235
		C948.164,235.582,951.908,236.355,955.873,236.355z"/>
	<path style="fill:#FFA800;" d="M1000.822,243.605v-85.551h7.25v85.551H1000.822z"/>
	<path style="fill:#FFA800;" d="M1016.771,243.605v-85.551h7.25v85.551H1016.771z"/>
	<path style="fill:#FFA800;" d="M1068.969,236.355c6.186,0,11.648-1.643,16.385-4.931c4.736-3.285,8.217-7.685,10.441-13.194h7.975
		c-1.258,3.674-3.023,7.057-5.293,10.149c-2.271,3.095-4.93,5.753-7.975,7.976c-3.045,2.225-6.404,3.986-10.078,5.292
		s-7.492,1.958-11.455,1.958c-5.125,0-9.885-0.943-14.281-2.828c-4.4-1.885-8.219-4.445-11.455-7.686
		c-3.24-3.236-5.801-7.055-7.686-11.454c-1.885-4.397-2.828-9.157-2.828-14.282c0-5.025,0.943-9.764,2.828-14.211
		c1.885-4.445,4.445-8.287,7.686-11.527c3.236-3.237,7.055-5.8,11.455-7.685c4.396-1.886,9.156-2.827,14.281-2.827
		c5.025,0,9.764,0.941,14.211,2.827c4.445,1.885,8.287,4.447,11.527,7.685c3.236,3.24,5.799,7.082,7.686,11.527
		c1.885,4.447,2.826,9.186,2.826,14.211v3.625h-13.049h-52.201c0.58,3.674,1.715,7.057,3.408,10.149
		c1.689,3.095,3.842,5.753,6.453,7.976c2.609,2.225,5.531,3.986,8.771,5.292C1061.84,235.703,1065.295,236.355,1068.969,236.355z
		 M1068.969,178.355c-3.674,0-7.129,0.652-10.367,1.957c-3.24,1.305-6.162,3.07-8.771,5.293c-2.611,2.225-4.764,4.906-6.453,8.047
		c-1.693,3.143-2.828,6.502-3.408,10.078h58c-0.58-3.576-1.717-6.936-3.406-10.078c-1.693-3.141-3.844-5.822-6.453-8.047
		c-2.609-2.223-5.561-3.988-8.846-5.293C1075.977,179.008,1072.545,178.355,1068.969,178.355z"/>
	<path style="fill:#FFA800;" d="M1150.168,236.355c3.48,0,6.719-0.556,9.715-1.668c2.996-1.11,5.729-2.633,8.193-4.567
		c2.465-1.933,4.59-4.228,6.379-6.888c1.789-2.658,3.119-5.533,3.988-8.627h7.25c-0.869,4.156-2.418,8-4.641,11.527
		c-2.225,3.529-4.881,6.598-7.975,9.207c-3.094,2.61-6.598,4.641-10.512,6.09c-3.916,1.45-8.049,2.176-12.398,2.176
		c-5.125,0-9.885-0.943-14.281-2.828c-4.4-1.885-8.219-4.445-11.455-7.686c-3.24-3.236-5.801-7.055-7.686-11.454
		c-1.885-4.397-2.828-9.157-2.828-14.282c0-5.025,0.943-9.764,2.828-14.211c1.885-4.445,4.445-8.287,7.686-11.527
		c3.236-3.237,7.055-5.8,11.455-7.685c4.396-1.886,9.156-2.827,14.281-2.827c4.35,0,8.482,0.725,12.398,2.174
		c3.914,1.451,7.418,3.48,10.512,6.091s5.75,5.68,7.975,9.208c2.223,3.529,3.771,7.371,4.641,11.527h-7.25
		c-0.869-3.094-2.199-5.969-3.988-8.628c-1.789-2.657-3.914-4.952-6.379-6.888c-2.465-1.933-5.197-3.455-8.193-4.567
		c-2.996-1.11-6.234-1.667-9.715-1.667c-3.965,0-7.709,0.774-11.236,2.319c-3.531,1.548-6.598,3.625-9.209,6.235
		c-2.609,2.609-4.689,5.68-6.234,9.207c-1.547,3.53-2.32,7.275-2.32,11.238c0,3.965,0.773,7.709,2.32,11.236
		c1.545,3.531,3.625,6.598,6.234,9.208c2.611,2.61,5.678,4.69,9.209,6.235C1142.459,235.582,1146.203,236.355,1150.168,236.355z"/>
	<path style="fill:#FFA800;" d="M1266.893,207.355c0,5.125-0.969,9.885-2.9,14.282c-1.936,4.399-4.568,8.218-7.902,11.454
		c-3.336,3.24-7.178,5.801-11.527,7.686s-8.99,2.828-13.92,2.828c-5.125,0-9.885-0.943-14.283-2.828
		c-4.4-1.885-8.217-4.445-11.455-7.686c-3.24-3.236-5.799-7.055-7.686-11.454c-1.885-4.397-2.826-9.157-2.826-14.282V160.23h7.25
		v25.375h19.574v7.25h-19.574v14.5c0,3.965,0.771,7.709,2.32,11.236c1.545,3.531,3.625,6.598,6.234,9.208s5.678,4.69,9.207,6.235
		c3.527,1.547,7.273,2.32,11.238,2.32c3.963,0,7.707-0.773,11.236-2.32c3.527-1.545,6.598-3.625,9.209-6.235
		c2.609-2.61,4.688-5.677,6.234-9.208c1.545-3.527,2.32-7.271,2.32-11.236H1266.893z"/>
	<path style="fill:#FFA800;" d="M1275.592,165.305v-7.25h7.25v7.25H1275.592z M1275.592,243.605v-72.5h7.25v72.5H1275.592z"/>
	<path style="fill:#FFA800;" d="M1327.789,171.105c4.93,0,9.57,0.941,13.92,2.827c4.35,1.885,8.193,4.447,11.527,7.685
		c3.336,3.24,5.969,7.082,7.902,11.527c1.934,4.447,2.9,9.186,2.9,14.211c0,5.125-0.967,9.885-2.9,14.282
		c-1.934,4.399-4.566,8.218-7.902,11.454c-3.334,3.24-7.178,5.801-11.527,7.686s-8.99,2.828-13.92,2.828
		c-5.125,0-9.885-0.943-14.281-2.828c-4.4-1.885-8.219-4.445-11.455-7.686c-3.24-3.236-5.801-7.055-7.686-11.454
		c-1.885-4.397-2.828-9.157-2.828-14.282c0-5.025,0.943-9.764,2.828-14.211c1.885-4.445,4.445-8.287,7.686-11.527
		c3.236-3.237,7.055-5.8,11.455-7.685C1317.904,172.047,1322.664,171.105,1327.789,171.105z M1327.789,236.355
		c3.963,0,7.709-0.773,11.238-2.32c3.527-1.545,6.598-3.625,9.207-6.235s4.688-5.677,6.234-9.208
		c1.547-3.527,2.32-7.271,2.32-11.236c0-3.963-0.773-7.708-2.32-11.238c-1.547-3.527-3.625-6.598-6.234-9.207
		c-2.609-2.61-5.68-4.688-9.207-6.235c-3.529-1.545-7.275-2.319-11.238-2.319c-3.965,0-7.709,0.774-11.236,2.319
		c-3.531,1.548-6.598,3.625-9.209,6.235c-2.609,2.609-4.689,5.68-6.234,9.207c-1.547,3.53-2.32,7.275-2.32,11.238
		c0,3.965,0.773,7.709,2.32,11.236c1.545,3.531,3.625,6.598,6.234,9.208c2.611,2.61,5.678,4.69,9.209,6.235
		C1320.08,235.582,1323.824,236.355,1327.789,236.355z"/>
	<path style="fill:#FFA800;" d="M1408.988,171.105c4.93,0,9.57,0.967,13.92,2.899c4.35,1.935,8.193,4.567,11.527,7.903
		c3.336,3.334,5.969,7.177,7.902,11.527c1.934,4.35,2.9,8.989,2.9,13.92v36.25h-7.25v-36.25c0-3.963-0.773-7.708-2.32-11.238
		c-1.547-3.527-3.625-6.598-6.234-9.207c-2.609-2.61-5.68-4.688-9.207-6.235c-3.529-1.545-7.275-2.319-11.238-2.319
		c-3.965,0-7.709,0.774-11.236,2.319c-3.531,1.548-6.598,3.625-9.209,6.235c-2.609,2.609-4.689,5.68-6.234,9.207
		c-1.547,3.53-2.32,7.275-2.32,11.238v36.25h-7.25v-36.25c0-4.931,0.943-9.57,2.828-13.92c1.885-4.351,4.445-8.193,7.686-11.527
		c3.236-3.336,7.055-5.969,11.455-7.903C1399.104,172.072,1403.863,171.105,1408.988,171.105z"/>
</g>
</svg>
