<?xml version="1.0" encoding="iso-8859-1"?>
<!-- Generator: Adobe Illustrator 16.0.0, SVG Export Plug-In . SVG Version: 6.00 Build 0)  -->
<!DOCTYPE svg PUBLIC "-//W3C//DTD SVG 1.1//EN" "http://www.w3.org/Graphics/SVG/1.1/DTD/svg11.dtd">
<svg version="1.1" id="Layer_1" xmlns="http://www.w3.org/2000/svg" xmlns:xlink="http://www.w3.org/1999/xlink" x="0px" y="0px"
	 width="1920px" height="1080px" viewBox="0 0 1920 1080" style="enable-background:new 0 0 1920 1080;" xml:space="preserve">
<g>
	<polygon style="fill:#444444;" points="1315.577,175 1097,387.98 1097,1081 1832,1081 1832,175 	"/>
	<polygon style="fill:#FFFFFF;" points="1331,403 1331,203.276 1132.696,403 	"/>
	<g>
		<g>
			<path style="fill:#999999;" d="M1493.583,816.834c-63.145,0-114.332-51.188-114.332-114.33
				c0-58.58,44.056-106.869,100.841-113.543c-4.959-0.521-9.995-0.788-15.092-0.788c-78.929,0-142.914,63.983-142.914,142.913
				S1386.071,874,1465,874s142.913-63.984,142.913-142.914c0-5.098-0.267-10.133-0.788-15.092
				C1600.45,772.779,1552.161,816.834,1493.583,816.834z"/>
			<path style="fill:#CCCCCC;" d="M1578.359,688.441h23.043c-10.321-33.043-32.604-62.449-64.946-81.123
				c-68.354-39.463-155.759-16.043-195.224,52.311c-39.464,68.354-16.044,155.76,52.311,195.223
				c4.415,2.549,8.908,4.836,13.464,6.865c-45.84-34.174-59.849-98.021-30.559-148.752c31.572-54.684,101.494-73.42,156.179-41.848
				c20.603,11.895,36.103,29.234,45.732,49.152V688.441z"/>
			<g>
				<path style="fill:#FFFFFF;" d="M1348.972,814.541c12.088,16.848,27.33,30.383,44.436,40.26
					C1375.903,844.65,1360.753,830.891,1348.972,814.541z"/>
				<path style="fill:#FFFFFF;" d="M1524.969,663.459c30.625,53.045,13.913,120.43-37.029,153.238
					c1.869,0.09,3.751,0.137,5.644,0.137c58.578,0,106.867-44.055,113.542-100.84c0.521,4.959,0.788,9.994,0.788,15.092
					c0,4.852-0.242,9.645-0.715,14.371c2.938-28.828-2.836-58.814-18.432-85.828c-39.464-68.354-126.869-91.773-195.224-52.311
					c-4.414,2.549-8.642,5.299-12.676,8.229C1433.382,592.936,1495.679,612.729,1524.969,663.459z"/>
				<path style="fill:#FFFFFF;" d="M1465,874c-4.812,0-9.567-0.238-14.257-0.703c16.954,1.715,34.307,0.414,51.217-4.123
					C1490.172,872.32,1477.78,874,1465,874z"/>
				<path style="fill:#FFFFFF;" d="M1548.547,847.047c16.844-12.105,30.371-27.365,40.236-44.488
					C1578.645,820.08,1564.894,835.25,1548.547,847.047z"/>
			</g>
		</g>
		<g>
			<path style="fill:#666666;" d="M1353.018,905.086l-28,28l-200-204l200-200l28,28l-172,172L1353.018,905.086z"/>
			<path style="fill:#666666;" d="M1576.982,557.086l28-28l200,204l-200,200l-28-28l172-172L1576.982,557.086z"/>
		</g>
	</g>
</g>
<g>
	<rect x="706" y="20" style="fill:#FF7900;" width="91" height="90"/>
	<rect x="809" y="82" style="fill:#FFD400;" width="82" height="82"/>
	<rect x="697" y="181" style="fill:#FFA800;" width="91" height="90"/>
	<rect x="841" y="184" style="fill:#FF7900;" width="73" height="73"/>
	<rect x="914" y="15" style="fill:#FFA800;" width="72" height="72"/>
	<rect x="971" y="105" style="fill:#FFA800;" width="63" height="63"/>
	<rect x="939" y="218" style="fill:#FFD400;" width="63" height="63"/>
	<rect x="1026" y="184" style="fill:#FF7900;" width="54" height="55"/>
	<rect x="1049" y="68" style="fill:#FF7900;" width="63" height="64"/>
	<rect x="1133" y="31" style="fill:#FFD400;" width="54" height="55"/>
	<rect x="1187" y="189" style="fill:#FFD400;" width="46" height="45"/>
	<rect x="1112" y="157" style="fill:#FFA800;" width="54" height="55"/>
	<rect x="1210" y="118" style="fill:#FFA800;" width="45" height="46"/>
	<rect x="1275" y="114" style="fill:#FFD400;" width="36" height="36"/>
	<rect x="1329" y="87" style="fill:#FFA800;" width="37" height="36"/>
	<rect x="1233" y="46" style="fill:#FF7900;" width="45" height="45"/>
</g>
<g>
	<path style="fill:#FF7900;" d="M64.804,127.499c8.531,0,16.065-2.266,22.6-6.8c6.531-4.531,11.331-10.6,14.4-18.2h11
		c-1.734,5.069-4.169,9.734-7.3,14c-3.135,4.269-6.8,7.935-11,11c-4.2,3.069-8.834,5.5-13.9,7.3c-5.068,1.8-10.334,2.7-15.8,2.7
		c-7.069,0-13.634-1.3-19.7-3.9c-6.068-2.6-11.334-6.131-15.8-10.6c-4.469-4.466-8-9.731-10.6-15.8c-2.6-6.066-3.9-12.631-3.9-19.7
		c0-6.931,1.3-13.466,3.9-19.6c2.6-6.131,6.131-11.431,10.6-15.9c4.466-4.466,9.731-8,15.8-10.6c6.066-2.6,12.631-3.9,19.7-3.9
		c6.931,0,13.466,1.3,19.6,3.9c6.131,2.6,11.431,6.134,15.9,10.6c4.466,4.469,8,9.769,10.6,15.9c2.6,6.134,3.9,12.669,3.9,19.6v5
		h-18h-72c0.8,5.069,2.366,9.734,4.7,14c2.331,4.269,5.3,7.935,8.9,11c3.6,3.069,7.631,5.5,12.1,7.3
		C54.969,126.599,59.735,127.499,64.804,127.499z M64.804,47.499c-5.069,0-9.834,0.9-14.3,2.7c-4.469,1.8-8.5,4.234-12.1,7.3
		c-3.6,3.069-6.569,6.769-8.9,11.1c-2.334,4.334-3.9,8.969-4.7,13.9h80c-0.8-4.931-2.369-9.565-4.7-13.9
		c-2.334-4.332-5.3-8.031-8.9-11.1c-3.6-3.065-7.668-5.5-12.2-7.3C74.469,48.399,69.735,47.499,64.804,47.499z"/>
	<path style="fill:#FF7900;" d="M176.803,37.499c6.8,0,13.2,1.334,19.2,4c6,2.669,11.3,6.3,15.9,10.9s8.231,9.9,10.9,15.9
		c2.666,6,4,12.4,4,19.2v50h-10v-50c0-5.466-1.069-10.631-3.2-15.5c-2.134-4.866-5-9.1-8.6-12.7c-3.6-3.6-7.834-6.465-12.7-8.6
		c-4.869-2.131-10.034-3.2-15.5-3.2c-5.469,0-10.634,1.069-15.5,3.2c-4.869,2.134-9.1,5-12.7,8.6c-3.6,3.6-6.469,7.834-8.6,12.7
		c-2.135,4.869-3.2,10.034-3.2,15.5v50h-10v-50c0-6.8,1.3-13.2,3.9-19.2s6.131-11.3,10.6-15.9c4.466-4.6,9.731-8.231,15.8-10.9
		C163.169,38.833,169.734,37.499,176.803,37.499z"/>
	<path style="fill:#FF7900;" d="M238.803,87.499c0-6.931,1.3-13.466,3.9-19.6c2.6-6.131,6.131-11.431,10.6-15.9
		c4.466-4.466,9.731-8,15.8-10.6c6.066-2.6,12.631-3.9,19.7-3.9c8,0,15.531,1.834,22.6,5.5c7.065,3.669,12.866,8.5,17.4,14.5v-38h10
		v68c0,7.069-1.3,13.634-3.9,19.7c-2.6,6.068-6.134,11.334-10.6,15.8c-4.469,4.469-9.769,8-15.9,10.6
		c-6.134,2.6-12.669,3.9-19.6,3.9c-7.069,0-13.634-1.3-19.7-3.9c-6.068-2.6-11.334-6.131-15.8-10.6c-4.469-4.466-8-9.731-10.6-15.8
		C240.103,101.133,238.803,94.568,238.803,87.499z M248.803,87.499c0,5.469,1.065,10.634,3.2,15.5c2.131,4.869,5,9.1,8.6,12.7
		c3.6,3.6,7.832,6.469,12.7,8.6c4.866,2.135,10.031,3.2,15.5,3.2c5.466,0,10.631-1.065,15.5-3.2c4.866-2.131,9.1-5,12.7-8.6
		c3.6-3.6,6.465-7.832,8.6-12.7c2.131-4.866,3.2-10.031,3.2-15.5c0-5.466-1.069-10.631-3.2-15.5c-2.134-4.866-5-9.1-8.6-12.7
		c-3.6-3.6-7.834-6.465-12.7-8.6c-4.869-2.131-10.034-3.2-15.5-3.2c-5.469,0-10.634,1.069-15.5,3.2c-4.869,2.134-9.1,5-12.7,8.6
		c-3.6,3.6-6.469,7.834-8.6,12.7C249.868,76.868,248.803,82.033,248.803,87.499z"/>
	<path style="fill:#FF7900;" d="M400.802,127.499c8.531,0,16.065-2.266,22.6-6.8c6.531-4.531,11.331-10.6,14.4-18.2h11
		c-1.734,5.069-4.169,9.734-7.3,14c-3.135,4.269-6.8,7.935-11,11c-4.2,3.069-8.834,5.5-13.9,7.3c-5.068,1.8-10.334,2.7-15.8,2.7
		c-7.069,0-13.634-1.3-19.7-3.9c-6.068-2.6-11.334-6.131-15.8-10.6c-4.469-4.466-8-9.731-10.6-15.8c-2.6-6.066-3.9-12.631-3.9-19.7
		c0-6.931,1.3-13.466,3.9-19.6c2.6-6.131,6.131-11.431,10.6-15.9c4.466-4.466,9.731-8,15.8-10.6c6.066-2.6,12.631-3.9,19.7-3.9
		c6.931,0,13.466,1.3,19.6,3.9c6.131,2.6,11.431,6.134,15.9,10.6c4.466,4.469,8,9.769,10.6,15.9c2.6,6.134,3.9,12.669,3.9,19.6v5
		h-18h-72c0.8,5.069,2.366,9.734,4.7,14c2.331,4.269,5.3,7.935,8.9,11c3.6,3.069,7.631,5.5,12.1,7.3
		C390.968,126.599,395.733,127.499,400.802,127.499z M400.802,47.499c-5.069,0-9.834,0.9-14.3,2.7c-4.469,1.8-8.5,4.234-12.1,7.3
		c-3.6,3.069-6.569,6.769-8.9,11.1c-2.334,4.334-3.9,8.969-4.7,13.9h80c-0.8-4.931-2.369-9.565-4.7-13.9
		c-2.334-4.332-5.3-8.031-8.9-11.1c-3.6-3.065-7.668-5.5-12.2-7.3C410.468,48.399,405.733,47.499,400.802,47.499z"/>
	<path style="fill:#FF7900;" d="M472.602,137.499h-9.8v-100h9.8v87.2l90.2-90l6.8,6.8L472.602,137.499z"/>
</g>
<g>
	<path style="fill:#FFD400;" d="M418.433,263.003v-118h10v118H418.433z"/>
	<path style="fill:#FFD400;" d="M440.43,155.003v-10h10v10H440.43z M440.43,263.003v-100h10v100H440.43z"/>
	<path style="fill:#FFD400;" d="M512.427,163.003c6.931,0,13.466,1.3,19.6,3.9c6.131,2.6,11.431,6.134,15.9,10.6
		c4.466,4.469,8,9.769,10.6,15.9c2.6,6.134,3.9,12.669,3.9,19.6c0,7.069-1.3,13.634-3.9,19.7c-2.6,6.068-6.134,11.334-10.6,15.8
		c-4.469,4.469-9.769,8-15.9,10.6c-6.134,2.601-12.669,3.9-19.6,3.9c-7.069,0-13.634-1.3-19.7-3.9
		c-6.068-2.6-11.334-6.131-15.8-10.6c-4.469-4.466-8-9.731-10.6-15.8c-2.6-6.066-3.9-12.631-3.9-19.7v-68h10v38
		c4.531-6,10.331-10.831,17.4-14.5C496.893,164.837,504.427,163.003,512.427,163.003z M512.427,253.003
		c5.466,0,10.631-1.065,15.5-3.2c4.866-2.131,9.1-5,12.7-8.6c3.6-3.601,6.465-7.832,8.6-12.7c2.131-4.866,3.2-10.031,3.2-15.5
		c0-5.466-1.069-10.631-3.2-15.5c-2.134-4.866-5-9.1-8.6-12.7c-3.6-3.6-7.834-6.465-12.7-8.6c-4.869-2.131-10.034-3.2-15.5-3.2
		c-5.469,0-10.634,1.069-15.5,3.2c-4.869,2.134-9.1,5-12.7,8.6c-3.6,3.6-6.469,7.834-8.6,12.7c-2.135,4.869-3.2,10.034-3.2,15.5
		c0,5.469,1.065,10.634,3.2,15.5c2.131,4.869,5,9.1,8.6,12.7c3.6,3.6,7.832,6.469,12.7,8.6
		C501.792,251.938,506.958,253.003,512.427,253.003z"/>
	<path style="fill:#FFD400;" d="M589.626,177.703c-3.469,3.134-5.2,7.234-5.2,12.3c0,5.069,1.731,9.334,5.2,12.8
		c3.465,3.469,7.731,5.2,12.8,5.2h22h23c3.731,0,7.231,0.7,10.5,2.1c3.266,1.4,6.131,3.334,8.6,5.8c2.465,2.469,4.4,5.334,5.8,8.6
		c1.4,3.269,2.1,6.769,2.1,10.5c0,3.734-0.7,7.3-2.1,10.7c-1.4,3.399-3.334,6.368-5.8,8.899c-2.469,2.535-5.334,4.569-8.6,6.101
		c-3.269,1.534-6.769,2.3-10.5,2.3h-73v-10h73c4.531,0,8.5-1.731,11.9-5.2c3.4-3.466,5.1-7.731,5.1-12.8c0-5.065-1.7-9.166-5.1-12.3
		c-3.4-3.131-7.369-4.7-11.9-4.7h-23h-22c-4,0-7.7-0.766-11.1-2.3c-3.4-1.531-6.369-3.566-8.9-6.1c-2.534-2.531-4.5-5.5-5.9-8.9
		c-1.4-3.4-2.1-6.966-2.1-10.7c0-3.731,0.7-7.231,2.1-10.5c1.4-3.266,3.366-6.131,5.9-8.6c2.531-2.465,5.5-4.4,8.9-5.8
		s7.1-2.1,11.1-2.1h72v10h-72C597.357,173.003,593.092,174.572,589.626,177.703z"/>
</g>
<g>
	<path style="fill:#FFA800;" d="M103.155,699.956c6.931,0,13.466,1.3,19.6,3.899c6.131,2.601,11.431,6.135,15.9,10.601
		c4.466,4.469,8,9.769,10.6,15.899c2.6,6.135,3.9,12.67,3.9,19.601v50h-10v-20c-4.534,6-10.334,10.835-17.4,14.5
		c-7.069,3.669-14.6,5.5-22.6,5.5c-7.069,0-13.634-1.3-19.7-3.899c-6.068-2.601-11.334-6.132-15.8-10.601
		c-4.469-4.466-8-9.731-10.6-15.8c-2.6-6.066-3.9-12.631-3.9-19.7c0-6.931,1.3-13.466,3.9-19.601
		c2.6-6.131,6.131-11.431,10.6-15.899c4.466-4.466,9.731-8,15.8-10.601C89.521,701.256,96.086,699.956,103.155,699.956z
		 M103.155,789.956c5.466,0,10.631-1.065,15.5-3.2c4.866-2.131,9.1-5,12.7-8.6c3.6-3.6,6.465-7.832,8.6-12.7
		c2.131-4.866,3.2-10.031,3.2-15.5c0-5.466-1.069-10.632-3.2-15.5c-2.134-4.866-5-9.101-8.6-12.7c-3.6-3.6-7.834-6.465-12.7-8.6
		c-4.869-2.131-10.034-3.2-15.5-3.2c-5.469,0-10.634,1.069-15.5,3.2c-4.869,2.135-9.1,5-12.7,8.6c-3.6,3.6-6.469,7.834-8.6,12.7
		c-2.135,4.868-3.2,10.034-3.2,15.5c0,5.469,1.065,10.634,3.2,15.5c2.131,4.868,5,9.101,8.6,12.7c3.6,3.6,7.832,6.469,12.7,8.6
		C92.521,788.891,97.687,789.956,103.155,789.956z"/>
	<path style="fill:#FFA800;" d="M265.155,749.956c0,7.069-1.334,13.634-4,19.7c-2.669,6.068-6.3,11.334-10.9,15.8
		c-4.6,4.469-9.9,8-15.9,10.601c-6,2.6-12.4,3.899-19.2,3.899c-7.069,0-13.634-1.3-19.7-3.899
		c-6.068-2.601-11.334-6.132-15.8-10.601c-4.469-4.466-8-9.731-10.6-15.8c-2.6-6.066-3.9-12.631-3.9-19.7v-65h10v35h27v10h-27v20
		c0,5.469,1.065,10.634,3.2,15.5c2.131,4.868,5,9.101,8.6,12.7c3.6,3.6,7.832,6.469,12.7,8.6c4.866,2.135,10.031,3.2,15.5,3.2
		c5.466,0,10.631-1.065,15.5-3.2c4.866-2.131,9.1-5,12.7-8.6c3.6-3.6,6.465-7.832,8.6-12.7c2.131-4.866,3.2-10.031,3.2-15.5H265.155
		z"/>
	<path style="fill:#FFA800;" d="M277.154,799.956v-118h10v118H277.154z"/>
	<path style="fill:#FFA800;" d="M349.151,699.956c6.931,0,13.466,1.3,19.6,3.899c6.131,2.601,11.431,6.135,15.9,10.601
		c4.466,4.469,8,9.769,10.6,15.899c2.6,6.135,3.9,12.67,3.9,19.601v50h-10v-20c-4.534,6-10.334,10.835-17.4,14.5
		c-7.069,3.669-14.6,5.5-22.6,5.5c-7.069,0-13.634-1.3-19.7-3.899c-6.068-2.601-11.334-6.132-15.8-10.601
		c-4.469-4.466-8-9.731-10.6-15.8c-2.6-6.066-3.9-12.631-3.9-19.7c0-6.931,1.3-13.466,3.9-19.601
		c2.6-6.131,6.131-11.431,10.6-15.899c4.466-4.466,9.731-8,15.8-10.601C335.517,701.256,342.083,699.956,349.151,699.956z
		 M349.151,789.956c5.466,0,10.631-1.065,15.5-3.2c4.866-2.131,9.1-5,12.7-8.6c3.6-3.6,6.465-7.832,8.6-12.7
		c2.131-4.866,3.2-10.031,3.2-15.5c0-5.466-1.069-10.632-3.2-15.5c-2.134-4.866-5-9.101-8.6-12.7c-3.6-3.6-7.834-6.465-12.7-8.6
		c-4.869-2.131-10.034-3.2-15.5-3.2c-5.469,0-10.634,1.069-15.5,3.2c-4.869,2.135-9.1,5-12.7,8.6c-3.6,3.6-6.469,7.834-8.6,12.7
		c-2.135,4.868-3.2,10.034-3.2,15.5c0,5.469,1.065,10.634,3.2,15.5c2.131,4.868,5,9.101,8.6,12.7c3.6,3.6,7.832,6.469,12.7,8.6
		C338.517,788.891,343.683,789.956,349.151,789.956z"/>
	<path style="fill:#FFA800;" d="M426.351,714.656c-3.469,3.135-5.2,7.234-5.2,12.3c0,5.069,1.731,9.335,5.2,12.8
		c3.465,3.469,7.731,5.2,12.8,5.2h22h23c3.731,0,7.231,0.7,10.5,2.101c3.266,1.399,6.131,3.334,8.6,5.799
		c2.465,2.469,4.4,5.335,5.8,8.601c1.4,3.269,2.1,6.769,2.1,10.5c0,3.734-0.7,7.3-2.1,10.7s-3.334,6.369-5.8,8.9
		c-2.469,2.533-5.334,4.568-8.6,6.1c-3.269,1.534-6.769,2.3-10.5,2.3h-73v-10h73c4.531,0,8.5-1.731,11.9-5.2
		c3.4-3.465,5.1-7.73,5.1-12.8c0-5.065-1.7-9.165-5.1-12.3c-3.4-3.131-7.369-4.7-11.9-4.7h-23h-22c-4,0-7.7-0.766-11.1-2.3
		c-3.4-1.531-6.369-3.566-8.9-6.1c-2.534-2.531-4.5-5.5-5.9-8.9s-2.1-6.966-2.1-10.7c0-3.731,0.7-7.231,2.1-10.5
		c1.4-3.266,3.366-6.132,5.9-8.601c2.531-2.465,5.5-4.399,8.9-5.799c3.4-1.4,7.1-2.101,11.1-2.101h72v10h-72
		C434.082,709.956,429.816,711.525,426.351,714.656z"/>
	<path style="fill:#FFA800;" d="M523.15,744.956h100v10h-100V744.956z"/>
	<path style="fill:#FFA800;" d="M685.15,699.956c6.931,0,13.466,1.3,19.6,3.899c6.131,2.601,11.431,6.135,15.9,10.601
		c4.466,4.469,8,9.769,10.6,15.899c2.6,6.135,3.9,12.67,3.9,19.601v50h-10v-20c-4.534,6-10.334,10.835-17.4,14.5
		c-7.069,3.669-14.6,5.5-22.6,5.5c-7.069,0-13.634-1.3-19.7-3.899c-6.068-2.601-11.334-6.132-15.8-10.601
		c-4.469-4.466-8-9.731-10.6-15.8c-2.6-6.066-3.9-12.631-3.9-19.7c0-6.931,1.3-13.466,3.9-19.601
		c2.6-6.131,6.131-11.431,10.6-15.899c4.466-4.466,9.731-8,15.8-10.601C671.516,701.256,678.081,699.956,685.15,699.956z
		 M685.15,789.956c5.466,0,10.631-1.065,15.5-3.2c4.866-2.131,9.1-5,12.7-8.6c3.6-3.6,6.465-7.832,8.6-12.7
		c2.131-4.866,3.2-10.031,3.2-15.5c0-5.466-1.069-10.632-3.2-15.5c-2.134-4.866-5-9.101-8.6-12.7c-3.6-3.6-7.834-6.465-12.7-8.6
		c-4.869-2.131-10.034-3.2-15.5-3.2c-5.469,0-10.634,1.069-15.5,3.2c-4.869,2.135-9.1,5-12.7,8.6c-3.6,3.6-6.469,7.834-8.6,12.7
		c-2.135,4.868-3.2,10.034-3.2,15.5c0,5.469,1.065,10.634,3.2,15.5c2.131,4.868,5,9.101,8.6,12.7c3.6,3.6,7.832,6.469,12.7,8.6
		C674.516,788.891,679.681,789.956,685.15,789.956z"/>
	<path style="fill:#FFA800;" d="M847.149,749.956c0,7.069-1.334,13.634-4,19.7c-2.669,6.068-6.3,11.334-10.9,15.8
		c-4.6,4.469-9.9,8-15.9,10.601c-6,2.6-12.4,3.899-19.2,3.899c-8.534,0-16.2-1.831-23-5.5c-6.8-3.665-12.469-8.5-17-14.5v38h-10v-68
		c0-6.931,1.3-13.466,3.9-19.601c2.6-6.131,6.131-11.431,10.6-15.899c4.466-4.466,9.731-8,15.8-10.601
		c6.066-2.6,12.631-3.899,19.7-3.899c6.8,0,13.2,1.3,19.2,3.899c6,2.601,11.3,6.135,15.9,10.601c4.6,4.469,8.231,9.769,10.9,15.899
		C845.815,736.49,847.149,743.025,847.149,749.956z M837.149,749.956c0-5.466-1.069-10.632-3.2-15.5c-2.134-4.866-5-9.101-8.6-12.7
		c-3.6-3.6-7.834-6.465-12.7-8.6c-4.869-2.131-10.034-3.2-15.5-3.2c-5.469,0-10.634,1.069-15.5,3.2c-4.869,2.135-9.1,5-12.7,8.6
		c-3.6,3.6-6.469,7.834-8.6,12.7c-2.135,4.868-3.2,10.034-3.2,15.5c0,5.469,1.065,10.634,3.2,15.5c2.131,4.868,5,9.101,8.6,12.7
		c3.6,3.6,7.832,6.469,12.7,8.6c4.866,2.135,10.031,3.2,15.5,3.2c5.466,0,10.631-1.065,15.5-3.2c4.866-2.131,9.1-5,12.7-8.6
		c3.6-3.6,6.465-7.832,8.6-12.7C836.081,760.59,837.149,755.425,837.149,749.956z"/>
	<path style="fill:#FFA800;" d="M859.149,691.956v-10h10v10H859.149z M859.149,799.956v-100h10v100H859.149z"/>
	<path style="fill:#FFA800;" d="M881.146,744.956h100v10h-100V744.956z"/>
	<path style="fill:#FFA800;" d="M103.155,1039.956c-7.069,0-13.634-1.3-19.7-3.9c-6.068-2.6-11.334-6.131-15.8-10.6
		c-4.469-4.466-8-9.731-10.6-15.8c-2.6-6.065-3.9-12.632-3.9-19.7v-50h10v50c0,5.469,1.065,10.635,3.2,15.5
		c2.131,4.869,5,9.1,8.6,12.7c3.6,3.6,7.832,6.469,12.7,8.6c4.866,2.135,10.031,3.2,15.5,3.2c5.466,0,10.631-1.065,15.5-3.2
		c4.866-2.131,9.1-5,12.7-8.6c3.6-3.601,6.465-7.831,8.6-12.7c2.131-4.865,3.2-10.031,3.2-15.5v-50h10v50
		c0,5.469,1.065,10.635,3.2,15.5c2.131,4.869,5,9.1,8.6,12.7c3.6,3.6,7.832,6.469,12.7,8.6c4.866,2.135,10.031,3.2,15.5,3.2
		c5.466,0,10.631-1.065,15.5-3.2c4.866-2.131,9.1-5,12.7-8.6c3.6-3.601,6.465-7.831,8.6-12.7c2.131-4.865,3.2-10.031,3.2-15.5v-50
		h10v50c0,7.068-1.334,13.635-4,19.7c-2.669,6.068-6.3,11.334-10.9,15.8c-4.6,4.469-9.9,8-15.9,10.6c-6,2.601-12.4,3.9-19.2,3.9
		c-5.069,0-9.869-0.7-14.4-2.1c-4.535-1.4-8.734-3.366-12.6-5.9c-3.869-2.531-7.334-5.5-10.4-8.9c-3.069-3.399-5.6-7.1-7.6-11.1
		c-2,4-4.569,7.7-7.7,11.1c-3.134,3.4-6.668,6.369-10.6,8.9c-3.935,2.534-8.169,4.5-12.7,5.9
		C112.621,1039.256,107.955,1039.956,103.155,1039.956z"/>
	<path style="fill:#FFA800;" d="M305.154,939.956c6.8,0,13.2,1.3,19.2,3.9c6,2.6,11.3,6.134,15.9,10.6
		c4.6,4.469,8.231,9.769,10.9,15.9c2.666,6.134,4,12.668,4,19.6h-10c0-5.466-1.069-10.631-3.2-15.5c-2.134-4.865-5-9.1-8.6-12.7
		c-3.6-3.6-7.834-6.466-12.7-8.6c-4.869-2.132-10.034-3.2-15.5-3.2c-5.469,0-10.634,1.068-15.5,3.2c-4.869,2.134-9.1,5-12.7,8.6
		c-3.6,3.601-6.469,7.835-8.6,12.7c-2.135,4.869-3.2,10.034-3.2,15.5v50h-10v-50c0-6.932,1.3-13.466,3.9-19.6
		c2.6-6.132,6.131-11.432,10.6-15.9c4.466-4.466,9.731-8,15.8-10.6C291.52,941.256,298.085,939.956,305.154,939.956z"/>
	<path style="fill:#FFA800;" d="M417.154,939.956c6.931,0,13.466,1.3,19.6,3.9c6.131,2.6,11.431,6.134,15.9,10.6
		c4.466,4.469,8,9.769,10.6,15.9c2.6,6.134,3.9,12.668,3.9,19.6v50h-10v-20c-4.534,6-10.334,10.834-17.4,14.5
		c-7.069,3.669-14.6,5.5-22.6,5.5c-7.069,0-13.634-1.3-19.7-3.9c-6.068-2.6-11.334-6.131-15.8-10.6c-4.469-4.466-8-9.731-10.6-15.8
		c-2.6-6.065-3.9-12.632-3.9-19.7c0-6.932,1.3-13.466,3.9-19.6c2.6-6.132,6.131-11.432,10.6-15.9c4.466-4.466,9.731-8,15.8-10.6
		C403.52,941.256,410.085,939.956,417.154,939.956z M417.154,1029.956c5.466,0,10.631-1.065,15.5-3.2c4.866-2.131,9.1-5,12.7-8.6
		c3.6-3.601,6.465-7.831,8.6-12.7c2.131-4.865,3.2-10.031,3.2-15.5c0-5.466-1.069-10.631-3.2-15.5c-2.134-4.865-5-9.1-8.6-12.7
		c-3.6-3.6-7.834-6.466-12.7-8.6c-4.869-2.132-10.034-3.2-15.5-3.2c-5.469,0-10.634,1.068-15.5,3.2c-4.869,2.134-9.1,5-12.7,8.6
		c-3.6,3.601-6.469,7.835-8.6,12.7c-2.135,4.869-3.2,10.034-3.2,15.5c0,5.469,1.065,10.635,3.2,15.5c2.131,4.869,5,9.1,8.6,12.7
		c3.6,3.6,7.832,6.469,12.7,8.6C406.52,1028.891,411.685,1029.956,417.154,1029.956z"/>
	<path style="fill:#FFA800;" d="M579.153,989.956c0,7.068-1.334,13.635-4,19.7c-2.669,6.068-6.3,11.334-10.9,15.8
		c-4.6,4.469-9.9,8-15.9,10.6c-6,2.601-12.4,3.9-19.2,3.9c-8.534,0-16.2-1.831-23-5.5c-6.8-3.666-12.469-8.5-17-14.5v38h-10v-68
		c0-6.932,1.3-13.466,3.9-19.6c2.6-6.132,6.131-11.432,10.6-15.9c4.466-4.466,9.731-8,15.8-10.6c6.066-2.601,12.631-3.9,19.7-3.9
		c6.8,0,13.2,1.3,19.2,3.9c6,2.6,11.3,6.134,15.9,10.6c4.6,4.469,8.231,9.769,10.9,15.9
		C577.819,976.49,579.153,983.024,579.153,989.956z M569.153,989.956c0-5.466-1.069-10.631-3.2-15.5c-2.134-4.865-5-9.1-8.6-12.7
		c-3.6-3.6-7.834-6.466-12.7-8.6c-4.869-2.132-10.034-3.2-15.5-3.2c-5.469,0-10.634,1.068-15.5,3.2c-4.869,2.134-9.1,5-12.7,8.6
		c-3.6,3.601-6.469,7.835-8.6,12.7c-2.135,4.869-3.2,10.034-3.2,15.5c0,5.469,1.065,10.635,3.2,15.5c2.131,4.869,5,9.1,8.6,12.7
		c3.6,3.6,7.832,6.469,12.7,8.6c4.866,2.135,10.031,3.2,15.5,3.2c5.466,0,10.631-1.065,15.5-3.2c4.866-2.131,9.1-5,12.7-8.6
		c3.6-3.601,6.465-7.831,8.6-12.7C568.084,1000.591,569.153,995.425,569.153,989.956z"/>
	<path style="fill:#FFA800;" d="M691.153,989.956c0,7.068-1.334,13.635-4,19.7c-2.669,6.068-6.3,11.334-10.9,15.8
		c-4.6,4.469-9.9,8-15.9,10.6c-6,2.601-12.4,3.9-19.2,3.9c-8.534,0-16.2-1.831-23-5.5c-6.8-3.666-12.469-8.5-17-14.5v38h-10v-68
		c0-6.932,1.3-13.466,3.9-19.6c2.6-6.132,6.131-11.432,10.6-15.9c4.466-4.466,9.731-8,15.8-10.6c6.066-2.601,12.631-3.9,19.7-3.9
		c6.8,0,13.2,1.3,19.2,3.9c6,2.6,11.3,6.134,15.9,10.6c4.6,4.469,8.231,9.769,10.9,15.9
		C689.818,976.49,691.153,983.024,691.153,989.956z M681.153,989.956c0-5.466-1.069-10.631-3.2-15.5c-2.134-4.865-5-9.1-8.6-12.7
		c-3.6-3.6-7.834-6.466-12.7-8.6c-4.869-2.132-10.034-3.2-15.5-3.2c-5.469,0-10.634,1.068-15.5,3.2c-4.869,2.134-9.1,5-12.7,8.6
		c-3.6,3.601-6.469,7.835-8.6,12.7c-2.135,4.869-3.2,10.034-3.2,15.5c0,5.469,1.065,10.635,3.2,15.5c2.131,4.869,5,9.1,8.6,12.7
		c3.6,3.6,7.832,6.469,12.7,8.6c4.866,2.135,10.031,3.2,15.5,3.2c5.466,0,10.631-1.065,15.5-3.2c4.866-2.131,9.1-5,12.7-8.6
		c3.6-3.601,6.465-7.831,8.6-12.7C680.084,1000.591,681.153,995.425,681.153,989.956z"/>
	<path style="fill:#FFA800;" d="M753.152,1029.956c8.531,0,16.065-2.266,22.6-6.8c6.531-4.531,11.331-10.601,14.4-18.2h11
		c-1.734,5.068-4.169,9.734-7.3,14c-3.135,4.269-6.8,7.935-11,11c-4.2,3.068-8.834,5.5-13.9,7.3c-5.068,1.8-10.334,2.7-15.8,2.7
		c-7.069,0-13.634-1.3-19.7-3.9c-6.068-2.6-11.334-6.131-15.8-10.6c-4.469-4.466-8-9.731-10.6-15.8c-2.6-6.065-3.9-12.632-3.9-19.7
		c0-6.932,1.3-13.466,3.9-19.6c2.6-6.132,6.131-11.432,10.6-15.9c4.466-4.466,9.731-8,15.8-10.6c6.066-2.601,12.631-3.9,19.7-3.9
		c6.931,0,13.466,1.3,19.6,3.9c6.131,2.6,11.431,6.134,15.9,10.6c4.466,4.469,8,9.769,10.6,15.9c2.6,6.134,3.9,12.668,3.9,19.6v5
		h-18h-72c0.8,5.068,2.366,9.734,4.7,14c2.331,4.269,5.3,7.935,8.9,11c3.6,3.068,7.631,5.5,12.1,7.3
		C743.318,1029.056,748.083,1029.956,753.152,1029.956z M753.152,949.956c-5.069,0-9.834,0.9-14.3,2.7
		c-4.469,1.8-8.5,4.234-12.1,7.3c-3.6,3.068-6.569,6.769-8.9,11.1c-2.334,4.335-3.9,8.969-4.7,13.9h80
		c-0.8-4.932-2.369-9.565-4.7-13.9c-2.334-4.331-5.3-8.031-8.9-11.1c-3.6-3.065-7.668-5.5-12.2-7.3
		C762.818,950.856,758.083,949.956,753.152,949.956z"/>
	<path style="fill:#FFA800;" d="M865.152,939.956c6.8,0,13.2,1.3,19.2,3.9c6,2.6,11.3,6.134,15.9,10.6
		c4.6,4.469,8.231,9.769,10.9,15.9c2.666,6.134,4,12.668,4,19.6h-10c0-5.466-1.069-10.631-3.2-15.5c-2.134-4.865-5-9.1-8.6-12.7
		c-3.6-3.6-7.834-6.466-12.7-8.6c-4.869-2.132-10.034-3.2-15.5-3.2c-5.469,0-10.634,1.068-15.5,3.2c-4.869,2.134-9.1,5-12.7,8.6
		c-3.6,3.601-6.469,7.835-8.6,12.7c-2.135,4.869-3.2,10.034-3.2,15.5v50h-10v-50c0-6.932,1.3-13.466,3.9-19.6
		c2.6-6.132,6.131-11.432,10.6-15.9c4.466-4.466,9.731-8,15.8-10.6C851.518,941.256,858.083,939.956,865.152,939.956z"/>
</g>
<g>
	<path style="fill:#FFFFFF;" d="M1111.449,1057.844h-4.949v-50.5h4.949v44.036l45.551-45.45l3.434,3.434L1111.449,1057.844z"/>
	<path style="fill:#FFFFFF;" d="M1187.703,1007.344c3.5,0,6.8,0.656,9.897,1.97c3.097,1.313,5.772,3.098,8.03,5.353
		c2.254,2.257,4.039,4.934,5.352,8.029c1.313,3.098,1.971,6.398,1.971,9.898c0,3.57-0.657,6.885-1.971,9.949
		c-1.313,3.064-3.098,5.723-5.352,7.979c-2.258,2.256-4.934,4.039-8.03,5.353c-3.098,1.313-6.397,1.97-9.897,1.97
		c-3.57,0-6.886-0.656-9.949-1.97c-3.064-1.313-5.724-3.097-7.979-5.353c-2.257-2.256-4.04-4.914-5.354-7.979
		c-1.313-3.064-1.969-6.379-1.969-9.949v-34.34h5.049v19.189c2.289-3.029,5.218-5.469,8.787-7.322
		C1179.857,1008.27,1183.662,1007.344,1187.703,1007.344z M1187.703,1052.794c2.76,0,5.368-0.538,7.827-1.616
		c2.457-1.076,4.595-2.525,6.413-4.343c1.818-1.818,3.266-3.955,4.344-6.413c1.076-2.458,1.615-5.066,1.615-7.828
		c0-2.76-0.539-5.369-1.615-7.828c-1.078-2.457-2.525-4.595-4.344-6.413c-1.818-1.817-3.956-3.265-6.413-4.343
		c-2.459-1.076-5.067-1.616-7.827-1.616c-2.762,0-5.371,0.54-7.828,1.616c-2.459,1.078-4.596,2.525-6.414,4.343
		c-1.817,1.818-3.266,3.956-4.342,6.413c-1.078,2.459-1.617,5.068-1.617,7.828c0,2.762,0.539,5.37,1.617,7.828
		c1.076,2.458,2.524,4.595,4.342,6.413c1.818,1.817,3.955,3.267,6.414,4.343C1182.332,1052.256,1184.941,1052.794,1187.703,1052.794
		z"/>
	<path style="fill:#FFFFFF;" d="M1224.063,1057.844h-5.051v-5.05h5.051V1057.844z"/>
	<path style="fill:#FFFFFF;" d="M1255.371,1007.344c3.434,0,6.666,0.674,9.695,2.02c3.03,1.348,5.707,3.182,8.029,5.505
		c2.323,2.323,4.157,4.999,5.505,8.03c1.347,3.029,2.021,6.262,2.021,9.695v25.25h-5.051v-25.25c0-2.76-0.539-5.369-1.615-7.828
		c-1.078-2.457-2.525-4.595-4.344-6.413c-1.818-1.817-3.956-3.265-6.413-4.343c-2.459-1.076-5.067-1.616-7.827-1.616
		c-2.762,0-5.371,0.54-7.828,1.616c-2.459,1.078-4.596,2.525-6.414,4.343c-1.817,1.818-3.266,3.956-4.342,6.413
		c-1.078,2.459-1.617,5.068-1.617,7.828v25.25h-5.049v-25.25c0-3.434,0.656-6.666,1.969-9.695c1.313-3.031,3.097-5.707,5.354-8.03
		c2.255-2.323,4.914-4.157,7.979-5.505C1248.485,1008.018,1251.801,1007.344,1255.371,1007.344z"/>
	<path style="fill:#FFFFFF;" d="M1311.93,1052.794c4.309,0,8.113-1.145,11.414-3.435c3.298-2.288,5.722-5.353,7.271-9.19h5.555
		c-0.875,2.56-2.105,4.915-3.686,7.069c-1.584,2.156-3.435,4.008-5.556,5.556c-2.121,1.55-4.462,2.777-7.02,3.687
		c-2.56,0.908-5.219,1.363-7.979,1.363c-3.569,0-6.885-0.656-9.948-1.97c-3.064-1.313-5.724-3.097-7.979-5.353
		s-4.039-4.914-5.352-7.979c-1.313-3.064-1.971-6.379-1.971-9.949c0-3.5,0.657-6.801,1.971-9.898
		c1.313-3.096,3.096-5.772,5.352-8.029c2.256-2.255,4.915-4.039,7.979-5.353c3.063-1.313,6.379-1.97,9.948-1.97
		c3.501,0,6.801,0.656,9.898,1.97c3.096,1.313,5.773,3.098,8.029,5.353c2.256,2.257,4.04,4.934,5.354,8.029
		c1.313,3.098,1.969,6.398,1.969,9.898v2.525h-9.09h-36.359c0.404,2.56,1.194,4.916,2.373,7.07c1.178,2.154,2.677,4.006,4.494,5.555
		c1.818,1.549,3.854,2.777,6.111,3.686C1306.964,1052.34,1309.371,1052.794,1311.93,1052.794z M1311.93,1012.394
		c-2.559,0-4.966,0.454-7.221,1.364c-2.257,0.908-4.293,2.138-6.111,3.686c-1.817,1.551-3.316,3.418-4.494,5.605
		c-1.179,2.189-1.969,4.529-2.373,7.02h40.4c-0.404-2.49-1.197-4.83-2.374-7.02c-1.179-2.188-2.677-4.055-4.495-5.605
		c-1.817-1.548-3.872-2.777-6.16-3.686C1316.812,1012.848,1314.42,1012.394,1311.93,1012.394z"/>
	<path style="fill:#FFFFFF;" d="M1393.74,1032.594c0,3.57-0.674,6.885-2.021,9.949c-1.348,3.064-3.182,5.723-5.505,7.979
		c-2.322,2.256-4.999,4.039-8.029,5.353c-3.029,1.313-6.262,1.97-9.695,1.97c-3.57,0-6.886-0.656-9.949-1.97
		c-3.064-1.313-5.724-3.097-7.979-5.353c-2.257-2.256-4.04-4.914-5.354-7.979c-1.313-3.064-1.969-6.379-1.969-9.949v-32.825h5.049
		v17.675h13.636v5.051h-13.636v10.1c0,2.762,0.539,5.37,1.617,7.828c1.076,2.458,2.524,4.595,4.342,6.413
		c1.818,1.817,3.955,3.267,6.414,4.343c2.457,1.078,5.066,1.616,7.828,1.616c2.76,0,5.368-0.538,7.827-1.616
		c2.457-1.076,4.595-2.525,6.413-4.343c1.818-1.818,3.266-3.955,4.344-6.413c1.076-2.458,1.615-5.066,1.615-7.828H1393.74z"/>
	<path style="fill:#FFFFFF;" d="M1404.85,1062.894h-5.051v-10.1h5.051V1062.894z"/>
	<path style="fill:#FFFFFF;" d="M1486.658,1052.794c2.424,0,4.679-0.387,6.767-1.161c2.087-0.773,3.989-1.834,5.706-3.182
		c1.717-1.347,3.197-2.945,4.444-4.798c1.245-1.851,2.171-3.854,2.777-6.01h5.05c-0.605,2.896-1.684,5.573-3.231,8.03
		c-1.55,2.458-3.401,4.595-5.556,6.413c-2.155,1.817-4.596,3.231-7.322,4.241c-2.727,1.011-5.605,1.516-8.635,1.516
		c-3.57,0-6.886-0.656-9.949-1.97c-3.064-1.313-5.724-3.097-7.979-5.353c-2.257-2.256-4.04-4.914-5.354-7.979
		c-1.313-3.064-1.969-6.379-1.969-9.949c0-3.5,0.656-6.801,1.969-9.898c1.313-3.096,3.097-5.772,5.354-8.029
		c2.255-2.255,4.914-4.039,7.979-5.353c3.063-1.313,6.379-1.97,9.949-1.97c3.029,0,5.908,0.505,8.635,1.516
		c2.727,1.01,5.167,2.424,7.322,4.241c2.154,1.818,4.006,3.956,5.556,6.413c1.548,2.459,2.626,5.136,3.231,8.03h-5.05
		c-0.606-2.154-1.532-4.157-2.777-6.01c-1.247-1.851-2.728-3.45-4.444-4.798c-1.717-1.346-3.619-2.406-5.706-3.182
		c-2.088-0.773-4.343-1.161-6.767-1.161c-2.762,0-5.371,0.54-7.828,1.616c-2.459,1.078-4.596,2.525-6.414,4.343
		c-1.817,1.818-3.266,3.956-4.342,6.413c-1.078,2.459-1.617,5.068-1.617,7.828c0,2.762,0.539,5.37,1.617,7.828
		c1.076,2.458,2.524,4.595,4.342,6.413c1.818,1.817,3.955,3.267,6.414,4.343C1481.287,1052.256,1483.896,1052.794,1486.658,1052.794
		z"/>
	<path style="fill:#FFFFFF;" d="M1567.962,1022.494h-10.101v20.199h10.101v5.051h-10.101v10.1h-5.049v-10.1h-20.201v10.1h-5.049
		v-10.1h-10.101v-5.051h10.101v-20.199h-10.101v-5.051h10.101v-10.1h5.049v10.1h20.201v-10.1h5.049v10.1h10.101V1022.494z
		 M1552.813,1042.693v-20.199h-20.201v20.199H1552.813z"/>
</g>
</svg>
